<?xml version="1.0" standalone="no"?>
<!DOCTYPE svg PUBLIC "-//W3C//DTD SVG 1.1//EN" "http://www.w3.org/Graphics/SVG/1.1/DTD/svg11.dtd" >
<svg xmlns="http://www.w3.org/2000/svg" xmlns:xlink="http://www.w3.org/1999/xlink" version="1.1">
<metadata>
Created by FontForge 20190801 at Wed Nov  7 03:08:37 2018
 By www-data
Copyright 2017 The Barlow Project Authors (https://github.com/jpt/barlow)
</metadata>
<defs>
<font id="BarlowSemiCondensedSemiBold" horiz-adv-x="0" >
  <font-face 
    font-family="BarlowSemiCondensedSemiBold"
    font-weight="600"
    font-stretch="semi-condensed"
    units-per-em="1000"
    panose-1="0 0 7 6 0 0 0 0 0 0"
    ascent="800"
    descent="-200"
    x-height="511"
    cap-height="700"
    bbox="-584.923 -219 1068 1083"
    underline-thickness="50"
    underline-position="-100"
    unicode-range="U+000D-FB02"
  />
<missing-glyph horiz-adv-x="418" 
d="M5 0h408q5 0 5 5v690q0 5 -5 5h-408q-5 0 -5 -5v-690q0 -5 5 -5zM163.5 246.5q-3.5 3.5 -3.5 8.5v26q0 34 15.5 55t45.5 45q26 22 38.5 38t12.5 41q0 28 -16 44.5t-42 16.5q-28 0 -45 -17.5t-17 -45.5v-11q0 -5 -3.5 -8.5t-8.5 -3.5l-59 3q-5 0 -8.5 3.5t-3.5 8.5v8
q0 62 41 100.5t106 38.5q64 0 102 -36.5t38 -97.5q0 -45 -17.5 -70.5t-51.5 -52.5q-23 -19 -33.5 -32t-10.5 -32v-21q0 -5 -3.5 -8.5t-8.5 -3.5h-59q-5 0 -8.5 3.5zM164.5 104q-14.5 14 -14.5 36t14.5 36.5t36.5 14.5t36 -14.5t14 -36.5t-14 -36t-36 -14t-36.5 14z" />
    <glyph glyph-name="fi" unicode="fi" horiz-adv-x="568" 
d="M299.5 507.5q3.5 -3.5 3.5 -8.5v-68q0 -5 -3.5 -8.5t-8.5 -3.5h-81q-5 0 -5 -5v-402q0 -5 -3.5 -8.5t-8.5 -3.5h-91q-5 0 -8.5 3.5t-3.5 8.5v402q0 5 -5 5h-48q-5 0 -8.5 3.5t-3.5 8.5v68q0 5 3.5 8.5t8.5 3.5h48q5 0 5 5v22q0 63 17.5 98.5t56 51t103.5 14.5h21
q5 0 8.5 -3.5t3.5 -8.5v-69q0 -5 -3.5 -8.5t-8.5 -3.5h-16q-37 -1 -52 -18.5t-15 -59.5v-15q0 -5 5 -5h81q5 0 8.5 -3.5zM399.5 601q-19.5 20 -19.5 51t19.5 51t50.5 20q32 0 51.5 -19.5t19.5 -51.5q0 -31 -20 -51t-51 -20t-50.5 20zM395.5 3.5q-3.5 3.5 -3.5 8.5v488
q0 5 3.5 8.5t8.5 3.5h92q5 0 8.5 -3.5t3.5 -8.5v-488q0 -5 -3.5 -8.5t-8.5 -3.5h-92q-5 0 -8.5 3.5z" />
    <glyph glyph-name="fl" unicode="fl" horiz-adv-x="552" 
d="M299.5 507.5q3.5 -3.5 3.5 -8.5v-68q0 -5 -3.5 -8.5t-8.5 -3.5h-81q-5 0 -5 -5v-402q0 -5 -3.5 -8.5t-8.5 -3.5h-91q-5 0 -8.5 3.5t-3.5 8.5v402q0 5 -5 5h-48q-5 0 -8.5 3.5t-3.5 8.5v68q0 5 3.5 8.5t8.5 3.5h48q5 0 5 5v22q0 63 17.5 98.5t56 51t103.5 14.5h21
q5 0 8.5 -3.5t3.5 -8.5v-69q0 -5 -3.5 -8.5t-8.5 -3.5h-16q-37 -1 -52 -18.5t-15 -59.5v-15q0 -5 5 -5h81q5 0 8.5 -3.5zM388.5 3.5q-3.5 3.5 -3.5 8.5v676q0 5 3.5 8.5t8.5 3.5h92q5 0 8.5 -3.5t3.5 -8.5v-676q0 -5 -3.5 -8.5t-8.5 -3.5h-92q-5 0 -8.5 3.5z" />
    <glyph glyph-name="I_J.liga" unicode="IJ" horiz-adv-x="755" 
d="M67.5 3.5q-3.5 3.5 -3.5 8.5v676q0 5 3.5 8.5t8.5 3.5h92q5 0 8.5 -3.5t3.5 -8.5v-676q0 -5 -3.5 -8.5t-8.5 -3.5h-92q-5 0 -8.5 3.5zM321 47q-58 55 -58 146v70q0 5 3.5 8.5t8.5 3.5h92q5 0 8.5 -3.5t3.5 -8.5v-71q0 -45 26.5 -72.5t70.5 -27.5t72 27.5t28 72.5v496
q0 5 3.5 8.5t8.5 3.5h91q5 0 8.5 -3.5t3.5 -8.5v-495q0 -60 -27 -105.5t-76 -70.5t-112 -25q-97 0 -155 55z" />
    <glyph glyph-name="f_f_i.liga" unicode="ffi" horiz-adv-x="865" 
d="M697 601q-20 20 -20 51t20 51t51 20t50.5 -20t19.5 -51t-20 -51t-50 -20q-31 0 -51 20zM503 516q0 -5 5 -5h83q5 0 8.5 -3.5t3.5 -8.5v-64q0 -5 -3.5 -8.5t-8.5 -3.5h-83q-5 0 -5 -5v-406q0 -5 -3.5 -8.5t-8.5 -3.5h-92q-5 0 -8.5 3.5t-3.5 8.5v406q0 5 -5 5h-174
q-5 0 -5 -5v-406q0 -5 -3.5 -8.5t-8.5 -3.5h-92q-5 0 -8.5 3.5t-3.5 8.5v406q0 5 -5 5h-45q-5 0 -8.5 3.5t-3.5 8.5v64q0 5 3.5 8.5t8.5 3.5h45q5 0 5 5v35q0 83 42 118.5t137 32.5h19q5 0 8.5 -3.5t3.5 -8.5v-56q0 -5 -3.5 -8.5t-8.5 -3.5h-19q-36 -1 -49.5 -20.5
t-13.5 -59.5v-26q0 -5 5 -5h174q5 0 5 5v35q0 83 42 118.5t137 32.5h19q5 0 8.5 -3.5t3.5 -8.5v-56q0 -5 -3.5 -8.5t-8.5 -3.5h-18q-36 -1 -50 -20.5t-14 -59.5v-26zM692.5 3.5q-3.5 3.5 -3.5 8.5v488q0 5 3.5 8.5t8.5 3.5h92q5 0 8.5 -3.5t3.5 -8.5v-488q0 -5 -3.5 -8.5
t-8.5 -3.5h-92q-5 0 -8.5 3.5z" />
    <glyph glyph-name="f_f_l.liga" unicode="ffl" horiz-adv-x="851" 
d="M505 516q0 -5 5 -5h83q5 0 8.5 -3.5t3.5 -8.5v-64q0 -5 -3.5 -8.5t-8.5 -3.5h-83q-5 0 -5 -5v-406q0 -5 -3.5 -8.5t-8.5 -3.5h-92q-5 0 -8.5 3.5t-3.5 8.5v406q0 5 -5 5h-176q-5 0 -5 -5v-406q0 -5 -3.5 -8.5t-8.5 -3.5h-92q-5 0 -8.5 3.5t-3.5 8.5v406q0 5 -5 5h-45
q-5 0 -8.5 3.5t-3.5 8.5v64q0 5 3.5 8.5t8.5 3.5h45q5 0 5 5v35q0 83 42 118.5t137 32.5h19q5 0 8.5 -3.5t3.5 -8.5v-56q0 -5 -3.5 -8.5t-8.5 -3.5h-19q-36 -1 -49.5 -20.5t-13.5 -59.5v-26q0 -5 5 -5h176q5 0 5 5v35q0 83 42 118.5t137 32.5h19q5 0 8.5 -3.5t3.5 -8.5v-56
q0 -5 -3.5 -8.5t-8.5 -3.5h-18q-36 -1 -50 -20.5t-14 -59.5v-26zM686.5 696.5q3.5 3.5 8.5 3.5h92q5 0 8.5 -3.5t3.5 -8.5v-676q0 -5 -3.5 -8.5t-8.5 -3.5h-92q-5 0 -8.5 3.5t-3.5 8.5v676q0 5 3.5 8.5z" />
    <glyph glyph-name="g_j.liga" unicode="gj" horiz-adv-x="717" 
d="M549.5 601q-19.5 20 -19.5 51t19.5 51t50.5 20t51 -20t20 -51t-20 -51t-51 -20t-50.5 20zM323 472.5q2 0.5 2 3.5v23q0 5 3.5 8.5t8.5 3.5h92q5 0 8.5 -3.5t3.5 -8.5v-472q0 -116 -63 -172.5t-182 -56.5q-14 0 -44 2q-12 1 -12 13l3 80q0 12 13 11q10 -1 30 -1
q75 0 107 31t32 100v9q0 3 -2 4t-4 -2q-38 -44 -105 -44q-65 0 -110 38.5t-56 109.5q-6 30 -6 108q0 83 8 114q10 68 52 108t108 40q69 0 109 -45q2 -2 4 -1.5zM542 499q0 5 3.5 8.5t8.5 3.5h92q5 0 8.5 -3.5t3.5 -8.5v-515q0 -67 -18 -108.5t-60 -61.5t-116 -19
q-12 0 -12 12l3 74q0 12 11 12q37 0 56.5 23t19.5 67v516zM325 257q0 57 -4 90q-4 32 -25 52t-53 20t-53 -20t-26 -52q-6 -37 -6 -90q0 -49 5 -87q5 -32 27 -52t54 -20q33 0 53.5 20t24.5 52q3 38 3 87z" />
    <glyph glyph-name="i_j.liga" unicode="ij" horiz-adv-x="462" 
d="M66.5 601q-19.5 20 -19.5 51t19.5 51t50.5 20t51 -20t20 -51t-20 -51t-51 -20t-50.5 20zM293 601q-20 20 -20 51q0 32 20 51.5t51 19.5t50.5 -20t19.5 -51t-20 -51t-50 -20q-31 0 -51 20zM64.5 3.5q-3.5 3.5 -3.5 8.5v487q0 5 3.5 8.5t8.5 3.5h92q5 0 8.5 -3.5t3.5 -8.5
v-487q0 -5 -3.5 -8.5t-8.5 -3.5h-92q-5 0 -8.5 3.5zM182 -193v75q0 12 16 12q48 0 68.5 22t20.5 67v516q0 5 3.5 8.5t8.5 3.5h92q5 0 8.5 -3.5t3.5 -8.5v-515q0 -69 -17 -109.5t-62.5 -60.5t-129.5 -19q-12 0 -12 12z" />
    <glyph glyph-name="hyphen_hyphen.liga" unicode="&#x2d;&#x2d;" horiz-adv-x="630" 
d="M33.5 250.5q-3.5 3.5 -3.5 8.5v76q0 5 3.5 8.5t8.5 3.5h547q5 0 8.5 -3.5t3.5 -8.5v-76q0 -5 -3.5 -8.5t-8.5 -3.5h-547q-5 0 -8.5 3.5z" />
    <glyph glyph-name=".notdef" horiz-adv-x="418" 
d="M5 0h408q5 0 5 5v690q0 5 -5 5h-408q-5 0 -5 -5v-690q0 -5 5 -5zM163.5 246.5q-3.5 3.5 -3.5 8.5v26q0 34 15.5 55t45.5 45q26 22 38.5 38t12.5 41q0 28 -16 44.5t-42 16.5q-28 0 -45 -17.5t-17 -45.5v-11q0 -5 -3.5 -8.5t-8.5 -3.5l-59 3q-5 0 -8.5 3.5t-3.5 8.5v8
q0 62 41 100.5t106 38.5q64 0 102 -36.5t38 -97.5q0 -45 -17.5 -70.5t-51.5 -52.5q-23 -19 -33.5 -32t-10.5 -32v-21q0 -5 -3.5 -8.5t-8.5 -3.5h-59q-5 0 -8.5 3.5zM164.5 104q-14.5 14 -14.5 36t14.5 36.5t36.5 14.5t36 -14.5t14 -36.5t-14 -36t-36 -14t-36.5 14z" />
    <glyph glyph-name=".null" 
 />
    <glyph glyph-name="nonmarkingreturn" unicode="&#xd;" horiz-adv-x="200" 
 />
    <glyph glyph-name="NULL" 
 />
    <glyph glyph-name="NULL" 
 />
    <glyph glyph-name="space" unicode=" " horiz-adv-x="200" 
 />
    <glyph glyph-name="exclam" unicode="!" horiz-adv-x="302" 
d="M108.5 239.5q-3.5 3.5 -3.5 8.5l-11 440q0 5 3.5 8.5t8.5 3.5h92q5 0 8.5 -3.5t3.5 -8.5l-12 -440q0 -5 -3.5 -8.5t-8.5 -3.5h-69q-5 0 -8.5 3.5zM98 22q-20 20 -20 51t20 50.5t51 19.5t51 -19.5t20 -50.5t-20 -51t-51 -20t-51 20z" />
    <glyph glyph-name="quotedbl" unicode="&#x22;" horiz-adv-x="315" 
d="M34 480.5q-4 3.5 -4 8.5l-11 196q0 12 11 12h88q11 0 11 -12l-10 -196q0 -5 -4 -8.5t-9 -3.5h-63q-5 0 -9 3.5zM201 480.5q-4 3.5 -4 8.5l-10 196q0 12 11 12h88q11 0 11 -12l-11 -196q0 -5 -4 -8.5t-9 -3.5h-63q-5 0 -9 3.5z" />
    <glyph glyph-name="numbersign" unicode="#" horiz-adv-x="642" 
d="M588.5 416.5q-3.5 -3.5 -8.5 -3.5h-67q-6 0 -6 -5l-17 -120q0 -5 4 -5h51q5 0 8.5 -3.5t3.5 -8.5v-75q0 -5 -3.5 -8.5t-8.5 -3.5h-66q-6 0 -6 -5l-22 -145q-1 -11 -13 -11l-92 1q-12 0 -11 13l21 142q0 5 -4 5h-112q-6 0 -6 -5l-22 -145q-1 -11 -13 -11l-92 1
q-12 0 -11 13l21 142q0 5 -4 5h-52q-5 0 -8.5 3.5t-3.5 8.5v75q0 5 3.5 8.5t8.5 3.5h67q6 0 6 5l18 120q0 5 -4 5h-52q-5 0 -8.5 3.5t-3.5 8.5v76q0 5 3.5 8.5t8.5 3.5h67q6 0 6 5l22 145q1 11 13 11l92 -1q12 0 11 -13l-21 -142q0 -5 4 -5h112q6 0 6 5l21 145q1 11 13 11
l93 -1q12 0 11 -13l-21 -142q0 -5 4 -5h52q5 0 8.5 -3.5t3.5 -8.5l-1 -76q0 -5 -3.5 -8.5zM373 288l18 120q0 5 -4 5h-113q-6 0 -6 -5l-17 -120q0 -5 4 -5h112q6 0 6 5z" />
    <glyph glyph-name="dollar" unicode="$" horiz-adv-x="501" 
d="M421 58q-44 -50 -119 -62q-5 -2 -5 -6l1 -63q0 -5 -3.5 -8.5t-8.5 -3.5h-71q-5 0 -8.5 3.5t-3.5 8.5l1 64q0 4 -5 6q-75 14 -118 63.5t-43 122.5v26q0 5 3.5 8.5t8.5 3.5h87q5 0 8.5 -3.5t3.5 -8.5v-20q0 -43 29.5 -70t79.5 -27q45 0 70 24t25 63q0 27 -13.5 46.5t-39 36
t-77.5 44.5q-60 32 -96 57t-60.5 64t-24.5 95q0 74 42 122t114 60q5 2 5 6l-2 70q0 5 3.5 8.5t8.5 3.5h71q5 0 8.5 -3.5t3.5 -8.5l-2 -71q0 -4 5 -6q74 -13 117.5 -65t43.5 -127v-21q0 -5 -3.5 -8.5t-8.5 -3.5h-87q-5 0 -8.5 3.5t-3.5 8.5v19q0 43 -28.5 71t-76.5 28
q-42 0 -66 -22.5t-24 -62.5q0 -27 12.5 -46t38.5 -36t78 -44q70 -40 103 -63.5t56 -60t23 -89.5q0 -76 -44 -126z" />
    <glyph glyph-name="percent" unicode="%" horiz-adv-x="802" 
d="M139 424.5q-35 20.5 -55 55.5t-20 77q0 41 20 76t55 55.5t76 20.5t76 -20.5t55 -55.5t20 -76q0 -42 -20 -77t-55 -55.5t-76 -20.5t-76 20.5zM173 4q-2 4 1 10l370 678q5 8 15 8h59q7 0 9 -4t-1 -10l-370 -678q-5 -8 -15 -8h-59q-7 0 -9 4zM274.5 495.5
q24.5 25.5 24.5 61.5t-24.5 61t-59.5 25t-59.5 -25t-24.5 -61q0 -37 24.5 -62t59.5 -25t59.5 25.5zM514 11.5q-35 20.5 -55.5 55.5t-20.5 77q0 41 20.5 76t55.5 55.5t76 20.5t76 -20.5t55 -55.5t20 -76q0 -42 -20 -77t-55 -55.5t-76 -20.5t-76 20.5zM649.5 82.5
q24.5 25.5 24.5 61.5t-24.5 61t-59.5 25t-59.5 -25t-24.5 -61q0 -37 24.5 -62t59.5 -25t59.5 25.5z" />
    <glyph glyph-name="ampersand" unicode="&#x26;" horiz-adv-x="635" 
d="M589 7q0 -7 -10 -7h-102q-9 0 -15 7l-37 44q-3 4 -7 1q-83 -61 -183 -61q-89 0 -143.5 44t-54.5 128q0 67 33.5 114t91.5 87q3 3 1 7q-50 66 -65.5 99t-15.5 71q0 74 49.5 120.5t130.5 46.5q54 0 97 -21.5t67 -60.5t24 -90q0 -62 -33 -107t-91 -84q-3 -3 -1 -7
q33 -37 85 -102l17 -22q4 -4 8 -1q31 42 52 78q7 10 16 4l68 -39q10 -7 4 -16q-35 -59 -75 -110q-3 -3 0 -6l86 -109q3 -4 3 -8zM216.5 583q-18.5 -19 -18.5 -50q0 -19 10 -39t44 -64q3 -4 7 -1q36 25 55.5 50t19.5 56q0 30 -19 48.5t-49 18.5q-31 0 -49.5 -19zM352 132
q5 3 1 7l-50 60l-15 18l-51 62q-3 4 -7 1q-36 -26 -56 -52.5t-20 -59.5q0 -35 23.5 -56t64.5 -21q54 0 110 41z" />
    <glyph glyph-name="quotesingle" unicode="'" horiz-adv-x="153" 
d="M33 483.5q-4 3.5 -4 8.5l-10 195q0 12 11 12h94q11 0 11 -12l-11 -195q0 -5 -4 -8.5t-9 -3.5h-69q-5 0 -9 3.5z" />
    <glyph glyph-name="parenleft" unicode="(" horiz-adv-x="298" 
d="M111 -88q-51 76 -81.5 183t-30.5 235q0 129 31 238t82 184q4 8 14 8h89q7 0 9.5 -4t-0.5 -10q-41 -82 -68 -188t-27 -228q0 -121 27 -226t68 -186q2 -4 2 -6q0 -8 -11 -8h-90q-10 0 -14 8z" />
    <glyph glyph-name="parenright" unicode=")" horiz-adv-x="298" 
d="M187 752q50 -75 81 -182t31 -235q0 -130 -31 -239t-82 -184q-4 -8 -14 -8h-90q-7 0 -9.5 4t0.5 10q42 81 69 187t27 229q0 122 -27 227t-69 185q-2 4 -2 6q0 8 11 8h91q10 0 14 -8z" />
    <glyph glyph-name="asterisk" unicode="*" horiz-adv-x="380" 
d="M159.5 397.5q-3.5 3.5 -3.5 8.5v98q0 3 -2 4t-4 -1l-86 -51q-4 -2 -6 -2q-7 0 -11 7l-21 40q-2 4 -2 6q0 6 6 10l89 51q5 3 0 6l-89 49q-4 3 -5 7.5t1 9.5l21 40q3 5 7.5 6.5t9.5 -1.5l86 -51q2 -2 4 -1t2 4v97q0 5 3.5 8.5t8.5 3.5h44q5 0 8.5 -3.5t3.5 -8.5l-1 -97
q0 -3 2 -4t4 1l86 51q4 2 6 2q7 0 11 -7l22 -40q2 -4 2 -7q0 -5 -6 -10l-89 -49q-4 -3 0 -6l89 -51q10 -7 4 -16l-22 -41q-3 -5 -7.5 -6.5t-9.5 1.5l-86 52q-2 2 -4 1t-2 -4l1 -98q0 -5 -3.5 -8.5t-8.5 -3.5h-44q-5 0 -8.5 3.5z" />
    <glyph glyph-name="plus" unicode="+" horiz-adv-x="465" 
d="M432.5 352.5q3.5 -3.5 3.5 -8.5v-69q0 -5 -3.5 -8.5t-8.5 -3.5h-140q-5 0 -5 -5v-139q0 -5 -3.5 -8.5t-8.5 -3.5h-69q-5 0 -8.5 3.5t-3.5 8.5v139q0 5 -5 5h-139q-5 0 -8.5 3.5t-3.5 8.5v69q0 5 3.5 8.5t8.5 3.5h139q5 0 5 5v141q0 5 3.5 8.5t8.5 3.5h69q5 0 8.5 -3.5
t3.5 -8.5v-141q0 -5 5 -5h140q5 0 8.5 -3.5z" />
    <glyph glyph-name="comma" unicode="," horiz-adv-x="232" 
d="M42 -78l30 224q1 11 13 11h80q14 0 11 -13l-54 -225q-3 -10 -14 -10h-55q-12 0 -11 13z" />
    <glyph glyph-name="hyphen" unicode="-" horiz-adv-x="364" 
d="M33.5 254.5q-3.5 3.5 -3.5 8.5v76q0 5 3.5 8.5t8.5 3.5h281q5 0 8.5 -3.5t3.5 -8.5v-76q0 -5 -3.5 -8.5t-8.5 -3.5h-281q-5 0 -8.5 3.5z" />
    <glyph glyph-name="period" unicode="." horiz-adv-x="242" 
d="M69 18q-20 20 -20 51t20 51t51 20t50.5 -20t19.5 -51t-20 -51t-50 -20q-31 0 -51 20z" />
    <glyph glyph-name="slash" unicode="/" horiz-adv-x="417" 
d="M25.5 3.5q-2.5 3.5 -0.5 10.5l224 676q3 10 13 10h92q6 0 8.5 -3.5t0.5 -10.5l-224 -676q-3 -10 -13 -10h-92q-6 0 -8.5 3.5z" />
    <glyph glyph-name="zero" unicode="0" horiz-adv-x="509" 
d="M103.5 45.5q-56.5 56.5 -56.5 150.5v308q0 94 56.5 150t150.5 56q95 0 151.5 -56t56.5 -150v-308q0 -94 -56.5 -150.5t-151.5 -56.5q-94 0 -150.5 56.5zM321 117q25 27 25 72v320q0 46 -25 73t-67 27q-41 0 -66 -27t-25 -73v-320q0 -45 25 -72t66 -27q42 0 67 27z" />
    <glyph glyph-name="one" unicode="1" horiz-adv-x="313" 
d="M149 700h96q5 0 8.5 -3.5t3.5 -8.5v-676q0 -5 -3.5 -8.5t-8.5 -3.5h-92q-5 0 -8.5 3.5t-3.5 8.5v567q0 2 -2 4t-4 1l-91 -25l-4 -1q-10 0 -10 11l-3 67q0 10 8 14l99 47q5 3 15 3z" />
    <glyph glyph-name="two" unicode="2" horiz-adv-x="488" 
d="M187 102q1 -2 4 -2h251q5 0 8.5 -3.5t3.5 -8.5v-76q0 -5 -3.5 -8.5t-8.5 -3.5h-389q-5 0 -8.5 3.5t-3.5 8.5v77q0 7 5 15q109 132 201 254q75 103 75 160q0 41 -23 65.5t-61 24.5q-37 0 -60 -24t-23 -64v-33q0 -5 -3.5 -8.5t-8.5 -3.5h-93q-5 0 -8.5 3.5t-3.5 8.5v43
q4 80 60 129t142 49q60 0 105 -24.5t69.5 -67.5t24.5 -97q0 -46 -19.5 -94t-59.5 -103q-37 -52 -123 -156q-17 -20 -49 -60q-2 -2 -1 -4z" />
    <glyph glyph-name="three" unicode="3" horiz-adv-x="478" 
d="M434 220q0 -64 -21 -112q-21 -56 -65.5 -86t-112.5 -30q-77 0 -129 40.5t-65 108.5q-5 29 -7 68q0 12 12 12h92q12 0 12 -12q2 -28 6 -48q6 -32 27 -50.5t52 -18.5q29 0 49 16t28 45q8 35 8 76q0 50 -10 81q-20 58 -75 58q-16 0 -34 -10q-4 -3 -8 -3q-5 0 -9 4l-46 52
q-4 4 -4 9t3 8l147 166q5 6 -3 6h-225q-5 0 -8.5 3.5t-3.5 8.5v76q0 5 3.5 8.5t8.5 3.5h362q5 0 8.5 -3.5t3.5 -8.5v-80q0 -9 -5 -14l-132 -157q-3 -5 2 -6q42 -6 72.5 -31.5t46.5 -66.5q20 -49 20 -113z" />
    <glyph glyph-name="four" unicode="4" horiz-adv-x="522" 
d="M484.5 283.5q3.5 -3.5 3.5 -8.5v-80q0 -5 -3.5 -8.5t-8.5 -3.5h-36q-5 0 -5 -5v-166q0 -5 -3.5 -8.5t-8.5 -3.5h-92q-5 0 -8.5 3.5t-3.5 8.5v166q0 5 -5 5h-274q-5 0 -8.5 3.5t-3.5 8.5v65q0 6 3 15l163 416q3 9 14 9h98q15 0 10 -14l-154 -393q-1 -2 0.5 -4t3.5 -2h148
q5 0 5 5v129q0 5 3.5 8.5t8.5 3.5h92q5 0 8.5 -3.5t3.5 -8.5v-129q0 -5 5 -5h36q5 0 8.5 -3.5z" />
    <glyph glyph-name="five" unicode="5" horiz-adv-x="478" 
d="M445 219q0 -53 -10 -89q-18 -66 -67.5 -101.5t-123.5 -35.5t-124.5 37t-66.5 106q-6 26 -7 40v2q0 10 12 10h93q10 0 12 -11l2 -12l5 -14q8 -28 27 -43t47 -15q30 0 50 17.5t27 49.5q7 22 7 58t-7 63q-7 30 -27 45t-50 15q-27 0 -47.5 -12.5t-30.5 -36.5q-3 -10 -13 -10
h-96q-5 0 -8.5 3.5t-3.5 8.5v394q0 5 3.5 8.5t8.5 3.5h358q5 0 8.5 -3.5t3.5 -8.5v-76q0 -5 -3.5 -8.5t-8.5 -3.5h-249q-5 0 -5 -5v-186q0 -3 2 -3.5t4 1.5q20 17 47 26t56 9q59 0 100 -28.5t59 -81.5q16 -47 16 -113z" />
    <glyph glyph-name="six" unicode="6" horiz-adv-x="479" 
d="M446 219q0 -47 -13 -91q-16 -65 -64.5 -100t-122.5 -35q-69 0 -116 32t-66 92l-2 6q-16 36 -16 92l-1 315q0 81 54.5 129.5t142.5 48.5q84 0 137 -48.5t53 -127.5v-23q0 -5 -3.5 -8.5t-8.5 -3.5h-92q-5 0 -8.5 3.5t-3.5 8.5v13q0 37 -21 60.5t-53 23.5q-35 0 -57.5 -23.5
t-22.5 -62.5v-107q0 -3 2 -4t4 1q38 35 93 35q62 0 105 -32.5t61 -89.5q19 -46 19 -104zM329 222q0 41 -12 74q-19 53 -72 53q-54 0 -73 -54q-10 -29 -10 -75q0 -39 8 -67q17 -60 75 -60t75 62q9 32 9 67z" />
    <glyph glyph-name="seven" unicode="7" horiz-adv-x="440" 
d="M108.5 3.5q-2.5 3.5 -0.5 10.5l193 580q2 6 -4 6h-176q-5 0 -5 -5v-40q0 -5 -3.5 -8.5t-8.5 -3.5h-71q-5 0 -8.5 3.5t-3.5 8.5l1 133q0 5 3.5 8.5t8.5 3.5h379q5 0 8.5 -3.5t3.5 -8.5v-80q0 -9 -2 -15l-194 -583q-3 -10 -13 -10h-99q-6 0 -8.5 3.5z" />
    <glyph glyph-name="eight" unicode="8" horiz-adv-x="484" 
d="M443 201q0 -55 -20 -98q-23 -52 -69.5 -81.5t-111.5 -29.5q-62 0 -110 29t-72 82q-19 46 -19 99q0 56 21 105q18 38 51 58q5 3 1 7q-29 20 -46 52q-22 40 -22 95q0 65 31 111q24 39 67.5 60.5t97.5 21.5q55 0 97.5 -21t67.5 -60q32 -50 32 -112q0 -54 -24 -96
q-17 -30 -46 -50q-4 -4 0 -7q33 -20 51 -57q23 -46 23 -108zM160 512q0 -35 14 -60q10 -20 27.5 -30.5t40.5 -10.5q48 0 70 43q12 24 12 59q0 33 -12 55q-9 20 -27.5 32t-43.5 12q-23 0 -41 -11.5t-28 -33.5q-12 -24 -12 -55zM326 210q0 43 -12 70q-22 48 -72 48
q-25 0 -43.5 -13t-27.5 -36q-12 -28 -12 -69q0 -39 12 -66q9 -25 27.5 -38.5t43.5 -13.5t43.5 13.5t28.5 38.5q12 27 12 66z" />
    <glyph glyph-name="nine" unicode="9" horiz-adv-x="480" 
d="M418 577q17 -39 17 -92v-315q0 -81 -54 -129.5t-143 -48.5q-84 0 -137 48.5t-53 127.5v23q0 5 3.5 8.5t8.5 3.5h92q5 0 8.5 -3.5t3.5 -8.5v-13q0 -37 21 -60.5t54 -23.5q35 0 57.5 23.5t22.5 62.5v108q0 3 -2 4t-4 -1q-36 -36 -94 -36q-62 0 -105 32.5t-61 89.5
q-18 44 -18 104q0 51 12 91q16 65 64.5 100t122.5 35q69 0 116 -32t66 -92zM319 480q0 33 -8 67q-8 29 -27.5 44.5t-47.5 15.5q-59 0 -76 -62q-8 -28 -8 -67q0 -44 11 -74q20 -53 73 -53q27 0 45.5 14t26.5 40q11 32 11 75z" />
    <glyph glyph-name="colon" unicode=":" horiz-adv-x="304" 
d="M101 356q-20 20 -20 51t20 51t51 20t50.5 -20t19.5 -51t-20 -51t-50 -20q-31 0 -51 20zM101 25q-20 20 -20 51t20 51t51 20t50.5 -20t19.5 -51t-20 -51t-50 -20q-31 0 -51 20z" />
    <glyph glyph-name="semicolon" unicode=";" horiz-adv-x="266" 
d="M78.5 347.5q-22.5 22.5 -22.5 55.5q0 31 23.5 53.5t54.5 22.5t54.5 -22.5t23.5 -53.5q0 -33 -22.5 -55.5t-55.5 -22.5t-55.5 22.5zM64.5 -85.5q-3.5 3.5 -2.5 9.5l22 219q2 11 12 11h81q13 0 10 -13l-46 -219q-2 -11 -13 -11h-54q-6 0 -9.5 3.5z" />
    <glyph glyph-name="less" unicode="&#x3c;" horiz-adv-x="465" 
d="M432 47q-4 -3 -10 0l-383 177q-9 5 -9 14v81q0 10 9 14l383 177q2 1 5 1q9 0 9 -11v-86q0 -9 -9 -14l-275 -119q-6 -3 0 -6l275 -118q9 -4 9 -14v-86q0 -7 -4 -10z" />
    <glyph glyph-name="equal" unicode="=" horiz-adv-x="465" 
d="M33.5 366.5q-3.5 3.5 -3.5 8.5v69q0 5 3.5 8.5t8.5 3.5h382q5 0 8.5 -3.5t3.5 -8.5v-69q0 -5 -3.5 -8.5t-8.5 -3.5h-382q-5 0 -8.5 3.5zM33.5 171.5q-3.5 3.5 -3.5 8.5v69q0 5 3.5 8.5t8.5 3.5h382q5 0 8.5 -3.5t3.5 -8.5v-69q0 -5 -3.5 -8.5t-8.5 -3.5h-382
q-5 0 -8.5 3.5z" />
    <glyph glyph-name="greater" unicode="&#x3e;" horiz-adv-x="465" 
d="M39 46q-9 0 -9 11v86q0 10 9 14l275 118q6 3 0 6l-275 119q-9 5 -9 14v86q0 7 4 10t10 0l383 -177q9 -4 9 -14v-81q0 -9 -9 -14l-383 -177q-2 -1 -5 -1z" />
    <glyph glyph-name="question" unicode="?" horiz-adv-x="456" 
d="M157.5 217.5q-3.5 3.5 -3.5 8.5v41q0 34 12 59t28.5 42t44.5 39q36 29 54 52.5t18 58.5q0 39 -22.5 62.5t-59.5 23.5q-39 0 -63 -25t-24 -64v-21q0 -11 -12 -11l-92 4q-5 0 -8.5 4t-3.5 9v15q0 57 26 101.5t73 69t107 24.5q89 0 142.5 -51.5t53.5 -136.5q0 -44 -13.5 -76
t-32.5 -52t-50 -45q-32 -25 -47 -43.5t-15 -45.5v-34q0 -5 -3.5 -8.5t-8.5 -3.5h-92q-5 0 -8.5 3.5zM160 19q-20 20 -20 51t20 50.5t51 19.5t51 -19.5t20 -50.5t-20 -51t-51 -20t-51 20z" />
    <glyph glyph-name="at" unicode="@" horiz-adv-x="789" 
d="M598 605.5q70 -36.5 109 -104t39 -156.5q0 -24 -3 -51q-13 -97 -61.5 -150.5t-124.5 -53.5q-66 0 -102 42q-4 3 -7 0q-34 -41 -95 -41q-51 0 -83.5 28.5t-34.5 76.5q-2 18 1 46t4 35q6 48 15 74q13 52 46.5 80t80.5 28q42 0 68 -25q5 -5 6 2l1 6q1 11 12 11h55
q13 0 11 -13l-24 -188q-1 -6 -1 -18q0 -32 15.5 -50.5t41.5 -18.5q36 0 60 34t32 94q3 24 3 47q0 107 -63 168t-169 61q-77 0 -143.5 -37t-110 -105.5t-52.5 -157.5q-2 -26 -2 -38q0 -74 29.5 -128.5t81 -83.5t115.5 -29q46 0 85 11.5t63 29.5q3 2 8 2q7 0 9 -5l27 -39
q3 -5 3 -8q0 -6 -5 -9q-37 -26 -90.5 -42t-112.5 -16q-85 0 -151.5 38.5t-104 110t-37.5 164.5q0 24 3 49q12 108 68 191.5t141 129t182 45.5q92 0 162 -36.5zM401 172q16 14 22 37q2 8 8 37l5 42l4 52q0 22 -13 36t-35 14t-39 -14t-22 -36q-8 -29 -12 -67q-7 -42 -5 -64
q1 -23 14 -37t35 -14t38 14z" />
    <glyph glyph-name="A" unicode="A" horiz-adv-x="552" 
d="M409 10l-26 107q-1 4 -5 4h-206q-4 0 -5 -4l-25 -107q-3 -10 -14 -10h-95q-13 0 -10 13l182 677q3 10 14 10h114q11 0 14 -10l182 -677l1 -4q0 -9 -11 -9h-96q-11 0 -14 10zM192 213.5q2 -1.5 4 -1.5h158q2 0 4 1.5t1 4.5l-82 328q-1 3 -3 3t-3 -3l-80 -328q-1 -3 1 -4.5
z" />
    <glyph glyph-name="B" unicode="B" horiz-adv-x="542" 
d="M441.5 49.5q-58.5 -49.5 -152.5 -49.5h-213q-5 0 -8.5 3.5t-3.5 8.5v676q0 5 3.5 8.5t8.5 3.5h201q101 0 157.5 -47.5t56.5 -141.5q0 -103 -81 -146q-5 -3 -1 -6q91 -49 91 -167q0 -93 -58.5 -142.5zM180 595v-186q0 -5 5 -5h93q47 0 73.5 25.5t26.5 71.5q0 47 -26.5 73
t-73.5 26h-93q-5 0 -5 -5zM357.5 129q26.5 28 26.5 78t-27 78.5t-73 28.5h-99q-5 0 -5 -5v-203q0 -5 5 -5h100q46 0 72.5 28z" />
    <glyph glyph-name="C" unicode="C" horiz-adv-x="533" 
d="M154 18.5q-50 26.5 -77.5 74.5t-27.5 111v294q0 63 27.5 110.5t77.5 73.5t115 26t115 -25.5t77.5 -72t27.5 -108.5v-6q0 -5 -3.5 -9t-8.5 -4l-93 -4q-12 0 -12 12v12q0 47 -28.5 76t-74.5 29q-47 0 -75.5 -29t-28.5 -76v-307q0 -47 28.5 -75.5t75.5 -28.5q46 0 74.5 28.5
t28.5 75.5v13q0 11 12 11l93 -4q5 0 8.5 -3.5t3.5 -8.5v-4q0 -62 -27.5 -109.5t-77.5 -73t-115 -25.5t-115 26.5z" />
    <glyph glyph-name="D" unicode="D" horiz-adv-x="545" 
d="M67.5 3.5q-3.5 3.5 -3.5 8.5v676q0 5 3.5 8.5t8.5 3.5h207q97 0 155.5 -54t58.5 -144v-304q0 -90 -58.5 -144t-155.5 -54h-207q-5 0 -8.5 3.5zM185 100l99 1q43 0 69 29.5t28 80.5v278q0 51 -26.5 81t-70.5 30h-99q-5 0 -5 -5v-490q0 -5 5 -5z" />
    <glyph glyph-name="E" unicode="E" horiz-adv-x="513" 
d="M471.5 603.5q-3.5 -3.5 -8.5 -3.5h-278q-5 0 -5 -5v-188q0 -5 5 -5h178q5 0 8.5 -3.5t3.5 -8.5v-76q0 -5 -3.5 -8.5t-8.5 -3.5h-178q-5 0 -5 -5v-192q0 -5 5 -5h278q5 0 8.5 -3.5t3.5 -8.5v-76q0 -5 -3.5 -8.5t-8.5 -3.5h-387q-5 0 -8.5 3.5t-3.5 8.5v676q0 5 3.5 8.5
t8.5 3.5h387q5 0 8.5 -3.5t3.5 -8.5v-76q0 -5 -3.5 -8.5z" />
    <glyph glyph-name="F" unicode="F" horiz-adv-x="489" 
d="M470.5 603.5q-3.5 -3.5 -8.5 -3.5h-277q-5 0 -5 -5v-188q0 -5 5 -5h178q5 0 8.5 -3.5t3.5 -8.5v-76q0 -5 -3.5 -8.5t-8.5 -3.5h-178q-5 0 -5 -5v-285q0 -5 -3.5 -8.5t-8.5 -3.5h-92q-5 0 -8.5 3.5t-3.5 8.5v676q0 5 3.5 8.5t8.5 3.5h386q5 0 8.5 -3.5t3.5 -8.5v-76
q0 -5 -3.5 -8.5z" />
    <glyph glyph-name="G" unicode="G" horiz-adv-x="537" 
d="M153.5 18q-49.5 26 -77 73.5t-27.5 109.5v298q0 62 27.5 109.5t77 73.5t114.5 26t115 -25.5t77.5 -71.5t27.5 -105v-23q0 -5 -3.5 -8.5t-8.5 -3.5h-92q-5 0 -8.5 3.5t-3.5 8.5v23q0 45 -28.5 73.5t-75.5 28.5q-46 0 -74.5 -29.5t-28.5 -77.5v-302q0 -48 29.5 -77.5
t76.5 -29.5q46 0 73.5 26.5t27.5 72.5v79q0 5 -5 5h-91q-5 0 -8.5 3.5t-3.5 8.5v73q0 5 3.5 8.5t8.5 3.5h200q5 0 8.5 -3.5t3.5 -8.5v-156q0 -99 -60 -155.5t-160 -56.5q-65 0 -114.5 26z" />
    <glyph glyph-name="H" unicode="H" horiz-adv-x="557" 
d="M383.5 696.5q3.5 3.5 8.5 3.5h92q5 0 8.5 -3.5t3.5 -8.5v-676q0 -5 -3.5 -8.5t-8.5 -3.5h-92q-5 0 -8.5 3.5t-3.5 8.5v284q0 5 -5 5h-190q-5 0 -5 -5v-284q0 -5 -3.5 -8.5t-8.5 -3.5h-92q-5 0 -8.5 3.5t-3.5 8.5v676q0 5 3.5 8.5t8.5 3.5h92q5 0 8.5 -3.5t3.5 -8.5v-281
q0 -5 5 -5h190q5 0 5 5v281q0 5 3.5 8.5z" />
    <glyph glyph-name="I" unicode="I" horiz-adv-x="243" 
d="M67.5 3.5q-3.5 3.5 -3.5 8.5v676q0 5 3.5 8.5t8.5 3.5h92q5 0 8.5 -3.5t3.5 -8.5v-676q0 -5 -3.5 -8.5t-8.5 -3.5h-92q-5 0 -8.5 3.5z" />
    <glyph glyph-name="J" unicode="J" horiz-adv-x="512" 
d="M78 47q-58 55 -58 146v70q0 5 3.5 8.5t8.5 3.5h92q5 0 8.5 -3.5t3.5 -8.5v-71q0 -45 26.5 -72.5t70.5 -27.5t72 27.5t28 72.5v496q0 5 3.5 8.5t8.5 3.5h91q5 0 8.5 -3.5t3.5 -8.5v-495q0 -60 -27 -105.5t-76 -70.5t-112 -25q-97 0 -155 55z" />
    <glyph glyph-name="K" unicode="K" horiz-adv-x="549" 
d="M67.5 3.5q-3.5 3.5 -3.5 8.5v676q0 5 3.5 8.5t8.5 3.5h92q5 0 8.5 -3.5t3.5 -8.5v-288q0 -3 2 -4t4 2l205 294q5 8 14 8h101q7 0 9.5 -4.5t-1.5 -10.5l-189 -281q-1 -3 0 -7l203 -383q2 -4 2 -6q0 -8 -10 -8h-102q-10 0 -15 9l-158 298q-1 3 -3 3t-4 -2l-56 -77
q-2 -4 -2 -6v-213q0 -5 -3.5 -8.5t-8.5 -3.5h-92q-5 0 -8.5 3.5z" />
    <glyph glyph-name="L" unicode="L" horiz-adv-x="493" 
d="M67.5 3.5q-3.5 3.5 -3.5 8.5v676q0 5 3.5 8.5t8.5 3.5h92q5 0 8.5 -3.5t3.5 -8.5v-583q0 -5 5 -5h275q5 0 8.5 -3.5t3.5 -8.5v-76q0 -5 -3.5 -8.5t-8.5 -3.5h-384q-5 0 -8.5 3.5z" />
    <glyph glyph-name="M" unicode="M" horiz-adv-x="627" 
d="M460 700h93q5 0 8.5 -3.5t3.5 -8.5v-676q0 -5 -3.5 -8.5t-8.5 -3.5h-92q-5 0 -8.5 3.5t-3.5 8.5v474q0 4 -2 4.5t-4 -2.5l-106 -175q-4 -8 -14 -8h-19q-10 0 -14 8l-106 174q-2 3 -4 2.5t-2 -4.5v-473q0 -5 -3.5 -8.5t-8.5 -3.5h-92q-5 0 -8.5 3.5t-3.5 8.5v676
q0 5 3.5 8.5t8.5 3.5h92q10 0 14 -8l131 -209q3 -6 6 0l129 209q4 8 14 8z" />
    <glyph glyph-name="N" unicode="N" horiz-adv-x="588" 
d="M412.5 696.5q3.5 3.5 8.5 3.5h92q5 0 8.5 -3.5t3.5 -8.5v-676q0 -5 -3.5 -8.5t-8.5 -3.5h-97q-9 0 -14 9l-218 448q-2 3 -4 2.5t-2 -4.5l1 -443q0 -5 -3.5 -8.5t-8.5 -3.5h-92q-5 0 -8.5 3.5t-3.5 8.5v676q0 5 3.5 8.5t8.5 3.5h96q10 0 14 -9l219 -450q2 -3 4 -2.5t2 4.5
l-1 445q0 5 3.5 8.5z" />
    <glyph glyph-name="O" unicode="O" horiz-adv-x="544" 
d="M154.5 18q-50.5 27 -78 76.5t-27.5 114.5v282q0 64 27.5 113.5t78 76.5t116.5 27q67 0 117.5 -27t78.5 -76.5t28 -113.5v-282q0 -65 -28 -114.5t-78.5 -76.5t-117.5 -27q-66 0 -116.5 27zM349.5 122.5q29.5 31.5 29.5 81.5v290q0 51 -29.5 82.5t-78.5 31.5
q-48 0 -77 -31.5t-29 -82.5v-290q0 -50 29 -81.5t77 -31.5q49 0 78.5 31.5z" />
    <glyph glyph-name="P" unicode="P" horiz-adv-x="526" 
d="M405.5 675q44.5 -26 69 -73.5t24.5 -108.5q0 -60 -24.5 -106t-69 -71.5t-101.5 -25.5h-123q-5 0 -5 -5v-273q0 -5 -3.5 -8.5t-8.5 -3.5h-92q-5 0 -8.5 3.5t-3.5 8.5v677q0 5 3.5 8.5t8.5 3.5h231q58 0 102.5 -26zM356.5 412.5q26.5 29.5 26.5 78.5q0 50 -26.5 80
t-70.5 30h-105q-5 0 -5 -5v-208q0 -5 5 -5h105q44 0 70.5 29.5z" />
    <glyph glyph-name="Q" unicode="Q" horiz-adv-x="521" 
d="M373 680.5q49 -27.5 76 -77t27 -114.5v-282q0 -79 -41 -134.5t-112 -73.5q-4 -1 -4 -5v-86q0 -5 -3.5 -8.5t-8.5 -3.5h-93q-5 0 -8.5 3.5t-3.5 8.5v86q0 4 -4 5q-71 17 -112 72.5t-41 135.5v282q0 65 27 114.5t75.5 77t112.5 27.5t113 -27.5zM360 498q0 49 -27.5 79.5
t-72.5 30.5q-44 0 -71.5 -30.5t-27.5 -79.5v-296q0 -49 27.5 -79.5t71.5 -30.5q45 0 72.5 30.5t27.5 79.5v296z" />
    <glyph glyph-name="R" unicode="R" horiz-adv-x="537" 
d="M384 10l-108 287q-2 4 -5 4h-86q-5 0 -5 -5v-284q0 -5 -3.5 -8.5t-8.5 -3.5h-92q-5 0 -8.5 3.5t-3.5 8.5v676q0 5 3.5 8.5t8.5 3.5h231q57 0 101 -25.5t68 -72t24 -106.5q0 -65 -30 -113t-82 -68q-5 -2 -3 -7l118 -294q1 -2 1 -6q0 -8 -10 -8h-96q-11 0 -14 10zM180 595
v-199q0 -5 5 -5h105q42 0 68 28.5t26 75.5q0 48 -26 76.5t-68 28.5h-105q-5 0 -5 -5z" />
    <glyph glyph-name="S" unicode="S" horiz-adv-x="513" 
d="M143 15.5q-50 23.5 -77.5 67t-27.5 100.5v26q0 5 3.5 8.5t8.5 3.5h90q5 0 8.5 -3.5t3.5 -8.5v-20q0 -43 30 -70t81 -27q47 0 72 24t25 63q0 27 -14 46.5t-39.5 36t-78.5 44.5q-61 32 -98 57t-62.5 64t-25.5 95q0 86 57.5 136t151.5 50q65 0 115 -24.5t77 -69.5t27 -103
v-21q0 -5 -3.5 -8.5t-8.5 -3.5h-90q-5 0 -8.5 3.5t-3.5 8.5v19q0 43 -29 71t-78 28q-43 0 -68 -22.5t-25 -62.5q0 -27 13 -46t39.5 -36t80.5 -44q72 -41 106 -64t57.5 -59.5t23.5 -89.5q0 -88 -59 -140t-158 -52q-66 0 -116 23.5z" />
    <glyph glyph-name="T" unicode="T" horiz-adv-x="516" 
d="M481.5 696.5q3.5 -3.5 3.5 -8.5v-77q0 -5 -3.5 -8.5t-8.5 -3.5h-155q-5 0 -5 -5v-582q0 -5 -3.5 -8.5t-8.5 -3.5h-92q-5 0 -8.5 3.5t-3.5 8.5v582q0 5 -5 5h-149q-5 0 -8.5 3.5t-3.5 8.5v77q0 5 3.5 8.5t8.5 3.5h430q5 0 8.5 -3.5z" />
    <glyph glyph-name="U" unicode="U" horiz-adv-x="557" 
d="M163 19q-50 27 -77.5 76.5t-27.5 114.5v478q0 5 3.5 8.5t8.5 3.5h92q5 0 8.5 -3.5t3.5 -8.5v-484q0 -50 28.5 -81t75.5 -31t76 31t29 81v484q0 5 3.5 8.5t8.5 3.5h92q5 0 8.5 -3.5t3.5 -8.5v-478q0 -65 -27.5 -114.5t-77.5 -76.5t-116 -27q-65 0 -115 27z" />
    <glyph glyph-name="V" unicode="V" horiz-adv-x="540" 
d="M206 10l-177 677v4q0 9 11 9h99q10 0 13 -10l118 -503q1 -4 3 -4t3 4l115 502q3 11 13 11h97q13 0 10 -13l-177 -677q-3 -10 -14 -10h-100q-11 0 -14 10z" />
    <glyph glyph-name="W" unicode="W" horiz-adv-x="771" 
d="M183 10l-158 677v4q0 9 11 9h96q11 0 13 -11l93 -437q1 -3 3 -3t3 4l86 436q1 11 13 11h87q11 0 13 -11l93 -437q1 -4 3 -4t3 4l88 437q2 11 13 11h92q14 0 11 -13l-149 -676q-2 -11 -13 -11h-90q-11 0 -13 11l-92 451q-1 3 -3 3t-3 -3l-87 -451q-1 -11 -13 -11h-87
q-10 0 -13 10z" />
    <glyph glyph-name="X" unicode="X" horiz-adv-x="538" 
d="M32.5 3.5q-2.5 3.5 0.5 10.5l168 333q1 3 0 6l-168 333q-2 4 -2 6q0 8 11 8h97q10 0 14 -9l114 -233q3 -4 6 0l113 233q5 9 14 9h96q7 0 9.5 -3.5t-0.5 -10.5l-168 -333q-1 -3 0 -6l168 -333q2 -4 2 -6q0 -8 -11 -8h-96q-9 0 -14 9l-113 232q-3 5 -6 0l-114 -232
q-4 -9 -14 -9h-97q-7 0 -9.5 3.5z" />
    <glyph glyph-name="Y" unicode="Y" horiz-adv-x="528" 
d="M209.5 4.5q-3.5 3.5 -3.5 8.5v270l-1 6l-173 397q-1 2 -1 6q0 8 10 8h98q11 0 14 -9l108 -270q3 -7 6 0l107 270q3 9 14 9h99q7 0 9 -4t0 -10l-174 -397l-1 -6v-270q0 -5 -3.5 -8.5t-8.5 -3.5h-91q-5 0 -8.5 3.5z" />
    <glyph glyph-name="Z" unicode="Z" horiz-adv-x="480" 
d="M34.5 3.5q-3.5 3.5 -3.5 8.5v83q0 8 4 15l281 484q3 6 -4 6h-269q-5 0 -8.5 3.5t-3.5 8.5v76q0 5 3.5 8.5t8.5 3.5h389q5 0 8.5 -3.5t3.5 -8.5v-83q0 -8 -4 -15l-281 -484q-3 -6 4 -6h269q5 0 8.5 -3.5t3.5 -8.5v-76q0 -5 -3.5 -8.5t-8.5 -3.5h-389q-5 0 -8.5 3.5z" />
    <glyph glyph-name="bracketleft" unicode="[" horiz-adv-x="366" 
d="M34.5 -134.5q-3.5 3.5 -3.5 8.5v905q0 5 3.5 8.5t8.5 3.5h202q5 0 8.5 -3.5t3.5 -8.5v-76q0 -5 -3.5 -8.5t-8.5 -3.5h-93q-5 0 -5 -5v-718q0 -5 5 -5h94q5 0 8.5 -3.5t3.5 -8.5v-77q0 -5 -3.5 -8.5t-8.5 -3.5h-203q-5 0 -8.5 3.5z" />
    <glyph glyph-name="backslash" unicode="\" horiz-adv-x="417" 
d="M393 9q0 -9 -10 -9h-92q-10 0 -13 10l-224 676q-1 2 -1 5q0 9 10 9h92q10 0 13 -10l224 -676q1 -2 1 -5z" />
    <glyph glyph-name="bracketright" unicode="]" horiz-adv-x="366" 
d="M332.5 -134.5q-3.5 -3.5 -8.5 -3.5h-203q-5 0 -8.5 3.5t-3.5 8.5v77q0 5 3.5 8.5t8.5 3.5h94q5 0 5 5v718q0 5 -5 5h-94q-5 0 -8.5 3.5t-3.5 8.5v76q0 5 3.5 8.5t8.5 3.5h203q5 0 8.5 -3.5t3.5 -8.5v-905q0 -5 -3.5 -8.5z" />
    <glyph glyph-name="asciicircum" unicode="^" horiz-adv-x="439" 
d="M36 304.5q-3 3.5 -1 10.5l131 375q3 10 13 10h79q10 0 13 -10l133 -375q1 -2 1 -5q0 -9 -11 -9h-74q-10 0 -13 10l-85 260q-1 4 -3 4t-3 -4l-84 -260q-3 -10 -13 -10h-74q-6 0 -9 3.5z" />
    <glyph glyph-name="underscore" unicode="_" horiz-adv-x="457" 
d="M23.5 3.5q-3.5 3.5 -3.5 8.5v65q0 5 3.5 8.5t8.5 3.5h394q5 0 8.5 -3.5t3.5 -8.5v-65q0 -5 -3.5 -8.5t-8.5 -3.5h-394q-5 0 -8.5 3.5z" />
    <glyph glyph-name="grave" unicode="`" horiz-adv-x="213" 
d="M187 583q0 -8 -10 -8h-62q-9 0 -14 8l-72 102q-2 3 -2 7q0 8 10 8h76q10 0 15 -8l57 -103q2 -4 2 -6z" />
    <glyph glyph-name="a" unicode="a" horiz-adv-x="478" 
d="M339 497.5q44 -21.5 68.5 -59.5t24.5 -87v-339q0 -5 -3.5 -8.5t-8.5 -3.5h-92q-5 0 -8.5 3.5t-3.5 8.5v25q0 3 -2 4t-4 -1q-42 -48 -121 -48q-66 0 -112 35.5t-46 115.5q0 84 53.5 125t147.5 41h79q5 0 5 5v25q0 37 -20.5 58.5t-56.5 21.5q-29 0 -47.5 -13.5t-23.5 -36.5
q-3 -11 -14 -11l-97 6q-5 0 -8.5 3.5t-2.5 7.5q6 64 59.5 104t132.5 40q57 0 101 -21.5zM287 108.5q29 22.5 29 59.5v52q0 5 -5 5h-67q-44 0 -69.5 -19t-25.5 -55q0 -32 19.5 -48.5t50.5 -16.5q39 0 68 22.5z" />
    <glyph glyph-name="b" unicode="b" horiz-adv-x="498" 
d="M453 257q0 -61 -11 -113q-18 -76 -56 -114t-100 -38q-71 0 -109 48q-2 3 -4 2t-2 -4v-26q0 -5 -3.5 -8.5t-8.5 -3.5h-92q-5 0 -8.5 3.5t-3.5 8.5v676q0 5 3.5 8.5t8.5 3.5h92q5 0 8.5 -3.5t3.5 -8.5v-213q0 -3 2 -3.5t4 2.5q35 45 105 45q131 0 162 -152q9 -51 9 -110z
M336 256q0 65 -12 104q-21 59 -73 59t-68 -60q-11 -35 -11 -103q0 -66 10 -101q17 -63 70 -63q56 0 74 64q10 35 10 100z" />
    <glyph glyph-name="c" unicode="c" horiz-adv-x="477" 
d="M113.5 33.5q-51.5 41.5 -62.5 113.5q-8 41 -8 110q0 63 8 109q11 70 63 111.5t132 41.5q77 0 130 -39.5t64 -103.5q1 -4 2 -10t1 -15v-2q0 -9 -11 -11l-91 -9h-2q-9 0 -11 11q0 7 -2 15q-5 27 -26.5 45.5t-54.5 18.5t-54.5 -20t-26.5 -53q-5 -38 -5 -90q0 -57 6 -92
q5 -33 26 -52.5t54 -19.5q34 0 55.5 19.5t25.5 47.5l1 10q1 5 5 8.5t9 2.5l90 -8q12 -2 12 -13l-2 -17q-9 -68 -62 -109t-133 -41q-81 0 -132.5 41.5z" />
    <glyph glyph-name="d" unicode="d" horiz-adv-x="498" 
d="M330.5 696.5q3.5 3.5 8.5 3.5h92q5 0 8.5 -3.5t3.5 -8.5v-676q0 -5 -3.5 -8.5t-8.5 -3.5h-92q-5 0 -8.5 3.5t-3.5 8.5v26q0 3 -2 4t-4 -2q-38 -48 -109 -48q-122 0 -156 152q-11 46 -11 113q0 66 9 110q31 152 161 152q72 0 106 -46q2 -3 4 -2t2 4v213q0 5 3.5 8.5z
M326 256q0 68 -11 103q-16 60 -68 60q-53 0 -73 -59q-13 -38 -13 -104q0 -61 11 -100q18 -64 74 -64q53 0 70 63q10 35 10 101z" />
    <glyph glyph-name="e" unicode="e" horiz-adv-x="484" 
d="M446 265l-1 -43q0 -12 -12 -12h-268q-5 0 -5 -5q2 -28 4 -41q5 -33 28 -53t58 -20q30 1 50.5 15t31.5 39q5 11 15 8l82 -17q12 -4 8 -15q-20 -62 -68.5 -95.5t-118.5 -33.5q-83 0 -133 40t-65 111q-5 27 -6.5 57t-1.5 80q0 52 5 79q10 73 62 116.5t132 43.5
q87 0 140.5 -49t59.5 -129q3 -33 3 -76zM189.5 399.5q-21.5 -19.5 -26.5 -52.5q-3 -22 -3 -50q0 -5 5 -5h159q5 0 5 5q-2 34 -4 49q-4 33 -26 53t-55 20t-54.5 -19.5z" />
    <glyph glyph-name="f" unicode="f" horiz-adv-x="333" 
d="M299.5 507.5q3.5 -3.5 3.5 -8.5v-68q0 -5 -3.5 -8.5t-8.5 -3.5h-81q-5 0 -5 -5v-402q0 -5 -3.5 -8.5t-8.5 -3.5h-91q-5 0 -8.5 3.5t-3.5 8.5v402q0 5 -5 5h-48q-5 0 -8.5 3.5t-3.5 8.5v68q0 5 3.5 8.5t8.5 3.5h48q5 0 5 5v22q0 63 17.5 98.5t56 51t103.5 14.5h21
q5 0 8.5 -3.5t3.5 -8.5v-69q0 -5 -3.5 -8.5t-8.5 -3.5h-16q-37 -1 -52 -18.5t-15 -59.5v-15q0 -5 5 -5h81q5 0 8.5 -3.5z" />
    <glyph glyph-name="g" unicode="g" horiz-adv-x="490" 
d="M328.5 507.5q3.5 3.5 8.5 3.5h92q5 0 8.5 -3.5t3.5 -8.5v-472q0 -116 -63 -172.5t-182 -56.5q-14 0 -44 2q-12 1 -12 13l3 80q0 12 13 11q10 -1 30 -1q75 0 107 31t32 100v9q0 3 -2 4t-4 -2q-38 -44 -105 -44q-65 0 -110 38.5t-56 109.5q-6 30 -6 108q0 83 8 114
q10 68 52 108t108 40q69 0 109 -45q2 -2 4 -1.5t2 3.5v23q0 5 3.5 8.5zM325 257q0 57 -4 90q-4 32 -25 52t-53 20t-53 -20t-26 -52q-6 -37 -6 -90q0 -49 5 -87q5 -32 27 -52t54 -20q33 0 53.5 20t24.5 52q3 38 3 87z" />
    <glyph glyph-name="h" unicode="h" horiz-adv-x="491" 
d="M400 473q41 -46 41 -127v-334q0 -5 -3.5 -8.5t-8.5 -3.5h-92q-5 0 -8.5 3.5t-3.5 8.5v318q0 41 -20.5 65t-55.5 24q-36 0 -57.5 -24.5t-21.5 -65.5v-317q0 -5 -3.5 -8.5t-8.5 -3.5h-92q-5 0 -8.5 3.5t-3.5 8.5v676q0 5 3.5 8.5t8.5 3.5h92q5 0 8.5 -3.5t3.5 -8.5v-215
q0 -3 2 -4t4 2q40 48 110 48q73 0 114 -46z" />
    <glyph glyph-name="i" unicode="i" horiz-adv-x="235" 
d="M66.5 601q-19.5 20 -19.5 51t19.5 51t50.5 20q32 0 51.5 -19.5t19.5 -51.5q0 -31 -20 -51t-51 -20t-50.5 20zM62.5 3.5q-3.5 3.5 -3.5 8.5v488q0 5 3.5 8.5t8.5 3.5h92q5 0 8.5 -3.5t3.5 -8.5v-488q0 -5 -3.5 -8.5t-8.5 -3.5h-92q-5 0 -8.5 3.5z" />
    <glyph glyph-name="j" unicode="j" horiz-adv-x="231" 
d="M63 601q-20 20 -20 51t20 51t51 20t51 -20t20 -51t-20.5 -51t-50.5 -20q-31 0 -51 20zM-49 -193v75q0 12 16 12q48 0 69 22t21 67l-1 516q0 5 3.5 8.5t8.5 3.5h92q5 0 8.5 -3.5t3.5 -8.5v-515q0 -69 -17 -109.5t-62 -60.5t-130 -19q-12 0 -12 12z" />
    <glyph glyph-name="k" unicode="k" horiz-adv-x="478" 
d="M57.5 3.5q-3.5 3.5 -3.5 8.5v676q0 5 3.5 8.5t8.5 3.5h92q5 0 8.5 -3.5t3.5 -8.5v-358q0 -3 2 -3.5t4 1.5l135 176q6 7 15 7h101q10 0 10 -7q0 -3 -3 -8l-116 -155q-2 -3 0 -7l134 -320q1 -2 1 -6q0 -8 -10 -8h-96q-11 0 -14 10l-91 239q-1 3 -2.5 3t-3.5 -2l-64 -81
q-2 -4 -2 -6v-151q0 -5 -3.5 -8.5t-8.5 -3.5h-92q-5 0 -8.5 3.5z" />
    <glyph glyph-name="l" unicode="l" horiz-adv-x="219" 
d="M55.5 3.5q-3.5 3.5 -3.5 8.5v676q0 5 3.5 8.5t8.5 3.5h92q5 0 8.5 -3.5t3.5 -8.5v-676q0 -5 -3.5 -8.5t-8.5 -3.5h-92q-5 0 -8.5 3.5z" />
    <glyph glyph-name="m" unicode="m" horiz-adv-x="747" 
d="M659.5 473q38.5 -46 38.5 -128v-333q0 -5 -3.5 -8.5t-8.5 -3.5h-91q-5 0 -8.5 3.5t-3.5 8.5v317q0 42 -20 66t-53 24q-35 0 -55.5 -24t-20.5 -65v-318q0 -5 -3.5 -8.5t-8.5 -3.5h-92q-5 0 -8.5 3.5t-3.5 8.5v317q0 42 -20 66t-53 24q-35 0 -55.5 -24t-20.5 -65v-318
q0 -5 -3.5 -8.5t-8.5 -3.5h-91q-5 0 -8.5 3.5t-3.5 8.5v487q0 5 3.5 8.5t8.5 3.5h91q5 0 8.5 -3.5t3.5 -8.5v-25q0 -3 2 -3.5t4 1.5q41 47 111 47q44 0 76 -18.5t50 -52.5q2 -2 4 -2t3 4q23 36 57.5 52.5t73.5 16.5q71 0 109.5 -46z" />
    <glyph glyph-name="n" unicode="n" horiz-adv-x="491" 
d="M400 473q41 -46 41 -127v-334q0 -5 -3.5 -8.5t-8.5 -3.5h-92q-5 0 -8.5 3.5t-3.5 8.5v318q0 41 -20.5 65t-55.5 24q-36 0 -57.5 -24.5t-21.5 -65.5v-317q0 -5 -3.5 -8.5t-8.5 -3.5h-92q-5 0 -8.5 3.5t-3.5 8.5v487q0 5 3.5 8.5t8.5 3.5h92q5 0 8.5 -3.5t3.5 -8.5v-26
q0 -3 2 -4t4 2q40 48 110 48q73 0 114 -46z" />
    <glyph glyph-name="o" unicode="o" horiz-adv-x="490" 
d="M112 35.5q-52 43.5 -63 117.5q-8 48 -8 103q0 57 8 105q11 73 64 115.5t133 42.5q79 0 131 -42.5t63 -114.5q8 -50 8 -105q0 -60 -7 -103q-11 -75 -63 -118.5t-133 -43.5t-133 43.5zM300.5 114q22.5 22 27.5 58q4 52 4 84q0 33 -4 85q-5 36 -27.5 57t-55.5 21
q-34 0 -56 -21t-27 -57q-4 -35 -4 -85q0 -51 4 -84q5 -36 27 -58t56 -22q33 0 55.5 22z" />
    <glyph glyph-name="p" unicode="p" horiz-adv-x="502" 
d="M457 254q0 -58 -9 -109q-31 -153 -162 -153q-70 0 -105 45q-2 3 -4 2.5t-2 -3.5v-213q0 -5 -3.5 -8.5t-8.5 -3.5h-92q-5 0 -8.5 3.5t-3.5 8.5v676q0 5 3.5 8.5t8.5 3.5h92q5 0 8.5 -3.5t3.5 -8.5v-26q0 -3 2 -4t4 2q38 48 109 48q62 0 100.5 -38t55.5 -114
q11 -51 11 -113zM340 255q0 65 -10 100q-18 65 -74 65q-54 0 -70 -64q-10 -35 -10 -101q0 -67 11 -102q16 -61 68 -61t73 59q12 39 12 104z" />
    <glyph glyph-name="q" unicode="q" horiz-adv-x="502" 
d="M330.5 507.5q3.5 3.5 8.5 3.5h92q5 0 8.5 -3.5t3.5 -8.5v-676q0 -5 -3.5 -8.5t-8.5 -3.5h-92q-5 0 -8.5 3.5t-3.5 8.5v213q0 3 -2 4t-4 -2q-34 -46 -106 -46q-130 0 -161 153q-9 44 -9 109q0 68 11 113q33 152 156 152q71 0 109 -48q2 -3 4 -2t2 4v26q0 5 3.5 8.5z
M326 255q0 66 -10 101q-16 64 -70 64q-56 0 -74 -65q-11 -38 -11 -100q0 -66 13 -104q20 -59 73 -59q52 0 68 61q11 35 11 102z" />
    <glyph glyph-name="r" unicode="r" horiz-adv-x="342" 
d="M324 505q8 -4 6 -15l-17 -91q-1 -12 -14 -7t-30 5q-7 0 -21 -2q-34 -3 -56.5 -31t-22.5 -70v-282q0 -5 -3.5 -8.5t-8.5 -3.5h-92q-5 0 -8.5 3.5t-3.5 8.5v487q0 5 3.5 8.5t8.5 3.5h92q5 0 8.5 -3.5t3.5 -8.5v-43q0 -4 1.5 -4.5t3.5 2.5q36 63 101 63q28 0 49 -12z" />
    <glyph glyph-name="s" unicode="s" horiz-adv-x="446" 
d="M88 33q-52 39 -52 102v8q0 5 3.5 8.5t8.5 3.5h87q5 0 8.5 -3.5t3.5 -8.5v-3q0 -24 23 -41.5t57 -17.5q33 0 53.5 16t20.5 40t-20.5 37t-63.5 28l-26 9q-68 22 -109 55.5t-41 99.5q0 70 50 110.5t132 40.5q85 0 135.5 -41.5t50.5 -110.5v-1q0 -5 -3.5 -8.5t-8.5 -3.5h-84
q-5 0 -8.5 3.5t-3.5 8.5v4q0 25 -21 41.5t-55 16.5q-33 0 -53 -15.5t-20 -39.5q0 -19 14 -31.5t31.5 -19.5t61.5 -22q47 -16 79.5 -33t55.5 -47t23 -76q0 -69 -51.5 -108.5t-138.5 -39.5t-139 39z" />
    <glyph glyph-name="t" unicode="t" horiz-adv-x="328" 
d="M292.5 426.5q-3.5 -3.5 -8.5 -3.5h-81q-5 0 -5 -5v-251q0 -37 14.5 -52.5t45.5 -14.5h18q5 0 8.5 -3.5t3.5 -8.5v-76q0 -11 -12 -13h-42q-74 0 -111 26t-37 98v295q0 5 -5 5h-46q-5 0 -8.5 3.5t-3.5 8.5v64q0 5 3.5 8.5t8.5 3.5h46q5 0 5 5v114q0 5 3.5 8.5t8.5 3.5h88
q5 0 8.5 -3.5t3.5 -8.5v-114q0 -5 5 -5h81q5 0 8.5 -3.5t3.5 -8.5v-64q0 -5 -3.5 -8.5z" />
    <glyph glyph-name="u" unicode="u" horiz-adv-x="489" 
d="M323.5 507.5q3.5 3.5 8.5 3.5h92q5 0 8.5 -3.5t3.5 -8.5v-487q0 -5 -3.5 -8.5t-8.5 -3.5h-92q-5 0 -8.5 3.5t-3.5 8.5v27q0 3 -2 3.5t-4 -2.5q-34 -47 -107 -47q-68 0 -113 40.5t-45 118.5v347q0 5 3.5 8.5t8.5 3.5h92q5 0 8.5 -3.5t3.5 -8.5v-318q0 -42 19.5 -65.5
t56.5 -23.5t58 24.5t21 66.5v316q0 5 3.5 8.5z" />
    <glyph glyph-name="v" unicode="v" horiz-adv-x="460" 
d="M164 10l-140 489l-1 4q0 9 11 9h101q10 0 13 -10l79 -331q1 -4 3 -4t3 4l78 330q3 11 13 11l102 -2q13 0 10 -13l-140 -487q-3 -10 -14 -10h-104q-11 0 -14 10z" />
    <glyph glyph-name="w" unicode="w" horiz-adv-x="677" 
d="M147 10l-124 489v4q0 9 11 9h90q11 0 13 -11l69 -314q1 -4 3 -4t3 4l70 314q2 11 13 11h82q10 0 13 -10l73 -315q1 -4 3 -4t3 4l71 314q3 11 13 11l90 -2q14 0 11 -13l-125 -487q-3 -10 -14 -10h-92q-10 0 -13 10l-72 300q-1 4 -3 4t-3 -4l-67 -299q-2 -11 -13 -11h-91
q-11 0 -14 10z" />
    <glyph glyph-name="x" unicode="x" horiz-adv-x="466" 
d="M22 4q-3 4 1 10l140 239q2 3 0 6l-140 238l-2 6q0 8 11 8h98q11 0 15 -8l84 -145q3 -6 6 0l82 145q5 8 15 8h103q7 0 10 -4t-1 -10l-140 -238q-1 -3 0 -6l140 -239l2 -6q0 -8 -11 -8h-99q-10 0 -15 8l-83 147q-3 5 -6 0l-83 -147q-5 -8 -15 -8h-102q-7 0 -10 4z" />
    <glyph glyph-name="y" unicode="y" horiz-adv-x="446" 
d="M42 -195.5q-2 3.5 -2 8.5v72q0 12 11 12q37 1 58 8.5t34 29t21 62.5q1 2 0 6l-145 495l-1 4q0 10 11 10h99q10 0 13 -10l80 -342q1 -4 3 -4t3 4l80 341q3 11 13 11l97 -1q6 0 8.5 -3.5t1.5 -9.5l-155 -526q-22 -71 -44.5 -106t-62 -50t-112.5 -15h-6q-3 0 -5 3.5z" />
    <glyph glyph-name="z" unicode="z" horiz-adv-x="412" 
d="M29.5 3.5q-3.5 3.5 -3.5 8.5v85q0 7 5 15l209 288q2 2 0.5 4t-4.5 2h-193q-5 0 -8.5 3.5t-3.5 8.5v81q0 5 3.5 8.5t8.5 3.5h326q5 0 8.5 -3.5t3.5 -8.5v-85q0 -8 -5 -15l-214 -288q-2 -2 -1 -4t4 -2h208q5 0 8.5 -3.5t3.5 -8.5v-81q0 -5 -3.5 -8.5t-8.5 -3.5h-335
q-5 0 -8.5 3.5z" />
    <glyph glyph-name="braceleft" unicode="{" horiz-adv-x="334" 
d="M128 -107.5q-30 30.5 -30 89.5v211q0 42 -13.5 63.5t-42.5 26.5q-11 2 -11 12v69q0 12 12 13q55 7 55 88v206q0 59 30 89.5t88 30.5h76q5 0 8.5 -3.5t3.5 -8.5v-76q0 -5 -3.5 -8.5t-8.5 -3.5h-26q-24 0 -38 -17.5t-14 -49.5v-173q0 -91 -54 -118q-5 -3 0 -6
q54 -28 54 -120v-177q0 -32 14 -49.5t38 -17.5h26q5 0 8.5 -3.5t3.5 -8.5v-77q0 -5 -3.5 -8.5t-8.5 -3.5h-76q-58 0 -88 30.5z" />
    <glyph glyph-name="bar" unicode="|" horiz-adv-x="180" 
d="M35.5 -76.5q-3.5 3.5 -3.5 8.5v816q0 5 3.5 8.5t8.5 3.5h92q5 0 8.5 -3.5t3.5 -8.5v-816q0 -5 -3.5 -8.5t-8.5 -3.5h-92q-5 0 -8.5 3.5z" />
    <glyph glyph-name="braceright" unicode="}" horiz-adv-x="334" 
d="M43 -138q-5 0 -8.5 3.5t-3.5 8.5v77q0 5 3.5 8.5t8.5 3.5h25q24 0 38 17.5t14 49.5v177q0 92 54 120q5 3 0 6q-54 27 -54 118v173q0 32 -14 49.5t-38 17.5h-25q-5 0 -8.5 3.5t-3.5 8.5v76q0 5 3.5 8.5t8.5 3.5h75q58 0 88 -30.5t30 -89.5v-206q0 -41 13.5 -62.5
t42.5 -25.5q12 -1 12 -13v-69q0 -10 -11 -12q-29 -5 -43 -26.5t-14 -63.5v-211q0 -59 -30 -89.5t-88 -30.5h-75z" />
    <glyph glyph-name="asciitilde" unicode="~" horiz-adv-x="501" 
d="M293.5 219.5q-19.5 7.5 -44.5 22.5q-25 14 -41.5 21t-34.5 7q-43 0 -68 -37q-7 -10 -16 -4l-50 32q-9 6 -6 16q16 42 52.5 68t79.5 26q24 0 43.5 -7t39.5 -19q6 -3 22.5 -12.5t31 -14.5t29.5 -5q19 0 32.5 9.5t25.5 26.5q7 10 17 4l55 -35q11 -7 5 -16q-20 -40 -53.5 -65
t-73.5 -25q-26 0 -45.5 7.5z" />
    <glyph glyph-name="uni00A0" unicode="&#xa0;" horiz-adv-x="200" 
 />
    <glyph glyph-name="exclamdown" unicode="&#xa1;" horiz-adv-x="302" 
d="M200 688q20 -20 20 -51t-20 -50.5t-51 -19.5t-51 19.5t-20 50.5t20 51t51 20t51 -20zM108.5 470.5q3.5 3.5 8.5 3.5h69q5 0 8.5 -3.5t3.5 -8.5l12 -440q0 -5 -3.5 -8.5t-8.5 -3.5h-92q-5 0 -8.5 3.5t-3.5 8.5l11 440q0 5 3.5 8.5z" />
    <glyph glyph-name="cent" unicode="&#xa2;" horiz-adv-x="477" 
d="M327 259q1 5 5 8.5t9 2.5l90 -8q12 -2 12 -13l-2 -17q-7 -57 -46.5 -96t-99.5 -50q-5 -2 -5 -6l2 -70q0 -5 -3.5 -8.5t-8.5 -3.5h-77q-5 0 -8.5 3.5t-3.5 8.5l2 72q0 5 -4 6q-57 13 -93 52t-45 97q-8 41 -8 110q0 63 8 109q9 56 45 94t92 52q4 1 4 6l-2 72q0 5 3.5 8.5
t8.5 3.5h77q5 0 8.5 -3.5t3.5 -8.5l-2 -70q0 -4 5 -6q58 -10 97 -47.5t49 -90.5q1 -4 2 -10t1 -15v-2q0 -9 -11 -11l-91 -9h-2q-9 0 -11 11q0 7 -2 15q-5 27 -26.5 45.5t-54.5 18.5t-54.5 -20t-26.5 -53q-5 -38 -5 -90q0 -57 6 -92q5 -33 26 -52.5t54 -19.5q34 0 55.5 19.5
t25.5 47.5z" />
    <glyph glyph-name="sterling" unicode="&#xa3;" horiz-adv-x="561" 
d="M222.5 102q0.5 -2 3.5 -2h295q5 0 8.5 -3.5t3.5 -8.5v-76q0 -5 -3.5 -8.5t-8.5 -3.5h-414q-5 0 -8.5 3.5t-3.5 8.5v79q0 8 7 14q39 32 39 104v81q0 5 -5 5h-60q-5 0 -8.5 3.5t-3.5 8.5v70q0 5 3.5 8.5t8.5 3.5h60q5 0 5 5v104q0 99 53.5 154.5t145.5 55.5
q72 0 119.5 -39.5t67.5 -111.5l1 -4q0 -8 -11 -10l-87 -13h-3q-8 0 -11 9q-11 36 -29.5 52.5t-46.5 16.5q-40 0 -61.5 -26.5t-21.5 -79.5v-108q0 -5 5 -5h159q5 0 8.5 -3.5t3.5 -8.5v-70q0 -5 -3.5 -8.5t-8.5 -3.5h-159q-5 0 -5 -5v-80q0 -66 -33 -104q-2 -2 -1.5 -4z" />
    <glyph glyph-name="currency" unicode="&#xa4;" horiz-adv-x="551" 
d="M456 196q-1 -4 1 -7l64 -64q4 -4 4 -9q0 -4 -4 -8l-57 -49q-4 -4 -9 -4q-4 0 -8 4l-61 60q-2 3 -7 1q-47 -29 -107 -29q-57 0 -103 27q-4 1 -7 -1l-58 -58q-4 -4 -8 -4q-3 0 -9 4l-57 49q-4 3 -4 8t4 9l60 60q3 3 1 7q-32 51 -32 111q0 57 30 106q2 5 -1 7l-64 64
q-4 4 -4 9q0 4 4 8l57 49q4 4 9 4q4 0 8 -4l60 -60q3 -2 7 -1q47 29 107 29q62 0 111 -32q5 -1 7 1l64 63q4 4 8 4q5 0 9 -4l56 -49q4 -4 4 -8q0 -5 -4 -9l-68 -68q-2 -2 -1 -7q27 -48 27 -102q0 -60 -29 -107zM192.5 223.5q33.5 -33.5 79.5 -33.5q47 0 80 33t33 80
q0 46 -33.5 79.5t-79.5 33.5t-79.5 -33t-33.5 -80q0 -46 33.5 -79.5z" />
    <glyph glyph-name="yen" unicode="&#xa5;" horiz-adv-x="607" 
d="M536.5 696.5q2.5 -3.5 -0.5 -10.5l-150 -343q-1 -2 0 -4t3 -2h101q5 0 8.5 -3.5t3.5 -8.5v-42q0 -5 -3.5 -8.5t-8.5 -3.5h-124q-5 0 -5 -5v-54q0 -5 5 -5h124q5 0 8.5 -3.5t3.5 -8.5v-42q0 -5 -3.5 -8.5t-8.5 -3.5h-124q-5 0 -5 -5v-123q0 -5 -3.5 -8.5t-8.5 -3.5h-91
q-5 0 -8.5 3.5t-3.5 8.5v123q0 5 -5 5h-125q-5 0 -8.5 3.5t-3.5 8.5v42q0 5 3.5 8.5t8.5 3.5h125q5 0 5 5v54q0 5 -5 5h-125q-5 0 -8.5 3.5t-3.5 8.5v42q0 5 3.5 8.5t8.5 3.5h102q2 0 3 2t0 4l-149 343q-1 2 -1 6q0 8 10 8h98q11 0 14 -9l108 -270q3 -7 6 0l107 270
q3 9 14 9h99q7 0 9.5 -3.5z" />
    <glyph glyph-name="brokenbar" unicode="&#xa6;" horiz-adv-x="180" 
d="M35.5 396.5q-3.5 3.5 -3.5 8.5v343q0 5 3.5 8.5t8.5 3.5h92q5 0 8.5 -3.5t3.5 -8.5v-343q0 -5 -3.5 -8.5t-8.5 -3.5h-92q-5 0 -8.5 3.5zM35.5 -76.5q-3.5 3.5 -3.5 8.5v341q0 5 3.5 8.5t8.5 3.5h92q5 0 8.5 -3.5t3.5 -8.5v-341q0 -5 -3.5 -8.5t-8.5 -3.5h-92
q-5 0 -8.5 3.5z" />
    <glyph glyph-name="section" unicode="&#xa7;" horiz-adv-x="449" 
d="M93.5 -161q-48.5 45 -49.5 119l-1 24q0 5 3.5 8.5t8.5 3.5h92q5 0 8.5 -3.5t3.5 -8.5v-11q1 -35 19 -56t48 -21q29 0 47.5 21t18.5 51q0 26 -15.5 44.5t-38.5 30.5t-63 29q-46 21 -73.5 41t-43.5 51q-19 35 -19 82q0 56 27 95q25 37 61 51q3 1 3 3t-2 4q-40 23 -63.5 60
t-23.5 85q0 46 23 84t65 60t96 22q80 0 130 -47t51 -122v-15q0 -5 -3.5 -8.5t-8.5 -3.5h-93q-5 0 -8.5 3.5t-3.5 8.5v7q0 34 -18.5 55.5t-47.5 21.5t-47.5 -21.5t-18.5 -53.5q0 -36 25.5 -57.5t78.5 -43.5q44 -19 71 -34t47 -39q33 -40 33 -100q0 -53 -23 -93
q-27 -46 -66 -59q-3 -1 -3 -2.5t3 -3.5q86 -50 86 -142q0 -49 -24 -86.5t-66.5 -58t-95.5 -20.5q-81 0 -129.5 45zM285 201q11 20 11 49q0 32 -15 54q-22 27 -56 27q-19 0 -34.5 -9.5t-24.5 -25.5q-11 -18 -11 -47t12 -49q20 -31 58 -31q40 0 60 32z" />
    <glyph glyph-name="dieresis" unicode="&#xa8;" horiz-adv-x="361" 
d="M220 604q-20 20 -20 51t20 51t51 20t50.5 -20t19.5 -51t-20 -51t-50 -20q-31 0 -51 20zM39 604q-20 20 -20 51t20 51t51 20t50.5 -20t19.5 -51t-20 -51t-50 -20q-31 0 -51 20z" />
    <glyph glyph-name="copyright" unicode="&#xa9;" horiz-adv-x="821" 
d="M225.5 39q-82.5 47 -129.5 129t-47 184q0 100 47 181.5t129.5 128t184.5 46.5q103 0 185.5 -46.5t129.5 -128t47 -181.5q0 -102 -47 -184t-129.5 -129t-185.5 -47q-102 0 -184.5 47zM557 101.5q66 37.5 103.5 103.5t37.5 147q0 79 -37.5 144t-103.5 102.5t-147 37.5
t-146.5 -37.5t-103 -102t-37.5 -144.5q0 -81 37.5 -147t103 -103.5t146.5 -37.5t147 37.5zM334 204q-29 27 -29 73v146q0 46 29 72.5t78 26.5q48 0 77.5 -26t29.5 -71q0 -11 -12 -11l-40 -2q-12 0 -12 12v3q0 18 -12 29.5t-31 11.5q-20 0 -32 -11.5t-12 -29.5v-155
q0 -18 12.5 -29.5t31.5 -11.5t31 11.5t12 29.5v3q0 5 3.5 8.5t8.5 3.5l40 -2q12 0 12 -11q0 -44 -29.5 -70.5t-77.5 -26.5q-49 0 -78 27z" />
    <glyph glyph-name="ordfeminine" unicode="&#xaa;" horiz-adv-x="305" 
d="M198 565q5 0 5 5v18q0 27 -15 43.5t-42 16.5q-19 0 -33 -9t-18 -24q-5 -11 -13 -10l-46 3q-12 2 -11 13q5 38 38.5 62.5t82.5 24.5q56 0 91 -31t35 -80v-219q0 -5 -3.5 -8.5t-8.5 -3.5h-45q-5 0 -8.5 3.5t-3.5 8.5v7q0 3 -2 3.5t-4 -1.5q-27 -27 -75 -27q-46 0 -76 24
t-30 74q0 54 35 80.5t95 26.5h52zM183 432q20 16 20 42v32q0 5 -5 5h-46q-31 0 -48.5 -12.5t-17.5 -37.5q0 -45 49 -45q28 0 48 16zM19.5 311.5q3.5 3.5 8.5 3.5h242q5 0 8.5 -3.5t3.5 -8.5v-43q0 -5 -3.5 -8.5t-8.5 -3.5h-242q-5 0 -8.5 3.5t-3.5 8.5v43q0 5 3.5 8.5z" />
    <glyph glyph-name="guillemotleft" unicode="&#xab;" horiz-adv-x="492" 
d="M262 114q0 -7 -10 -7h-81q-10 0 -14 8l-99 158q-2 6 -2 8q0 4 2 8l99 158q4 8 14 8h81q7 0 9.5 -3.5t-1.5 -10.5l-100 -157q-1 -3 0 -6l100 -157q2 -6 2 -7zM424 114q0 -7 -10 -7h-81q-10 0 -14 8l-99 158q-2 6 -2 8q0 4 2 8l99 158q4 8 14 8h81q7 0 9.5 -3.5t-1.5 -10.5
l-100 -157q-1 -3 0 -6l100 -157q2 -6 2 -7z" />
    <glyph glyph-name="logicalnot" unicode="&#xac;" horiz-adv-x="465" 
d="M432.5 351.5q3.5 -3.5 3.5 -8.5v-74v-7h-1v-96q0 -5 -3.5 -8.5t-8.5 -3.5h-70q-5 0 -8.5 3.5t-3.5 8.5v91q0 5 -5 5h-294q-5 0 -8.5 3.5t-3.5 8.5v69q0 5 3.5 8.5t8.5 3.5h382q5 0 8.5 -3.5z" />
    <glyph glyph-name="uni00AD" unicode="&#xad;" horiz-adv-x="364" 
d="M33.5 254.5q-3.5 3.5 -3.5 8.5v76q0 5 3.5 8.5t8.5 3.5h281q5 0 8.5 -3.5t3.5 -8.5v-76q0 -5 -3.5 -8.5t-8.5 -3.5h-281q-5 0 -8.5 3.5z" />
    <glyph glyph-name="registered" unicode="&#xae;" horiz-adv-x="441" 
d="M323 685q46 -26 72.5 -70.5t26.5 -99.5q0 -57 -26.5 -103t-72.5 -72.5t-102 -26.5t-102 26.5t-72.5 72.5t-26.5 103q0 55 26.5 99.5t72.5 70.5t102 26t102 -26zM297 383.5q34 19.5 53.5 54t19.5 77.5q0 40 -19.5 73.5t-54 53t-75.5 19.5q-42 0 -76 -19.5t-53.5 -53
t-19.5 -73.5q0 -43 19.5 -77.5t53.5 -54t76 -19.5t76 19.5zM264 501q-4 -1 -2 -6l22 -59q1 -2 1 -5q0 -9 -11 -9h-19q-10 0 -13 10l-21 58q-2 4 -5 4h-6q-5 0 -5 -5v-55q0 -5 -3.5 -8.5t-8.5 -3.5h-17q-5 0 -8.5 3.5t-3.5 8.5v159q0 5 3.5 8.5t8.5 3.5h56q25 0 41 -16.5
t16 -40.5q0 -31 -25 -47zM205 565v-35q0 -5 5 -5h16q10 0 16 6.5t6 15.5q0 10 -6 16.5t-16 6.5h-16q-5 0 -5 -5z" />
    <glyph glyph-name="macron" unicode="&#xaf;" horiz-adv-x="338" 
d="M47.5 588.5q-3.5 3.5 -3.5 8.5v56q0 5 3.5 8.5t8.5 3.5h225q5 0 8.5 -3.5t3.5 -8.5v-56q0 -5 -3.5 -8.5t-8.5 -3.5h-225q-5 0 -8.5 3.5z" />
    <glyph glyph-name="degree" unicode="&#xb0;" horiz-adv-x="368" 
d="M101.5 499q-37.5 22 -59.5 60t-22 84t22 83.5t59.5 59.5t82.5 22t83 -22t60 -59.5t22 -83.5t-22 -84t-60 -60t-83 -22t-82.5 22zM246.5 580q25.5 26 25.5 63q0 38 -25.5 64t-62.5 26t-62.5 -26t-25.5 -64q0 -37 25.5 -63t62.5 -26t62.5 26z" />
    <glyph glyph-name="plusminus" unicode="&#xb1;" horiz-adv-x="465" 
d="M432.5 420.5q3.5 -3.5 3.5 -8.5v-69q0 -5 -3.5 -8.5t-8.5 -3.5h-140q-5 0 -5 -5v-139q0 -5 -3.5 -8.5t-8.5 -3.5h-69q-5 0 -8.5 3.5t-3.5 8.5v139q0 5 -5 5h-139q-5 0 -8.5 3.5t-3.5 8.5v69q0 5 3.5 8.5t8.5 3.5h139q5 0 5 5v141q0 5 3.5 8.5t8.5 3.5h69q5 0 8.5 -3.5
t3.5 -8.5v-141q0 -5 5 -5h140q5 0 8.5 -3.5zM33.5 12.5q-3.5 3.5 -3.5 8.5v69q0 5 3.5 8.5t8.5 3.5h382q5 0 8.5 -3.5t3.5 -8.5v-69q0 -5 -3.5 -8.5t-8.5 -3.5h-382q-5 0 -8.5 3.5z" />
    <glyph glyph-name="uni00B2" unicode="&#xb2;" horiz-adv-x="298" 
d="M28.5 428.5q-3.5 3.5 -3.5 8.5v46q0 7 5 14l14 17q79 93 105 128q44 57 44 92q0 23 -12.5 36.5t-33.5 13.5t-34 -13.5t-13 -35.5v-15q0 -5 -3.5 -8.5t-8.5 -3.5h-53q-5 0 -8.5 3.5t-3.5 8.5v22q2 50 36.5 79t88.5 29q55 0 88.5 -31.5t33.5 -85.5q0 -53 -41 -112
q-33 -47 -97 -124q-2 -2 -1 -4t4 -2h132q5 0 8.5 -3.5t3.5 -8.5v-42q0 -5 -3.5 -8.5t-8.5 -3.5h-230q-5 0 -8.5 3.5z" />
    <glyph glyph-name="uni00B3" unicode="&#xb3;" horiz-adv-x="299" 
d="M274 559q0 -33 -9 -57q-11 -39 -40.5 -60.5t-73.5 -21.5q-46 0 -78 25t-41 66q-3 12 -5 36q0 12 12 12h52q12 0 12 -12q2 -16 4 -21q5 -19 16 -29.5t28 -10.5q29 0 41 29q7 18 7 49q0 33 -8 50q-11 29 -40 29q-9 0 -16 -4q-4 -2 -6 -2q-2 -1 -5 -1q-4 0 -8 4l-25 28
q-4 6 -4 9q0 4 4 8l81 88q5 6 -2 6h-125q-5 0 -8.5 3.5t-3.5 8.5v42q0 5 3.5 8.5t8.5 3.5h213q5 0 8.5 -3.5t3.5 -8.5v-46q0 -8 -6 -14l-68 -78q-3 -4 2 -6q23 -5 40 -22.5t26 -44.5q10 -30 10 -63z" />
    <glyph glyph-name="acute" unicode="&#xb4;" horiz-adv-x="213" 
d="M26 579q-2 4 1 10l57 103q5 8 15 8h75q7 0 9.5 -4.5t-1.5 -10.5l-71 -102q-5 -8 -14 -8h-62q-7 0 -9 4z" />
    <glyph glyph-name="uni00B5" unicode="&#xb5;" horiz-adv-x="496" 
d="M328.5 507.5q3.5 3.5 8.5 3.5h92q5 0 8.5 -3.5t3.5 -8.5v-487q0 -5 -3.5 -8.5t-8.5 -3.5h-92q-5 0 -8.5 3.5t-3.5 8.5v27q0 3 -2 3.5t-4 -2.5q-34 -47 -108 -47q-18 0 -36 3q-2 1 -3.5 -1t-1.5 -4v-179q0 -5 -3.5 -8.5t-8.5 -3.5h-92q-5 0 -8.5 3.5t-3.5 8.5v687
q0 5 3.5 8.5t8.5 3.5h92q5 0 8.5 -3.5t3.5 -8.5v-318q0 -42 19.5 -65.5t55.5 -23.5q37 0 58.5 25t21.5 66v316q0 5 3.5 8.5z" />
    <glyph glyph-name="paragraph" unicode="&#xb6;" horiz-adv-x="553" 
d="M480 700q5 0 8.5 -3.5t3.5 -8.5v-876q0 -5 -3.5 -8.5t-8.5 -3.5h-67q-5 0 -8.5 3.5t-3.5 8.5v794q0 5 -5 5h-83q-5 0 -5 -5v-794q0 -5 -3.5 -8.5t-8.5 -3.5h-68q-5 0 -8.5 3.5t-3.5 8.5v434q0 4 -5 6q-83 10 -133.5 71t-50.5 152q0 64 26 115.5t74.5 80.5t111.5 29h241z
" />
    <glyph glyph-name="periodcentered" unicode="&#xb7;" horiz-adv-x="220" 
d="M60 235q-20 20 -20 51t20 51t51 20t50.5 -20t19.5 -51t-20 -51t-50 -20q-31 0 -51 20z" />
    <glyph glyph-name="cedilla" unicode="&#xb8;" horiz-adv-x="150" 
d="M4 -168l5 37q1 12 14 9q10 -2 13 -2q17 0 27 9.5t10 27.5q0 34 -43 72q-6 4 -6 9q0 6 10 6h50q9 0 15 -6q51 -45 51 -97q0 -13 -3 -25q-8 -33 -32 -47.5t-56 -14.5q-24 0 -47 7q-9 4 -8 15z" />
    <glyph glyph-name="uni00B9" unicode="&#xb9;" horiz-adv-x="172" 
d="M73 845h57q5 0 8.5 -3.5t3.5 -8.5v-396q0 -5 -3.5 -8.5t-8.5 -3.5h-53q-5 0 -8.5 3.5t-3.5 8.5v335q0 6 -5 4l-28 -4h-2q-11 0 -11 11v33q0 10 9 14l30 12q7 3 15 3z" />
    <glyph glyph-name="ordmasculine" unicode="&#xba;" horiz-adv-x="324" 
d="M76.5 389.5q-33.5 27.5 -41.5 74.5q-6 30 -6 71q0 43 6 73q8 46 41.5 73t85.5 27q50 0 83 -27t41 -73q7 -37 7 -72q0 -43 -7 -72q-7 -48 -40.5 -75t-84.5 -27t-84.5 27.5zM195 440q14 13 18 35q4 25 4 60q0 36 -4 60q-4 22 -18 35t-34 13t-34 -13t-18 -35q-4 -24 -4 -60
t4 -60q3 -22 17.5 -35t34.5 -13t34 13zM26.5 249.5q-3.5 3.5 -3.5 8.5v45q0 5 3.5 8.5t8.5 3.5h254q5 0 8.5 -3.5t3.5 -8.5v-45q0 -5 -3.5 -8.5t-8.5 -3.5h-254q-5 0 -8.5 3.5z" />
    <glyph glyph-name="guillemotright" unicode="&#xbb;" horiz-adv-x="492" 
d="M70.5 110.5q-2.5 3.5 1.5 10.5l100 157q2 3 0 6l-100 157q-2 6 -2 7q0 7 10 7h82q10 0 14 -8l98 -158q2 -2 2 -8q0 -5 -2 -8l-98 -158q-4 -8 -14 -8h-82q-7 0 -9.5 3.5zM232.5 110.5q-2.5 3.5 1.5 10.5l100 157q2 3 0 6l-100 157q-2 6 -2 7q0 7 10 7h82q10 0 14 -8
l98 -158q2 -2 2 -8q0 -5 -2 -8l-98 -158q-4 -8 -14 -8h-82q-7 0 -9.5 3.5z" />
    <glyph glyph-name="onequarter" unicode="&#xbc;" horiz-adv-x="758" 
d="M73 700h57q5 0 8.5 -3.5t3.5 -8.5v-396q0 -5 -3.5 -8.5t-8.5 -3.5h-53q-5 0 -8.5 3.5t-3.5 8.5v335q0 6 -5 4l-28 -4h-2q-11 0 -11 11v33q0 10 9 14l30 12q7 3 15 3zM84.5 3.5q-2.5 3.5 1.5 10.5l410 678q4 8 14 8h59q7 0 9.5 -3.5t-1.5 -10.5l-409 -678q-4 -8 -14 -8
h-60q-7 0 -9.5 3.5zM731.5 173.5q3.5 -3.5 3.5 -8.5v-45q0 -5 -3.5 -8.5t-8.5 -3.5h-15q-5 0 -5 -5v-91q0 -5 -3.5 -8.5t-8.5 -3.5h-52q-5 0 -8.5 3.5t-3.5 8.5v91q0 5 -5 5h-158q-5 0 -8.5 3.5t-3.5 8.5v36q0 6 3 15l94 240q3 9 14 9h55q15 0 10 -14l-86 -223q-1 -6 4 -6
h76q5 0 5 5v67q0 5 3.5 8.5t8.5 3.5h52q5 0 8.5 -3.5t3.5 -8.5v-67q0 -5 5 -5h15q5 0 8.5 -3.5z" />
    <glyph glyph-name="onehalf" unicode="&#xbd;" horiz-adv-x="741" 
d="M73 700h57q5 0 8.5 -3.5t3.5 -8.5v-396q0 -5 -3.5 -8.5t-8.5 -3.5h-53q-5 0 -8.5 3.5t-3.5 8.5v335q0 6 -5 4l-28 -4h-2q-11 0 -11 11v33q0 10 9 14l30 12q7 3 15 3zM84.5 3.5q-2.5 3.5 1.5 10.5l410 678q4 8 14 8h59q7 0 9.5 -3.5t-1.5 -10.5l-409 -678q-4 -8 -14 -8
h-60q-7 0 -9.5 3.5zM467.5 3.5q-3.5 3.5 -3.5 8.5v46q0 7 5 14l14 17q79 93 105 128q44 57 44 92q0 23 -12.5 36.5t-33.5 13.5t-34 -13.5t-13 -35.5v-15q0 -5 -3.5 -8.5t-8.5 -3.5h-53q-5 0 -8.5 3.5t-3.5 8.5v22q2 50 36.5 79t88.5 29q55 0 88.5 -31.5t33.5 -85.5
q0 -53 -41 -112q-33 -47 -97 -124q-2 -2 -1 -4t4 -2h132q5 0 8.5 -3.5t3.5 -8.5v-42q0 -5 -3.5 -8.5t-8.5 -3.5h-230q-5 0 -8.5 3.5z" />
    <glyph glyph-name="threequarters" unicode="&#xbe;" horiz-adv-x="841" 
d="M274 416q0 -33 -9 -57q-11 -39 -40.5 -60.5t-73.5 -21.5q-46 0 -78 25t-41 66q-3 12 -5 36q0 12 12 12h52q12 0 12 -12q2 -16 4 -21q5 -19 16 -29.5t28 -10.5q29 0 41 29q7 18 7 49q0 33 -8 50q-11 29 -40 29q-9 0 -16 -4q-4 -2 -6 -2q-2 -1 -5 -1q-4 0 -8 4l-25 28
q-4 6 -4 9q0 4 4 8l81 88q5 6 -2 6h-125q-5 0 -8.5 3.5t-3.5 8.5v42q0 5 3.5 8.5t8.5 3.5h213q5 0 8.5 -3.5t3.5 -8.5v-46q0 -8 -6 -14l-68 -78q-3 -4 2 -6q23 -5 40 -22.5t26 -44.5q10 -30 10 -63zM168.5 3.5q-2.5 3.5 1.5 10.5l410 678q4 8 14 8h59q7 0 9.5 -3.5
t-1.5 -10.5l-409 -678q-4 -8 -14 -8h-60q-7 0 -9.5 3.5zM815.5 173.5q3.5 -3.5 3.5 -8.5v-45q0 -5 -3.5 -8.5t-8.5 -3.5h-15q-5 0 -5 -5v-91q0 -5 -3.5 -8.5t-8.5 -3.5h-52q-5 0 -8.5 3.5t-3.5 8.5v91q0 5 -5 5h-158q-5 0 -8.5 3.5t-3.5 8.5v36q0 6 3 15l94 240q3 9 14 9h55
q15 0 10 -14l-86 -223q-1 -6 4 -6h76q5 0 5 5v67q0 5 3.5 8.5t8.5 3.5h52q5 0 8.5 -3.5t3.5 -8.5v-67q0 -5 5 -5h15q5 0 8.5 -3.5z" />
    <glyph glyph-name="questiondown" unicode="&#xbf;" horiz-adv-x="456" 
d="M296 481q20 -20 20 -51t-20 -50.5t-51 -19.5t-50.5 19.5t-19.5 50.5t20 51t50 20q31 0 51 -20zM298.5 282.5q3.5 -3.5 3.5 -8.5v-41q0 -34 -12 -59t-28.5 -42t-44.5 -39q-36 -29 -54 -52.5t-18 -58.5q0 -39 22.5 -62.5t59.5 -23.5q39 0 63 25t24 64v21q0 11 12 11l92 -4
q5 0 8.5 -4t3.5 -9v-15q0 -57 -26 -101.5t-73 -69t-107 -24.5q-89 0 -142.5 51.5t-53.5 136.5q0 44 13.5 76t32.5 52t50 45q32 25 47 43.5t15 45.5v34q0 5 3.5 8.5t8.5 3.5h92q5 0 8.5 -3.5z" />
    <glyph glyph-name="Agrave" unicode="&#xc0;" horiz-adv-x="552" 
d="M409 10l-26 107q-1 4 -5 4h-206q-4 0 -5 -4l-25 -107q-3 -10 -14 -10h-95q-13 0 -10 13l182 677q3 10 14 10h114q11 0 14 -10l182 -677l1 -4q0 -9 -11 -9h-96q-11 0 -14 10zM192 213.5q2 -1.5 4 -1.5h158q2 0 4 1.5t1 4.5l-82 328q-1 3 -3 3t-3 -3l-80 -328q-1 -3 1 -4.5
zM316 772q0 -8 -10 -8h-62q-9 0 -14 8l-72 102q-2 3 -2 7q0 8 10 8h76q10 0 15 -8l57 -103q2 -4 2 -6z" />
    <glyph glyph-name="Aacute" unicode="&#xc1;" horiz-adv-x="552" 
d="M409 10l-26 107q-1 4 -5 4h-206q-4 0 -5 -4l-25 -107q-3 -10 -14 -10h-95q-13 0 -10 13l182 677q3 10 14 10h114q11 0 14 -10l182 -677l1 -4q0 -9 -11 -9h-96q-11 0 -14 10zM192 213.5q2 -1.5 4 -1.5h158q2 0 4 1.5t1 4.5l-82 328q-1 3 -3 3t-3 -3l-80 -328q-1 -3 1 -4.5
zM219 768q-2 4 1 10l57 103q5 8 15 8h75q7 0 9.5 -4.5t-1.5 -10.5l-71 -102q-5 -8 -14 -8h-62q-7 0 -9 4z" />
    <glyph glyph-name="Acircumflex" unicode="&#xc2;" horiz-adv-x="552" 
d="M409 10l-26 107q-1 4 -5 4h-206q-4 0 -5 -4l-25 -107q-3 -10 -14 -10h-95q-13 0 -10 13l182 677q3 10 14 10h114q11 0 14 -10l182 -677l1 -4q0 -9 -11 -9h-96q-11 0 -14 10zM192 213.5q2 -1.5 4 -1.5h158q2 0 4 1.5t1 4.5l-82 328q-1 3 -3 3t-3 -3l-80 -328q-1 -3 1 -4.5
zM137 767.5q-2 4.5 2 10.5l68 103q5 8 14 8h105q9 0 14 -8l71 -103q2 -3 2 -7q0 -8 -10 -8h-71q-10 0 -14 8l-40 65q-2 3 -4 3t-3 -3l-40 -65q-4 -8 -14 -8h-71q-7 0 -9 4.5z" />
    <glyph glyph-name="Atilde" unicode="&#xc3;" horiz-adv-x="552" 
d="M409 10l-26 107q-1 4 -5 4h-206q-4 0 -5 -4l-25 -107q-3 -10 -14 -10h-95q-13 0 -10 13l182 677q3 10 14 10h114q11 0 14 -10l182 -677l1 -4q0 -9 -11 -9h-96q-11 0 -14 10zM192 213.5q2 -1.5 4 -1.5h158q2 0 4 1.5t1 4.5l-82 328q-1 3 -3 3t-3 -3l-80 -328q-1 -3 1 -4.5
zM313 781q-13 5 -30 15l-16 8t-17 7t-15 2q-28 0 -47 -22q-8 -10 -16 -2l-33 30q-8 8 -3 17q15 28 39 43t53 15q19 0 33 -5.5t35 -17.5q4 -2 13.5 -7.5t17.5 -8t16 -2.5q27 0 44 23q5 7 10 7q3 0 7 -4l31 -30q4 -4 4 -9t-2 -8q-14 -27 -39 -41.5t-55 -14.5q-17 0 -30 5z" />
    <glyph glyph-name="Adieresis" unicode="&#xc4;" horiz-adv-x="552" 
d="M409 10l-26 107q-1 4 -5 4h-206q-4 0 -5 -4l-25 -107q-3 -10 -14 -10h-95q-13 0 -10 13l182 677q3 10 14 10h114q11 0 14 -10l182 -677l1 -4q0 -9 -11 -9h-96q-11 0 -14 10zM192 213.5q2 -1.5 4 -1.5h158q2 0 4 1.5t1 4.5l-82 328q-1 3 -3 3t-3 -3l-80 -328q-1 -3 1 -4.5
zM315 793q-20 20 -20 51t20 51t51 20t50.5 -20t19.5 -51t-20 -51t-50 -20q-31 0 -51 20zM134 793q-20 20 -20 51t20 51t51 20t50.5 -20t19.5 -51t-20 -51t-50 -20q-31 0 -51 20z" />
    <glyph glyph-name="Aring" unicode="&#xc5;" horiz-adv-x="552" 
d="M409 10l-26 107q-1 4 -5 4h-206q-4 0 -5 -4l-25 -107q-3 -10 -14 -10h-95q-13 0 -10 13l182 677q3 10 14 10h114q11 0 14 -10l182 -677l1 -4q0 -9 -11 -9h-96q-11 0 -14 10zM192 213.5q2 -1.5 4 -1.5h158q2 0 4 1.5t1 4.5l-82 328q-1 3 -3 3t-3 -3l-80 -328q-1 -3 1 -4.5
zM191.5 791.5q-34.5 34.5 -34.5 84.5t34.5 84t84.5 34t84 -34t34 -84t-34 -84.5t-84 -34.5t-84.5 34.5zM315 836.5q16 16.5 16 39.5q0 24 -16 40t-39 16t-39 -16t-16 -40q0 -23 16 -39.5t39 -16.5t39 16.5z" />
    <glyph glyph-name="AE" unicode="&#xc6;" horiz-adv-x="841" 
d="M798.5 603.5q-3.5 -3.5 -8.5 -3.5h-270q-5 0 -5 -5v-188q0 -5 5 -5h170q5 0 8.5 -3.5t3.5 -8.5v-76q0 -5 -3.5 -8.5t-8.5 -3.5h-170q-5 0 -5 -5v-192q0 -5 5 -5h270q5 0 8.5 -3.5t3.5 -8.5v-76q0 -5 -3.5 -8.5t-8.5 -3.5h-379q-5 0 -8.5 3.5t-3.5 8.5v104q0 5 -5 5h-191
q-4 0 -6 -4l-49 -108q-4 -9 -14 -9h-99q-7 0 -9.5 3.5t0.5 10.5l317 677q4 9 14 9h433q5 0 8.5 -3.5t3.5 -8.5v-76q0 -5 -3.5 -8.5zM243 214q1 -2 3 -2h148q5 0 5 5v330q0 4 -2 4t-4 -3l-150 -330q-1 -2 0 -4z" />
    <glyph glyph-name="Ccedilla" unicode="&#xc7;" horiz-adv-x="533" 
d="M485.5 486q-3.5 -3 -8.5 -3l-93 -4q-12 0 -12 12v12q0 47 -28.5 76t-74.5 29q-47 0 -75.5 -29t-28.5 -76v-307q0 -47 28.5 -75.5t75.5 -28.5q46 0 74.5 28.5t28.5 75.5v13q0 11 12 11l93 -4q5 0 8.5 -3.5t3.5 -8.5v-4q0 -85 -50.5 -140.5t-134.5 -65.5q-7 -1 -2 -6
q40 -43 40 -88q0 -12 -3 -24q-8 -33 -32 -47.5t-56 -14.5q-25 0 -46 7q-10 4 -9 15l5 37q1 12 15 9q10 -2 14 -2q28 0 34 28q1 4 1 11q0 35 -50 77l-6 3q-74 16 -117 70.5t-43 134.5v294q0 63 27.5 110.5t77.5 73.5t115 26t115 -25.5t77.5 -72t27.5 -108.5v-9q0 -4 -3.5 -7z
" />
    <glyph glyph-name="Egrave" unicode="&#xc8;" horiz-adv-x="513" 
d="M471.5 603.5q-3.5 -3.5 -8.5 -3.5h-278q-5 0 -5 -5v-188q0 -5 5 -5h178q5 0 8.5 -3.5t3.5 -8.5v-76q0 -5 -3.5 -8.5t-8.5 -3.5h-178q-5 0 -5 -5v-192q0 -5 5 -5h278q5 0 8.5 -3.5t3.5 -8.5v-76q0 -5 -3.5 -8.5t-8.5 -3.5h-387q-5 0 -8.5 3.5t-3.5 8.5v676q0 5 3.5 8.5
t8.5 3.5h387q5 0 8.5 -3.5t3.5 -8.5v-76q0 -5 -3.5 -8.5zM308 772q0 -8 -10 -8h-62q-9 0 -14 8l-72 102q-2 3 -2 7q0 8 10 8h76q10 0 15 -8l57 -103q2 -4 2 -6z" />
    <glyph glyph-name="Eacute" unicode="&#xc9;" horiz-adv-x="513" 
d="M471.5 603.5q-3.5 -3.5 -8.5 -3.5h-278q-5 0 -5 -5v-188q0 -5 5 -5h178q5 0 8.5 -3.5t3.5 -8.5v-76q0 -5 -3.5 -8.5t-8.5 -3.5h-178q-5 0 -5 -5v-192q0 -5 5 -5h278q5 0 8.5 -3.5t3.5 -8.5v-76q0 -5 -3.5 -8.5t-8.5 -3.5h-387q-5 0 -8.5 3.5t-3.5 8.5v676q0 5 3.5 8.5
t8.5 3.5h387q5 0 8.5 -3.5t3.5 -8.5v-76q0 -5 -3.5 -8.5zM211 768q-2 4 1 10l57 103q5 8 15 8h75q7 0 9.5 -4.5t-1.5 -10.5l-71 -102q-5 -8 -14 -8h-62q-7 0 -9 4z" />
    <glyph glyph-name="Ecircumflex" unicode="&#xca;" horiz-adv-x="513" 
d="M471.5 603.5q-3.5 -3.5 -8.5 -3.5h-278q-5 0 -5 -5v-188q0 -5 5 -5h178q5 0 8.5 -3.5t3.5 -8.5v-76q0 -5 -3.5 -8.5t-8.5 -3.5h-178q-5 0 -5 -5v-192q0 -5 5 -5h278q5 0 8.5 -3.5t3.5 -8.5v-76q0 -5 -3.5 -8.5t-8.5 -3.5h-387q-5 0 -8.5 3.5t-3.5 8.5v676q0 5 3.5 8.5
t8.5 3.5h387q5 0 8.5 -3.5t3.5 -8.5v-76q0 -5 -3.5 -8.5zM130 767.5q-2 4.5 2 10.5l68 103q5 8 14 8h105q9 0 14 -8l71 -103q2 -3 2 -7q0 -8 -10 -8h-71q-10 0 -14 8l-40 65q-2 3 -4 3t-3 -3l-40 -65q-4 -8 -14 -8h-71q-7 0 -9 4.5z" />
    <glyph glyph-name="Edieresis" unicode="&#xcb;" horiz-adv-x="513" 
d="M471.5 603.5q-3.5 -3.5 -8.5 -3.5h-278q-5 0 -5 -5v-188q0 -5 5 -5h178q5 0 8.5 -3.5t3.5 -8.5v-76q0 -5 -3.5 -8.5t-8.5 -3.5h-178q-5 0 -5 -5v-192q0 -5 5 -5h278q5 0 8.5 -3.5t3.5 -8.5v-76q0 -5 -3.5 -8.5t-8.5 -3.5h-387q-5 0 -8.5 3.5t-3.5 8.5v676q0 5 3.5 8.5
t8.5 3.5h387q5 0 8.5 -3.5t3.5 -8.5v-76q0 -5 -3.5 -8.5zM308 793q-20 20 -20 51t20 51t51 20t50.5 -20t19.5 -51t-20 -51t-50 -20q-31 0 -51 20zM127 793q-20 20 -20 51t20 51t51 20t50.5 -20t19.5 -51t-20 -51t-50 -20q-31 0 -51 20z" />
    <glyph glyph-name="Igrave" unicode="&#xcc;" horiz-adv-x="243" 
d="M67.5 3.5q-3.5 3.5 -3.5 8.5v676q0 5 3.5 8.5t8.5 3.5h92q5 0 8.5 -3.5t3.5 -8.5v-676q0 -5 -3.5 -8.5t-8.5 -3.5h-92q-5 0 -8.5 3.5zM162 772q0 -8 -10 -8h-62q-9 0 -14 8l-72 102q-2 3 -2 7q0 8 10 8h76q10 0 15 -8l57 -103q2 -4 2 -6z" />
    <glyph glyph-name="Iacute" unicode="&#xcd;" horiz-adv-x="243" 
d="M67.5 3.5q-3.5 3.5 -3.5 8.5v676q0 5 3.5 8.5t8.5 3.5h92q5 0 8.5 -3.5t3.5 -8.5v-676q0 -5 -3.5 -8.5t-8.5 -3.5h-92q-5 0 -8.5 3.5zM65 768q-2 4 1 10l57 103q5 8 15 8h75q7 0 9.5 -4.5t-1.5 -10.5l-71 -102q-5 -8 -14 -8h-62q-7 0 -9 4z" />
    <glyph glyph-name="Icircumflex" unicode="&#xce;" horiz-adv-x="243" 
d="M67.5 3.5q-3.5 3.5 -3.5 8.5v676q0 5 3.5 8.5t8.5 3.5h92q5 0 8.5 -3.5t3.5 -8.5v-676q0 -5 -3.5 -8.5t-8.5 -3.5h-92q-5 0 -8.5 3.5zM-17 767.5q-2 4.5 2 10.5l68 103q5 8 14 8h105q9 0 14 -8l71 -103q2 -3 2 -7q0 -8 -10 -8h-71q-10 0 -14 8l-40 65q-2 3 -4 3t-3 -3
l-40 -65q-4 -8 -14 -8h-71q-7 0 -9 4.5z" />
    <glyph glyph-name="Idieresis" unicode="&#xcf;" horiz-adv-x="243" 
d="M67.5 3.5q-3.5 3.5 -3.5 8.5v676q0 5 3.5 8.5t8.5 3.5h92q5 0 8.5 -3.5t3.5 -8.5v-676q0 -5 -3.5 -8.5t-8.5 -3.5h-92q-5 0 -8.5 3.5zM161 793q-20 20 -20 51t20 51t51 20t50.5 -20t19.5 -51t-20 -51t-50 -20q-31 0 -51 20zM-20 793q-20 20 -20 51t20 51t51 20t50.5 -20
t19.5 -51t-20 -51t-50 -20q-31 0 -51 20z" />
    <glyph glyph-name="Eth" unicode="&#xd0;" horiz-adv-x="591" 
d="M483.5 646q58.5 -54 58.5 -144v-304q0 -90 -58.5 -144t-155.5 -54h-207q-5 0 -8.5 3.5t-3.5 8.5v310q0 5 -5 5h-28q-5 0 -8.5 3.5t-3.5 8.5v50q0 5 3.5 8.5t8.5 3.5h28q5 0 5 5v282q0 5 3.5 8.5t8.5 3.5h207q97 0 155.5 -54zM426 489q0 51 -26 81t-71 30h-99q-5 0 -5 -5
v-189q0 -5 5 -5h71q5 0 8.5 -3.5t3.5 -8.5v-50q0 -5 -3.5 -8.5t-8.5 -3.5h-71q-5 0 -5 -5v-217q0 -5 5 -5l100 1q43 0 69 29.5t27 80.5v278z" />
    <glyph glyph-name="Ntilde" unicode="&#xd1;" horiz-adv-x="588" 
d="M412.5 696.5q3.5 3.5 8.5 3.5h92q5 0 8.5 -3.5t3.5 -8.5v-676q0 -5 -3.5 -8.5t-8.5 -3.5h-97q-9 0 -14 9l-218 448q-2 3 -4 2.5t-2 -4.5l1 -443q0 -5 -3.5 -8.5t-8.5 -3.5h-92q-5 0 -8.5 3.5t-3.5 8.5v676q0 5 3.5 8.5t8.5 3.5h96q10 0 14 -9l219 -450q2 -3 4 -2.5t2 4.5
l-1 445q0 5 3.5 8.5zM328 783q-13 5 -30 15l-16 8t-17 7t-15 2q-28 0 -47 -22q-8 -10 -16 -2l-33 30q-8 8 -3 17q15 28 39 43t53 15q19 0 33 -5.5t35 -17.5q4 -2 13.5 -7.5t17.5 -8t16 -2.5q27 0 44 23q5 7 10 7q3 0 7 -4l31 -30q4 -4 4 -9t-2 -8q-14 -27 -39 -41.5
t-55 -14.5q-17 0 -30 5z" />
    <glyph glyph-name="Ograve" unicode="&#xd2;" horiz-adv-x="544" 
d="M154.5 18q-50.5 27 -78 76.5t-27.5 114.5v282q0 64 27.5 113.5t78 76.5t116.5 27q67 0 117.5 -27t78.5 -76.5t28 -113.5v-282q0 -65 -28 -114.5t-78.5 -76.5t-117.5 -27q-66 0 -116.5 27zM349.5 122.5q29.5 31.5 29.5 81.5v290q0 51 -29.5 82.5t-78.5 31.5
q-48 0 -77 -31.5t-29 -82.5v-290q0 -50 29 -81.5t77 -31.5q49 0 78.5 31.5zM312 771q0 -8 -10 -8h-62q-9 0 -14 8l-72 102q-2 3 -2 7q0 8 10 8h76q10 0 15 -8l57 -103q2 -4 2 -6z" />
    <glyph glyph-name="Oacute" unicode="&#xd3;" horiz-adv-x="544" 
d="M154.5 18q-50.5 27 -78 76.5t-27.5 114.5v282q0 64 27.5 113.5t78 76.5t116.5 27q67 0 117.5 -27t78.5 -76.5t28 -113.5v-282q0 -65 -28 -114.5t-78.5 -76.5t-117.5 -27q-66 0 -116.5 27zM349.5 122.5q29.5 31.5 29.5 81.5v290q0 51 -29.5 82.5t-78.5 31.5
q-48 0 -77 -31.5t-29 -82.5v-290q0 -50 29 -81.5t77 -31.5q49 0 78.5 31.5zM215 767q-2 4 1 10l57 103q5 8 15 8h75q7 0 9.5 -4.5t-1.5 -10.5l-71 -102q-5 -8 -14 -8h-62q-7 0 -9 4z" />
    <glyph glyph-name="Ocircumflex" unicode="&#xd4;" horiz-adv-x="544" 
d="M154.5 18q-50.5 27 -78 76.5t-27.5 114.5v282q0 64 27.5 113.5t78 76.5t116.5 27q67 0 117.5 -27t78.5 -76.5t28 -113.5v-282q0 -65 -28 -114.5t-78.5 -76.5t-117.5 -27q-66 0 -116.5 27zM349.5 122.5q29.5 31.5 29.5 81.5v290q0 51 -29.5 82.5t-78.5 31.5
q-48 0 -77 -31.5t-29 -82.5v-290q0 -50 29 -81.5t77 -31.5q49 0 78.5 31.5zM133 766.5q-2 4.5 2 10.5l68 103q5 8 14 8h105q9 0 14 -8l71 -103q2 -3 2 -7q0 -8 -10 -8h-71q-10 0 -14 8l-40 65q-2 3 -4 3t-3 -3l-40 -65q-4 -8 -14 -8h-71q-7 0 -9 4.5z" />
    <glyph glyph-name="Otilde" unicode="&#xd5;" horiz-adv-x="544" 
d="M154.5 18q-50.5 27 -78 76.5t-27.5 114.5v282q0 64 27.5 113.5t78 76.5t116.5 27q67 0 117.5 -27t78.5 -76.5t28 -113.5v-282q0 -65 -28 -114.5t-78.5 -76.5t-117.5 -27q-66 0 -116.5 27zM349.5 122.5q29.5 31.5 29.5 81.5v290q0 51 -29.5 82.5t-78.5 31.5
q-48 0 -77 -31.5t-29 -82.5v-290q0 -50 29 -81.5t77 -31.5q49 0 78.5 31.5zM309 780q-13 5 -30 15l-16 8t-17 7t-15 2q-28 0 -47 -22q-8 -10 -16 -2l-33 30q-8 8 -3 17q15 28 39 43t53 15q19 0 33 -5.5t35 -17.5q4 -2 13.5 -7.5t17.5 -8t16 -2.5q27 0 44 23q5 7 10 7
q3 0 7 -4l31 -30q4 -4 4 -9t-2 -8q-14 -27 -39 -41.5t-55 -14.5q-17 0 -30 5z" />
    <glyph glyph-name="Odieresis" unicode="&#xd6;" horiz-adv-x="544" 
d="M154.5 18q-50.5 27 -78 76.5t-27.5 114.5v282q0 64 27.5 113.5t78 76.5t116.5 27q67 0 117.5 -27t78.5 -76.5t28 -113.5v-282q0 -65 -28 -114.5t-78.5 -76.5t-117.5 -27q-66 0 -116.5 27zM349.5 122.5q29.5 31.5 29.5 81.5v290q0 51 -29.5 82.5t-78.5 31.5
q-48 0 -77 -31.5t-29 -82.5v-290q0 -50 29 -81.5t77 -31.5q49 0 78.5 31.5zM311 792q-20 20 -20 51t20 51t51 20t50.5 -20t19.5 -51t-20 -51t-50 -20q-31 0 -51 20zM130 792q-20 20 -20 51t20 51t51 20t50.5 -20t19.5 -51t-20 -51t-50 -20q-31 0 -51 20z" />
    <glyph glyph-name="multiply" unicode="&#xd7;" horiz-adv-x="413" 
d="M379 424q0 -4 -4 -8l-98 -98q-2 -2 -2 -4t2 -4l98 -98q4 -6 4 -8q0 -4 -5 -9l-50 -50q-4 -4 -8 -4q-2 0 -8 4l-98 98q-2 2 -4 2t-4 -2l-98 -98q-4 -4 -8 -4q-5 0 -8 4l-50 50q-4 6 -4 8q0 4 4 8l98 98q4 4 0 8l-99 99q-4 6 -4 8q0 4 4 8l51 51q4 4 8 4q5 0 8 -4l99 -99
q2 -2 4 -2t4 2l98 98q4 4 8 4q5 0 8 -4l50 -50q4 -3 4 -8z" />
    <glyph glyph-name="Oslash" unicode="&#xd8;" horiz-adv-x="609" 
d="M513 688q0 -2 -2 -8l-40 -73q-1 -3 0 -6q26 -49 26 -110v-282q0 -65 -28 -114.5t-79 -76.5t-117 -27q-68 0 -123 30q-1 1 -3 1t-3 -2l-30 -53q-7 -11 -16 -5l-62 35q-10 7 -4 16l43 79q1 4 0 6q-25 50 -25 111v282q0 64 28 113.5t78.5 76.5t116.5 27q70 0 124 -31
q5 -2 6 2l30 54q6 11 16 4l59 -40q5 -4 5 -9zM166 266q0 -4 2 -4t4 3l174 311q2 5 -1 7q-30 25 -72 25q-48 0 -77.5 -31.5t-29.5 -82.5v-228zM381 434q0 4 -2 4t-4 -3l-174 -312q-1 -4 1 -7q28 -25 71 -25q49 0 78.5 31.5t29.5 81.5v230z" />
    <glyph glyph-name="Ugrave" unicode="&#xd9;" horiz-adv-x="557" 
d="M163 19q-50 27 -77.5 76.5t-27.5 114.5v478q0 5 3.5 8.5t8.5 3.5h92q5 0 8.5 -3.5t3.5 -8.5v-484q0 -50 28.5 -81t75.5 -31t76 31t29 81v484q0 5 3.5 8.5t8.5 3.5h92q5 0 8.5 -3.5t3.5 -8.5v-478q0 -65 -27.5 -114.5t-77.5 -76.5t-116 -27q-65 0 -115 27zM319 772
q0 -8 -10 -8h-62q-9 0 -14 8l-72 102q-2 3 -2 7q0 8 10 8h76q10 0 15 -8l57 -103q2 -4 2 -6z" />
    <glyph glyph-name="Uacute" unicode="&#xda;" horiz-adv-x="557" 
d="M163 19q-50 27 -77.5 76.5t-27.5 114.5v478q0 5 3.5 8.5t8.5 3.5h92q5 0 8.5 -3.5t3.5 -8.5v-484q0 -50 28.5 -81t75.5 -31t76 31t29 81v484q0 5 3.5 8.5t8.5 3.5h92q5 0 8.5 -3.5t3.5 -8.5v-478q0 -65 -27.5 -114.5t-77.5 -76.5t-116 -27q-65 0 -115 27zM222 768
q-2 4 1 10l57 103q5 8 15 8h75q7 0 9.5 -4.5t-1.5 -10.5l-71 -102q-5 -8 -14 -8h-62q-7 0 -9 4z" />
    <glyph glyph-name="Ucircumflex" unicode="&#xdb;" horiz-adv-x="557" 
d="M163 19q-50 27 -77.5 76.5t-27.5 114.5v478q0 5 3.5 8.5t8.5 3.5h92q5 0 8.5 -3.5t3.5 -8.5v-484q0 -50 28.5 -81t75.5 -31t76 31t29 81v484q0 5 3.5 8.5t8.5 3.5h92q5 0 8.5 -3.5t3.5 -8.5v-478q0 -65 -27.5 -114.5t-77.5 -76.5t-116 -27q-65 0 -115 27zM140 767.5
q-2 4.5 2 10.5l68 103q5 8 14 8h105q9 0 14 -8l71 -103q2 -3 2 -7q0 -8 -10 -8h-71q-10 0 -14 8l-40 65q-2 3 -4 3t-3 -3l-40 -65q-4 -8 -14 -8h-71q-7 0 -9 4.5z" />
    <glyph glyph-name="Udieresis" unicode="&#xdc;" horiz-adv-x="557" 
d="M163 19q-50 27 -77.5 76.5t-27.5 114.5v478q0 5 3.5 8.5t8.5 3.5h92q5 0 8.5 -3.5t3.5 -8.5v-484q0 -50 28.5 -81t75.5 -31t76 31t29 81v484q0 5 3.5 8.5t8.5 3.5h92q5 0 8.5 -3.5t3.5 -8.5v-478q0 -65 -27.5 -114.5t-77.5 -76.5t-116 -27q-65 0 -115 27zM318 793
q-20 20 -20 51t20 51t51 20t50.5 -20t19.5 -51t-20 -51t-50 -20q-31 0 -51 20zM137 793q-20 20 -20 51t20 51t51 20t50.5 -20t19.5 -51t-20 -51t-50 -20q-31 0 -51 20z" />
    <glyph glyph-name="Yacute" unicode="&#xdd;" horiz-adv-x="528" 
d="M209.5 4.5q-3.5 3.5 -3.5 8.5v270l-1 6l-173 397q-1 2 -1 6q0 8 10 8h98q11 0 14 -9l108 -270q3 -7 6 0l107 270q3 9 14 9h99q7 0 9 -4t0 -10l-174 -397l-1 -6v-270q0 -5 -3.5 -8.5t-8.5 -3.5h-91q-5 0 -8.5 3.5zM207 767q-2 4 1 10l57 103q5 8 15 8h75q7 0 9.5 -4.5
t-1.5 -10.5l-71 -102q-5 -8 -14 -8h-62q-7 0 -9 4z" />
    <glyph glyph-name="Thorn" unicode="&#xde;" horiz-adv-x="516" 
d="M396 529q44 -26 68.5 -73t24.5 -108q0 -60 -25 -106t-69.5 -71t-100.5 -25h-113q-5 0 -5 -5v-129q0 -5 -3.5 -8.5t-8.5 -3.5h-92q-5 0 -8.5 3.5t-3.5 8.5v676q0 5 3.5 8.5t8.5 3.5h92q5 0 8.5 -3.5t3.5 -8.5v-128q0 -5 5 -5h113q58 0 102 -26zM346.5 268q26.5 28 26.5 78
t-26.5 79t-70.5 29h-95q-5 0 -5 -5v-204q0 -5 5 -5h95q44 0 70.5 28z" />
    <glyph glyph-name="germandbls" unicode="&#xdf;" horiz-adv-x="509" 
d="M58.5 4.5q-3.5 3.5 -3.5 8.5v480q0 102 52 158.5t146 56.5q92 0 147.5 -51t56.5 -138q0 -99 -72 -139q-5 -3 0 -6q38 -22 59.5 -66.5t21.5 -105.5q0 -96 -56.5 -149t-160.5 -53h-28q-5 0 -8.5 3.5t-3.5 8.5v75q0 5 3.5 8.5t8.5 3.5h34q45 1 71 31t26 84q0 53 -24 83
t-65 32h-30q-5 0 -8.5 3.5t-3.5 8.5v67q0 5 3.5 8.5t8.5 3.5h29q37 0 58.5 24.5t21.5 66.5q0 45 -22 71.5t-63 26.5q-39 0 -62.5 -27t-23.5 -75v-495q0 -5 -3.5 -8.5t-8.5 -3.5l-92 1q-5 0 -8.5 3.5z" />
    <glyph glyph-name="agrave" unicode="&#xe0;" horiz-adv-x="477" 
d="M339 497.5q44 -21.5 68.5 -59.5t24.5 -87v-339q0 -5 -3.5 -8.5t-8.5 -3.5h-92q-5 0 -8.5 3.5t-3.5 8.5v25q0 3 -2 4t-4 -1q-42 -48 -121 -48q-66 0 -112 35.5t-46 115.5q0 84 53.5 125t147.5 41h79q5 0 5 5v25q0 37 -20.5 58.5t-56.5 21.5q-29 0 -47.5 -13.5t-23.5 -36.5
q-3 -11 -14 -11l-97 6q-5 0 -8.5 3.5t-2.5 7.5q6 64 59.5 104t132.5 40q57 0 101 -21.5zM287 108.5q29 22.5 29 59.5v52q0 5 -5 5h-67q-44 0 -69.5 -19t-25.5 -55q0 -32 19.5 -48.5t50.5 -16.5q39 0 68 22.5zM279 583q0 -8 -10 -8h-62q-9 0 -14 8l-72 102q-2 3 -2 7
q0 8 10 8h76q10 0 15 -8l57 -103q2 -4 2 -6z" />
    <glyph glyph-name="aacute" unicode="&#xe1;" horiz-adv-x="477" 
d="M339 497.5q44 -21.5 68.5 -59.5t24.5 -87v-339q0 -5 -3.5 -8.5t-8.5 -3.5h-92q-5 0 -8.5 3.5t-3.5 8.5v25q0 3 -2 4t-4 -1q-42 -48 -121 -48q-66 0 -112 35.5t-46 115.5q0 84 53.5 125t147.5 41h79q5 0 5 5v25q0 37 -20.5 58.5t-56.5 21.5q-29 0 -47.5 -13.5t-23.5 -36.5
q-3 -11 -14 -11l-97 6q-5 0 -8.5 3.5t-2.5 7.5q6 64 59.5 104t132.5 40q57 0 101 -21.5zM287 108.5q29 22.5 29 59.5v52q0 5 -5 5h-67q-44 0 -69.5 -19t-25.5 -55q0 -32 19.5 -48.5t50.5 -16.5q39 0 68 22.5zM182 579q-2 4 1 10l57 103q5 8 15 8h75q7 0 9.5 -4.5t-1.5 -10.5
l-71 -102q-5 -8 -14 -8h-62q-7 0 -9 4z" />
    <glyph glyph-name="acircumflex" unicode="&#xe2;" horiz-adv-x="477" 
d="M339 497.5q44 -21.5 68.5 -59.5t24.5 -87v-339q0 -5 -3.5 -8.5t-8.5 -3.5h-92q-5 0 -8.5 3.5t-3.5 8.5v25q0 3 -2 4t-4 -1q-42 -48 -121 -48q-66 0 -112 35.5t-46 115.5q0 84 53.5 125t147.5 41h79q5 0 5 5v25q0 37 -20.5 58.5t-56.5 21.5q-29 0 -47.5 -13.5t-23.5 -36.5
q-3 -11 -14 -11l-97 6q-5 0 -8.5 3.5t-2.5 7.5q6 64 59.5 104t132.5 40q57 0 101 -21.5zM287 108.5q29 22.5 29 59.5v52q0 5 -5 5h-67q-44 0 -69.5 -19t-25.5 -55q0 -32 19.5 -48.5t50.5 -16.5q39 0 68 22.5zM101 578.5q-2 4.5 2 10.5l68 103q5 8 14 8h105q9 0 14 -8
l71 -103q2 -3 2 -7q0 -8 -10 -8h-71q-10 0 -14 8l-40 65q-2 3 -4 3t-3 -3l-40 -65q-4 -8 -14 -8h-71q-7 0 -9 4.5z" />
    <glyph glyph-name="atilde" unicode="&#xe3;" horiz-adv-x="477" 
d="M339 497.5q44 -21.5 68.5 -59.5t24.5 -87v-339q0 -5 -3.5 -8.5t-8.5 -3.5h-92q-5 0 -8.5 3.5t-3.5 8.5v25q0 3 -2 4t-4 -1q-42 -48 -121 -48q-66 0 -112 35.5t-46 115.5q0 84 53.5 125t147.5 41h79q5 0 5 5v25q0 37 -20.5 58.5t-56.5 21.5q-29 0 -47.5 -13.5t-23.5 -36.5
q-3 -11 -14 -11l-97 6q-5 0 -8.5 3.5t-2.5 7.5q6 64 59.5 104t132.5 40q57 0 101 -21.5zM287 108.5q29 22.5 29 59.5v52q0 5 -5 5h-67q-44 0 -69.5 -19t-25.5 -55q0 -32 19.5 -48.5t50.5 -16.5q39 0 68 22.5zM276 592q-13 5 -30 15l-16 8t-17 7t-15 2q-28 0 -47 -22
q-8 -10 -16 -2l-33 30q-8 8 -3 17q15 28 39 43t53 15q19 0 33 -5.5t35 -17.5q4 -2 13.5 -7.5t17.5 -8t16 -2.5q27 0 44 23q5 7 10 7q3 0 7 -4l31 -30q4 -4 4 -9t-2 -8q-14 -27 -39 -41.5t-55 -14.5q-17 0 -30 5z" />
    <glyph glyph-name="adieresis" unicode="&#xe4;" horiz-adv-x="477" 
d="M339 497.5q44 -21.5 68.5 -59.5t24.5 -87v-339q0 -5 -3.5 -8.5t-8.5 -3.5h-92q-5 0 -8.5 3.5t-3.5 8.5v25q0 3 -2 4t-4 -1q-42 -48 -121 -48q-66 0 -112 35.5t-46 115.5q0 84 53.5 125t147.5 41h79q5 0 5 5v25q0 37 -20.5 58.5t-56.5 21.5q-29 0 -47.5 -13.5t-23.5 -36.5
q-3 -11 -14 -11l-97 6q-5 0 -8.5 3.5t-2.5 7.5q6 64 59.5 104t132.5 40q57 0 101 -21.5zM287 108.5q29 22.5 29 59.5v52q0 5 -5 5h-67q-44 0 -69.5 -19t-25.5 -55q0 -32 19.5 -48.5t50.5 -16.5q39 0 68 22.5zM279 604q-20 20 -20 51t20 51t51 20t50.5 -20t19.5 -51t-20 -51
t-50 -20q-31 0 -51 20zM98 604q-20 20 -20 51t20 51t51 20t50.5 -20t19.5 -51t-20 -51t-50 -20q-31 0 -51 20z" />
    <glyph glyph-name="aring" unicode="&#xe5;" horiz-adv-x="477" 
d="M339 497.5q44 -21.5 68.5 -59.5t24.5 -87v-339q0 -5 -3.5 -8.5t-8.5 -3.5h-92q-5 0 -8.5 3.5t-3.5 8.5v25q0 3 -2 4t-4 -1q-42 -48 -121 -48q-66 0 -112 35.5t-46 115.5q0 84 53.5 125t147.5 41h79q5 0 5 5v25q0 37 -20.5 58.5t-56.5 21.5q-29 0 -47.5 -13.5t-23.5 -36.5
q-3 -11 -14 -11l-97 6q-5 0 -8.5 3.5t-2.5 7.5q6 64 59.5 104t132.5 40q57 0 101 -21.5zM287 108.5q29 22.5 29 59.5v52q0 5 -5 5h-67q-44 0 -69.5 -19t-25.5 -55q0 -32 19.5 -48.5t50.5 -16.5q39 0 68 22.5zM154.5 602.5q-34.5 34.5 -34.5 84.5t34.5 84t84.5 34t84 -34
t34 -84t-34 -84.5t-84 -34.5t-84.5 34.5zM278 647.5q16 16.5 16 39.5q0 24 -16 40t-39 16t-39 -16t-16 -40q0 -23 16 -39.5t39 -16.5t39 16.5z" />
    <glyph glyph-name="ae" unicode="&#xe6;" horiz-adv-x="755" 
d="M78.5 25.5q-47.5 33.5 -47.5 114.5t51 120.5t145 39.5h83q5 0 5 5v30q0 39 -20 61.5t-59 22.5q-30 0 -51 -13.5t-26 -36.5q-3 -13 -14 -11l-92 8q-12 2 -11 13q7 62 60.5 101t128.5 39q47 0 84.5 -18.5t58.5 -48.5q3 -4 6 0q21 29 58.5 48t82.5 19q73 0 126 -42t63 -111
q6 -49 6 -142q0 -12 -12 -12h-263q-5 0 -5 -5q0 -21 1 -36q3 -34 28.5 -54t62.5 -20q31 0 52 14t32 37q6 11 16 7l71 -26q5 -1 7.5 -5.5t0.5 -9.5q-16 -55 -63.5 -88.5t-117.5 -33.5q-53 0 -93.5 20.5t-56.5 49.5q-4 6 -5 3q-18 -32 -65 -52.5t-108 -20.5q-72 0 -119.5 33.5
zM440 300h155q5 0 5 5q0 15 -2 41q-5 33 -26.5 53t-53.5 20q-33 0 -54.5 -20t-25.5 -53q0 -3 -3 -41q0 -5 5 -5zM287 102q28 21 28 58v47q0 5 -5 5h-68q-43 0 -68.5 -17t-25.5 -50q0 -30 20 -47t53 -17q38 0 66 21z" />
    <glyph glyph-name="ccedilla" unicode="&#xe7;" horiz-adv-x="477" 
d="M327 169q1 5 5 8.5t9 2.5l90 -8q12 -2 12 -13l-2 -17q-8 -58 -48.5 -97t-103.5 -50q-6 -2 -2 -6q42 -42 42 -89q0 -12 -3 -24q-8 -33 -32 -47t-56 -14q-24 0 -47 7q-9 3 -8 14l5 37q1 12 14 9q8 -2 13 -2q13 0 22.5 7t13.5 21q1 3 1 8q0 36 -47 78l-6 3q-61 10 -100 50
t-48 100q-8 41 -8 110q0 63 8 109q11 70 63 111.5t132 41.5q77 0 130 -39.5t64 -103.5q1 -4 2 -10t1 -15v-2q0 -9 -11 -11l-91 -9h-2q-9 0 -11 11q0 7 -2 15q-5 27 -26.5 45.5t-54.5 18.5t-54.5 -20t-26.5 -53q-5 -38 -5 -90q0 -57 6 -92q5 -33 26 -52.5t54 -19.5
q34 0 55.5 19.5t25.5 47.5z" />
    <glyph glyph-name="egrave" unicode="&#xe8;" horiz-adv-x="483" 
d="M446 265l-1 -43q0 -12 -12 -12h-268q-5 0 -5 -5q2 -28 4 -41q5 -33 28 -53t58 -20q30 1 50.5 15t31.5 39q5 11 15 8l82 -17q12 -4 8 -15q-20 -62 -68.5 -95.5t-118.5 -33.5q-83 0 -133 40t-65 111q-5 27 -6.5 57t-1.5 80q0 52 5 79q10 73 62 116.5t132 43.5
q87 0 140.5 -49t59.5 -129q3 -33 3 -76zM189.5 399.5q-21.5 -19.5 -26.5 -52.5q-3 -22 -3 -50q0 -5 5 -5h159q5 0 5 5q-2 34 -4 49q-4 33 -26 53t-55 20t-54.5 -19.5zM282 583q0 -8 -10 -8h-62q-9 0 -14 8l-72 102q-2 3 -2 7q0 8 10 8h76q10 0 15 -8l57 -103q2 -4 2 -6z" />
    <glyph glyph-name="eacute" unicode="&#xe9;" horiz-adv-x="483" 
d="M446 265l-1 -43q0 -12 -12 -12h-268q-5 0 -5 -5q2 -28 4 -41q5 -33 28 -53t58 -20q30 1 50.5 15t31.5 39q5 11 15 8l82 -17q12 -4 8 -15q-20 -62 -68.5 -95.5t-118.5 -33.5q-83 0 -133 40t-65 111q-5 27 -6.5 57t-1.5 80q0 52 5 79q10 73 62 116.5t132 43.5
q87 0 140.5 -49t59.5 -129q3 -33 3 -76zM189.5 399.5q-21.5 -19.5 -26.5 -52.5q-3 -22 -3 -50q0 -5 5 -5h159q5 0 5 5q-2 34 -4 49q-4 33 -26 53t-55 20t-54.5 -19.5zM185 579q-2 4 1 10l57 103q5 8 15 8h75q7 0 9.5 -4.5t-1.5 -10.5l-71 -102q-5 -8 -14 -8h-62q-7 0 -9 4z
" />
    <glyph glyph-name="ecircumflex" unicode="&#xea;" horiz-adv-x="483" 
d="M446 265l-1 -43q0 -12 -12 -12h-268q-5 0 -5 -5q2 -28 4 -41q5 -33 28 -53t58 -20q30 1 50.5 15t31.5 39q5 11 15 8l82 -17q12 -4 8 -15q-20 -62 -68.5 -95.5t-118.5 -33.5q-83 0 -133 40t-65 111q-5 27 -6.5 57t-1.5 80q0 52 5 79q10 73 62 116.5t132 43.5
q87 0 140.5 -49t59.5 -129q3 -33 3 -76zM189.5 399.5q-21.5 -19.5 -26.5 -52.5q-3 -22 -3 -50q0 -5 5 -5h159q5 0 5 5q-2 34 -4 49q-4 33 -26 53t-55 20t-54.5 -19.5zM103 578.5q-2 4.5 2 10.5l68 103q5 8 14 8h105q9 0 14 -8l71 -103q2 -3 2 -7q0 -8 -10 -8h-71
q-10 0 -14 8l-40 65q-2 3 -4 3t-3 -3l-40 -65q-4 -8 -14 -8h-71q-7 0 -9 4.5z" />
    <glyph glyph-name="edieresis" unicode="&#xeb;" horiz-adv-x="483" 
d="M446 265l-1 -43q0 -12 -12 -12h-268q-5 0 -5 -5q2 -28 4 -41q5 -33 28 -53t58 -20q30 1 50.5 15t31.5 39q5 11 15 8l82 -17q12 -4 8 -15q-20 -62 -68.5 -95.5t-118.5 -33.5q-83 0 -133 40t-65 111q-5 27 -6.5 57t-1.5 80q0 52 5 79q10 73 62 116.5t132 43.5
q87 0 140.5 -49t59.5 -129q3 -33 3 -76zM189.5 399.5q-21.5 -19.5 -26.5 -52.5q-3 -22 -3 -50q0 -5 5 -5h159q5 0 5 5q-2 34 -4 49q-4 33 -26 53t-55 20t-54.5 -19.5zM281 604q-20 20 -20 51t20 51t51 20t50.5 -20t19.5 -51t-20 -51t-50 -20q-31 0 -51 20zM100 604
q-20 20 -20 51t20 51t51 20t50.5 -20t19.5 -51t-20 -51t-50 -20q-31 0 -51 20z" />
    <glyph glyph-name="igrave" unicode="&#xec;" horiz-adv-x="205" 
d="M48.5 3.5q-3.5 3.5 -3.5 8.5v487q0 5 3.5 8.5t8.5 3.5h92q5 0 8.5 -3.5t3.5 -8.5v-487q0 -5 -3.5 -8.5t-8.5 -3.5h-92q-5 0 -8.5 3.5zM143 583q0 -8 -10 -8h-62q-9 0 -14 8l-72 102q-2 3 -2 7q0 8 10 8h76q10 0 15 -8l57 -103q2 -4 2 -6z" />
    <glyph glyph-name="iacute" unicode="&#xed;" horiz-adv-x="205" 
d="M48.5 3.5q-3.5 3.5 -3.5 8.5v487q0 5 3.5 8.5t8.5 3.5h92q5 0 8.5 -3.5t3.5 -8.5v-487q0 -5 -3.5 -8.5t-8.5 -3.5h-92q-5 0 -8.5 3.5zM46 579q-2 4 1 10l57 103q5 8 15 8h75q7 0 9.5 -4.5t-1.5 -10.5l-71 -102q-5 -8 -14 -8h-62q-7 0 -9 4z" />
    <glyph glyph-name="icircumflex" unicode="&#xee;" horiz-adv-x="205" 
d="M48.5 3.5q-3.5 3.5 -3.5 8.5v487q0 5 3.5 8.5t8.5 3.5h92q5 0 8.5 -3.5t3.5 -8.5v-487q0 -5 -3.5 -8.5t-8.5 -3.5h-92q-5 0 -8.5 3.5zM-35 578.5q-2 4.5 2 10.5l68 103q5 8 14 8h105q9 0 14 -8l71 -103q2 -3 2 -7q0 -8 -10 -8h-71q-10 0 -14 8l-40 65q-2 3 -4 3t-3 -3
l-40 -65q-4 -8 -14 -8h-71q-7 0 -9 4.5z" />
    <glyph glyph-name="idieresis" unicode="&#xef;" horiz-adv-x="205" 
d="M48.5 3.5q-3.5 3.5 -3.5 8.5v487q0 5 3.5 8.5t8.5 3.5h92q5 0 8.5 -3.5t3.5 -8.5v-487q0 -5 -3.5 -8.5t-8.5 -3.5h-92q-5 0 -8.5 3.5zM142 604q-20 20 -20 51t20 51t51 20t50.5 -20t19.5 -51t-20 -51t-50 -20q-31 0 -51 20zM-39 604q-20 20 -20 51t20 51t51 20t50.5 -20
t19.5 -51t-20 -51t-50 -20q-31 0 -51 20z" />
    <glyph glyph-name="eth" unicode="&#xf0;" horiz-adv-x="493" 
d="M442 241q0 -59 -7 -100q-11 -68 -62.5 -108.5t-130.5 -40.5t-130 40t-62 109q-7 35 -7 100t7 100q6 56 44.5 93t94.5 42q11 2 34 2q49 0 79 -18q3 -2 4.5 -1t-0.5 4q-12 36 -42 87q-1 2 -2.5 3t-3.5 0l-85 -23l-4 -1q-8 0 -11 10l-9 33l-1 4q0 8 10 11l62 17q5 2 2 7
q-37 47 -62 74q-4 4 -4 8q0 7 10 7h91q9 0 15 -7l14 -17q30 -38 32 -41q4 -4 7 -2l80 22l4 1q8 0 11 -10l8 -35l1 -4q0 -8 -9 -11l-56 -15q-6 -2 -3 -5q33 -53 52 -107.5t24 -120.5q5 -41 5 -107zM325 239q0 48 -4 80q-5 33 -26 52.5t-53 19.5q-31 0 -52.5 -20t-26.5 -52
q-4 -32 -4 -80q0 -39 5 -81q5 -33 26 -52.5t52 -19.5q32 0 53 20t26 52q4 33 4 81z" />
    <glyph glyph-name="ntilde" unicode="&#xf1;" horiz-adv-x="491" 
d="M165 603q-4 -6 -9 -6q-2 0 -8 4l-31 29q-8 8 -4 16q15 29 38.5 44t51.5 15q17 0 31.5 -5.5t33.5 -17.5q4 -2 13 -7.5t16.5 -8t15.5 -2.5q27 0 42 23q5 6 9 6t8 -4l29 -29q7 -7 3 -16q-14 -28 -38 -42.5t-53 -14.5q-17 0 -28.5 5t-29.5 15q-5 3 -15 8t-16.5 7t-13.5 2
q-27 0 -45 -21zM400 473q41 -46 41 -127v-334q0 -5 -3.5 -8.5t-8.5 -3.5h-92q-5 0 -8.5 3.5t-3.5 8.5v318q0 41 -20.5 65t-55.5 24q-36 0 -57.5 -24.5t-21.5 -65.5v-317q0 -5 -3.5 -8.5t-8.5 -3.5h-92q-5 0 -8.5 3.5t-3.5 8.5v487q0 5 3.5 8.5t8.5 3.5h92q5 0 8.5 -3.5
t3.5 -8.5v-26q0 -3 2 -4t4 2q40 48 110 48q73 0 114 -46z" />
    <glyph glyph-name="ograve" unicode="&#xf2;" horiz-adv-x="488" 
d="M112 35.5q-52 43.5 -63 117.5q-8 48 -8 103q0 57 8 105q11 73 64 115.5t133 42.5q79 0 131 -42.5t63 -114.5q8 -50 8 -105q0 -60 -7 -103q-11 -75 -63 -118.5t-133 -43.5t-133 43.5zM300.5 114q22.5 22 27.5 58q4 52 4 84q0 33 -4 85q-5 36 -27.5 57t-55.5 21
q-34 0 -56 -21t-27 -57q-4 -35 -4 -85q0 -51 4 -84q5 -36 27 -58t56 -22q33 0 55.5 22zM284 583q0 -8 -10 -8h-62q-9 0 -14 8l-72 102q-2 3 -2 7q0 8 10 8h76q10 0 15 -8l57 -103q2 -4 2 -6z" />
    <glyph glyph-name="oacute" unicode="&#xf3;" horiz-adv-x="488" 
d="M112 35.5q-52 43.5 -63 117.5q-8 48 -8 103q0 57 8 105q11 73 64 115.5t133 42.5q79 0 131 -42.5t63 -114.5q8 -50 8 -105q0 -60 -7 -103q-11 -75 -63 -118.5t-133 -43.5t-133 43.5zM300.5 114q22.5 22 27.5 58q4 52 4 84q0 33 -4 85q-5 36 -27.5 57t-55.5 21
q-34 0 -56 -21t-27 -57q-4 -35 -4 -85q0 -51 4 -84q5 -36 27 -58t56 -22q33 0 55.5 22zM188 579q-2 4 1 10l57 103q5 8 15 8h75q7 0 9.5 -4.5t-1.5 -10.5l-71 -102q-5 -8 -14 -8h-62q-7 0 -9 4z" />
    <glyph glyph-name="ocircumflex" unicode="&#xf4;" horiz-adv-x="488" 
d="M112 35.5q-52 43.5 -63 117.5q-8 48 -8 103q0 57 8 105q11 73 64 115.5t133 42.5q79 0 131 -42.5t63 -114.5q8 -50 8 -105q0 -60 -7 -103q-11 -75 -63 -118.5t-133 -43.5t-133 43.5zM300.5 114q22.5 22 27.5 58q4 52 4 84q0 33 -4 85q-5 36 -27.5 57t-55.5 21
q-34 0 -56 -21t-27 -57q-4 -35 -4 -85q0 -51 4 -84q5 -36 27 -58t56 -22q33 0 55.5 22zM106 578.5q-2 4.5 2 10.5l68 103q5 8 14 8h105q9 0 14 -8l71 -103q2 -3 2 -7q0 -8 -10 -8h-71q-10 0 -14 8l-40 65q-2 3 -4 3t-3 -3l-40 -65q-4 -8 -14 -8h-71q-7 0 -9 4.5z" />
    <glyph glyph-name="otilde" unicode="&#xf5;" horiz-adv-x="488" 
d="M112 35.5q-52 43.5 -63 117.5q-8 48 -8 103q0 57 8 105q11 73 64 115.5t133 42.5q79 0 131 -42.5t63 -114.5q8 -50 8 -105q0 -60 -7 -103q-11 -75 -63 -118.5t-133 -43.5t-133 43.5zM300.5 114q22.5 22 27.5 58q4 52 4 84q0 33 -4 85q-5 36 -27.5 57t-55.5 21
q-34 0 -56 -21t-27 -57q-4 -35 -4 -85q0 -51 4 -84q5 -36 27 -58t56 -22q33 0 55.5 22zM282 592q-13 5 -30 15l-16 8t-17 7t-15 2q-28 0 -47 -22q-8 -10 -16 -2l-33 30q-8 8 -3 17q15 28 39 43t53 15q19 0 33 -5.5t35 -17.5q4 -2 13.5 -7.5t17.5 -8t16 -2.5q27 0 44 23
q5 7 10 7q3 0 7 -4l31 -30q4 -4 4 -9t-2 -8q-14 -27 -39 -41.5t-55 -14.5q-17 0 -30 5z" />
    <glyph glyph-name="odieresis" unicode="&#xf6;" horiz-adv-x="488" 
d="M112 35.5q-52 43.5 -63 117.5q-8 48 -8 103q0 57 8 105q11 73 64 115.5t133 42.5q79 0 131 -42.5t63 -114.5q8 -50 8 -105q0 -60 -7 -103q-11 -75 -63 -118.5t-133 -43.5t-133 43.5zM300.5 114q22.5 22 27.5 58q4 52 4 84q0 33 -4 85q-5 36 -27.5 57t-55.5 21
q-34 0 -56 -21t-27 -57q-4 -35 -4 -85q0 -51 4 -84q5 -36 27 -58t56 -22q33 0 55.5 22zM284 604q-20 20 -20 51t20 51t51 20t50.5 -20t19.5 -51t-20 -51t-50 -20q-31 0 -51 20zM103 604q-20 20 -20 51t20 51t51 20t50.5 -20t19.5 -51t-20 -51t-50 -20q-31 0 -51 20z" />
    <glyph glyph-name="divide" unicode="&#xf7;" horiz-adv-x="465" 
d="M187.5 439.5q-18.5 18.5 -18.5 44.5q0 25 18.5 43.5t44.5 18.5t44.5 -18.5t18.5 -43.5q0 -26 -18.5 -44.5t-44.5 -18.5t-44.5 18.5zM33.5 273.5q-3.5 3.5 -3.5 8.5v69q0 5 3.5 8.5t8.5 3.5h382q5 0 8.5 -3.5t3.5 -8.5v-69q0 -5 -3.5 -8.5t-8.5 -3.5h-382q-5 0 -8.5 3.5z
M187.5 112.5q-18.5 18.5 -18.5 44.5q0 25 18.5 43.5t44.5 18.5t44.5 -18.5t18.5 -43.5q0 -26 -18.5 -44.5t-44.5 -18.5t-44.5 18.5z" />
    <glyph glyph-name="oslash" unicode="&#xf8;" horiz-adv-x="497" 
d="M412 432q18 -32 24 -70q8 -50 8 -105q0 -60 -7 -103q-11 -75 -63 -118.5t-133 -43.5q-45 0 -84 14q-4 1 -6 -2l-28 -45q-6 -11 -16 -4l-62 43q-6 5 -6 9t3 8l32 52q2 4 0 7q-23 35 -29 79q-8 48 -8 103q0 57 8 105q11 73 64 115.5t133 42.5q51 0 87 -16q4 -1 6 2l31 49
q7 10 16 4l62 -44q9 -8 3 -17l-35 -59q-1 -3 0 -6zM154 215q1 -4 3 -4.5t4 2.5l115 193q3 4 -2 6q-14 7 -33 7q-34 0 -56 -21t-27 -57q-4 -35 -4 -85v-41zM328 256v30q-1 4 -3 4.5t-4 -2.5l-110 -184q-3 -5 2 -7q11 -5 28 -5q33 0 55.5 22t27.5 58q4 52 4 84z" />
    <glyph glyph-name="ugrave" unicode="&#xf9;" horiz-adv-x="491" 
d="M323.5 507.5q3.5 3.5 8.5 3.5h92q5 0 8.5 -3.5t3.5 -8.5v-487q0 -5 -3.5 -8.5t-8.5 -3.5h-92q-5 0 -8.5 3.5t-3.5 8.5v27q0 3 -2 3.5t-4 -2.5q-34 -47 -107 -47q-68 0 -113 40.5t-45 118.5v347q0 5 3.5 8.5t8.5 3.5h92q5 0 8.5 -3.5t3.5 -8.5v-318q0 -42 19.5 -65.5
t56.5 -23.5t58 24.5t21 66.5v316q0 5 3.5 8.5zM284 583q0 -8 -10 -8h-62q-9 0 -14 8l-72 102q-2 3 -2 7q0 8 10 8h76q10 0 15 -8l57 -103q2 -4 2 -6z" />
    <glyph glyph-name="uacute" unicode="&#xfa;" horiz-adv-x="491" 
d="M323.5 507.5q3.5 3.5 8.5 3.5h92q5 0 8.5 -3.5t3.5 -8.5v-487q0 -5 -3.5 -8.5t-8.5 -3.5h-92q-5 0 -8.5 3.5t-3.5 8.5v27q0 3 -2 3.5t-4 -2.5q-34 -47 -107 -47q-68 0 -113 40.5t-45 118.5v347q0 5 3.5 8.5t8.5 3.5h92q5 0 8.5 -3.5t3.5 -8.5v-318q0 -42 19.5 -65.5
t56.5 -23.5t58 24.5t21 66.5v316q0 5 3.5 8.5zM187 579q-2 4 1 10l57 103q5 8 15 8h75q7 0 9.5 -4.5t-1.5 -10.5l-71 -102q-5 -8 -14 -8h-62q-7 0 -9 4z" />
    <glyph glyph-name="ucircumflex" unicode="&#xfb;" horiz-adv-x="491" 
d="M323.5 507.5q3.5 3.5 8.5 3.5h92q5 0 8.5 -3.5t3.5 -8.5v-487q0 -5 -3.5 -8.5t-8.5 -3.5h-92q-5 0 -8.5 3.5t-3.5 8.5v27q0 3 -2 3.5t-4 -2.5q-34 -47 -107 -47q-68 0 -113 40.5t-45 118.5v347q0 5 3.5 8.5t8.5 3.5h92q5 0 8.5 -3.5t3.5 -8.5v-318q0 -42 19.5 -65.5
t56.5 -23.5t58 24.5t21 66.5v316q0 5 3.5 8.5zM106 578.5q-2 4.5 2 10.5l68 103q5 8 14 8h105q9 0 14 -8l71 -103q2 -3 2 -7q0 -8 -10 -8h-71q-10 0 -14 8l-40 65q-2 3 -4 3t-3 -3l-40 -65q-4 -8 -14 -8h-71q-7 0 -9 4.5z" />
    <glyph glyph-name="udieresis" unicode="&#xfc;" horiz-adv-x="491" 
d="M323.5 507.5q3.5 3.5 8.5 3.5h92q5 0 8.5 -3.5t3.5 -8.5v-487q0 -5 -3.5 -8.5t-8.5 -3.5h-92q-5 0 -8.5 3.5t-3.5 8.5v27q0 3 -2 3.5t-4 -2.5q-34 -47 -107 -47q-68 0 -113 40.5t-45 118.5v347q0 5 3.5 8.5t8.5 3.5h92q5 0 8.5 -3.5t3.5 -8.5v-318q0 -42 19.5 -65.5
t56.5 -23.5t58 24.5t21 66.5v316q0 5 3.5 8.5zM283 604q-20 20 -20 51t20 51t51 20t50.5 -20t19.5 -51t-20 -51t-50 -20q-31 0 -51 20zM102 604q-20 20 -20 51t20 51t51 20t50.5 -20t19.5 -51t-20 -51t-50 -20q-31 0 -51 20z" />
    <glyph glyph-name="yacute" unicode="&#xfd;" horiz-adv-x="446" 
d="M42 -195.5q-2 3.5 -2 8.5v72q0 12 11 12q37 1 58 8.5t34 29t21 62.5q1 2 0 6l-145 495l-1 4q0 10 11 10h99q10 0 13 -10l80 -342q1 -4 3 -4t3 4l80 341q3 11 13 11l97 -1q6 0 8.5 -3.5t1.5 -9.5l-155 -526q-22 -71 -44.5 -106t-62 -50t-112.5 -15h-6q-3 0 -5 3.5z
M166 583q-2 4 1 10l57 103q5 8 15 8h75q7 0 9.5 -4.5t-1.5 -10.5l-71 -102q-5 -8 -14 -8h-62q-7 0 -9 4z" />
    <glyph glyph-name="thorn" unicode="&#xfe;" horiz-adv-x="490" 
d="M448 256q0 -80 -6 -109q-9 -71 -51.5 -113t-109.5 -42q-69 0 -107 53q-2 3 -4 2t-2 -4v-231q0 -5 -3.5 -8.5t-8.5 -3.5h-92q-5 0 -8.5 3.5t-3.5 8.5v876q0 5 3.5 8.5t8.5 3.5h92q5 0 8.5 -3.5t3.5 -8.5v-217q0 -3 2 -4t4 2q35 50 105 50q68 0 110 -40.5t51 -108.5
q8 -36 8 -114zM329 256q0 50 -5 92q-5 31 -26 51t-53 20q-31 0 -51.5 -19.5t-25.5 -51.5v-184q4 -32 24.5 -52t52.5 -20t53.5 20t25.5 52q5 42 5 92z" />
    <glyph glyph-name="ydieresis" unicode="&#xff;" horiz-adv-x="446" 
d="M42 -195.5q-2 3.5 -2 8.5v72q0 12 11 12q37 1 58 8.5t34 29t21 62.5q1 2 0 6l-145 495l-1 4q0 10 11 10h99q10 0 13 -10l80 -342q1 -4 3 -4t3 4l80 341q3 11 13 11l97 -1q6 0 8.5 -3.5t1.5 -9.5l-155 -526q-22 -71 -44.5 -106t-62 -50t-112.5 -15h-6q-3 0 -5 3.5z
M262 608q-20 20 -20 51t20 51t51 20t50.5 -20t19.5 -51t-20 -51t-50 -20q-31 0 -51 20zM81 608q-20 20 -20 51t20 51t51 20t50.5 -20t19.5 -51t-20 -51t-50 -20q-31 0 -51 20z" />
    <glyph glyph-name="Amacron" unicode="&#x100;" horiz-adv-x="552" 
d="M409 10l-26 107q-1 4 -5 4h-206q-4 0 -5 -4l-25 -107q-3 -10 -14 -10h-95q-13 0 -10 13l182 677q3 10 14 10h114q11 0 14 -10l182 -677l1 -4q0 -9 -11 -9h-96q-11 0 -14 10zM192 213.5q2 -1.5 4 -1.5h158q2 0 4 1.5t1 4.5l-82 328q-1 3 -3 3t-3 -3l-80 -328q-1 -3 1 -4.5
zM152.5 777.5q-3.5 3.5 -3.5 8.5v56q0 5 3.5 8.5t8.5 3.5h225q5 0 8.5 -3.5t3.5 -8.5v-56q0 -5 -3.5 -8.5t-8.5 -3.5h-225q-5 0 -8.5 3.5z" />
    <glyph glyph-name="amacron" unicode="&#x101;" horiz-adv-x="477" 
d="M339 497.5q44 -21.5 68.5 -59.5t24.5 -87v-339q0 -5 -3.5 -8.5t-8.5 -3.5h-92q-5 0 -8.5 3.5t-3.5 8.5v25q0 3 -2 4t-4 -1q-42 -48 -121 -48q-66 0 -112 35.5t-46 115.5q0 84 53.5 125t147.5 41h79q5 0 5 5v25q0 37 -20.5 58.5t-56.5 21.5q-29 0 -47.5 -13.5t-23.5 -36.5
q-3 -11 -14 -11l-97 6q-5 0 -8.5 3.5t-2.5 7.5q6 64 59.5 104t132.5 40q57 0 101 -21.5zM287 108.5q29 22.5 29 59.5v52q0 5 -5 5h-67q-44 0 -69.5 -19t-25.5 -55q0 -32 19.5 -48.5t50.5 -16.5q39 0 68 22.5zM116.5 588.5q-3.5 3.5 -3.5 8.5v56q0 5 3.5 8.5t8.5 3.5h225
q5 0 8.5 -3.5t3.5 -8.5v-56q0 -5 -3.5 -8.5t-8.5 -3.5h-225q-5 0 -8.5 3.5z" />
    <glyph glyph-name="Abreve" unicode="&#x102;" horiz-adv-x="552" 
d="M409 10l-26 107q-1 4 -5 4h-206q-4 0 -5 -4l-25 -107q-3 -10 -14 -10h-95q-13 0 -10 13l182 677q3 10 14 10h114q11 0 14 -10l182 -677l1 -4q0 -9 -11 -9h-96q-11 0 -14 10zM192 213.5q2 -1.5 4 -1.5h158q2 0 4 1.5t1 4.5l-82 328q-1 3 -3 3t-3 -3l-80 -328q-1 -3 1 -4.5
zM186.5 773.5q-35.5 29.5 -40.5 76.5v2q0 10 11 10h46q10 0 12 -11q4 -22 20.5 -36t39.5 -14t39.5 14t20.5 36q2 11 12 11h46q12 0 12 -11q-5 -47 -40.5 -77t-89.5 -30q-53 0 -88.5 29.5z" />
    <glyph glyph-name="abreve" unicode="&#x103;" horiz-adv-x="477" 
d="M339 497.5q44 -21.5 68.5 -59.5t24.5 -87v-339q0 -5 -3.5 -8.5t-8.5 -3.5h-92q-5 0 -8.5 3.5t-3.5 8.5v25q0 3 -2 4t-4 -1q-42 -48 -121 -48q-66 0 -112 35.5t-46 115.5q0 84 53.5 125t147.5 41h79q5 0 5 5v25q0 37 -20.5 58.5t-56.5 21.5q-29 0 -47.5 -13.5t-23.5 -36.5
q-3 -11 -14 -11l-97 6q-5 0 -8.5 3.5t-2.5 7.5q6 64 59.5 104t132.5 40q57 0 101 -21.5zM287 108.5q29 22.5 29 59.5v52q0 5 -5 5h-67q-44 0 -69.5 -19t-25.5 -55q0 -32 19.5 -48.5t50.5 -16.5q39 0 68 22.5zM150.5 585.5q-35.5 29.5 -40.5 76.5v2q0 10 11 10h46
q10 0 12 -11q4 -22 20.5 -36t39.5 -14t39.5 14t20.5 36q2 11 12 11h46q12 0 12 -11q-5 -47 -40.5 -77t-89.5 -30q-53 0 -88.5 29.5z" />
    <glyph glyph-name="Aogonek" unicode="&#x104;" horiz-adv-x="552" 
d="M409 10l-26 107q-1 4 -5 4h-206q-4 0 -5 -4l-25 -107q-3 -10 -14 -10h-95q-13 0 -10 13l182 677q3 10 14 10h114q11 0 14 -10l182 -677l1 -4q0 -9 -11 -9h-96q-11 0 -14 10zM192 213.5q2 -1.5 4 -1.5h158q2 0 4 1.5t1 4.5l-82 328q-1 3 -3 3t-3 -3l-80 -328q-1 -3 1 -4.5
zM542 -171q0 -8 -9 -12q-21 -7 -46 -7q-38 0 -64.5 20t-26.5 67q0 52 51 97q6 6 15 6h49q10 0 10 -6q0 -5 -5 -9q-43 -38 -43 -71q0 -19 10 -28.5t25 -9.5q4 0 14 2l6 1q8 0 9 -10l5 -37v-3z" />
    <glyph glyph-name="aogonek" unicode="&#x105;" horiz-adv-x="477" 
d="M426 -121q8 0 9 -10l5 -37v-3q0 -8 -9 -12q-21 -7 -46 -7q-38 0 -64.5 20t-26.5 66q0 51 51 98q2 2 1.5 4t-3.5 2h-15q-5 0 -8.5 3.5t-3.5 8.5v25q0 3 -2 4t-4 -1q-42 -48 -121 -48q-66 0 -112 35.5t-46 115.5q0 84 53.5 125t147.5 41h79q5 0 5 5v25q0 37 -20.5 58.5
t-56.5 21.5q-29 0 -47.5 -13.5t-23.5 -36.5q-3 -11 -14 -11l-97 6q-5 0 -8.5 3.5t-2.5 9.5q7 63 60 102.5t132 39.5q57 0 101 -21.5t68.5 -59.5t24.5 -87v-342q0 -9 -7 -15q-54 -43 -54 -80q0 -19 10 -28.5t26 -9.5q3 0 13 2zM287 108.5q29 22.5 29 59.5v52q0 5 -5 5h-67
q-44 0 -69.5 -19t-25.5 -55q0 -32 19.5 -48.5t50.5 -16.5q39 0 68 22.5z" />
    <glyph glyph-name="Cacute" unicode="&#x106;" horiz-adv-x="533" 
d="M154 18.5q-50 26.5 -77.5 74.5t-27.5 111v294q0 63 27.5 110.5t77.5 73.5t115 26t115 -25.5t77.5 -72t27.5 -108.5v-6q0 -5 -3.5 -9t-8.5 -4l-93 -4q-12 0 -12 12v12q0 47 -28.5 76t-74.5 29q-47 0 -75.5 -29t-28.5 -76v-307q0 -47 28.5 -75.5t75.5 -28.5q46 0 74.5 28.5
t28.5 75.5v13q0 11 12 11l93 -4q5 0 8.5 -3.5t3.5 -8.5v-4q0 -62 -27.5 -109.5t-77.5 -73t-115 -25.5t-115 26.5zM212 768q-2 4 1 10l57 103q5 8 15 8h75q7 0 9.5 -4.5t-1.5 -10.5l-71 -102q-5 -8 -14 -8h-62q-7 0 -9 4z" />
    <glyph glyph-name="cacute" unicode="&#x107;" horiz-adv-x="477" 
d="M113.5 33.5q-51.5 41.5 -62.5 113.5q-8 41 -8 110q0 63 8 109q11 70 63 111.5t132 41.5q77 0 130 -39.5t64 -103.5q1 -4 2 -10t1 -15v-2q0 -9 -11 -11l-91 -9h-2q-9 0 -11 11q0 7 -2 15q-5 27 -26.5 45.5t-54.5 18.5t-54.5 -20t-26.5 -53q-5 -38 -5 -90q0 -57 6 -92
q5 -33 26 -52.5t54 -19.5q34 0 55.5 19.5t25.5 47.5l1 10q1 5 5 8.5t9 2.5l90 -8q12 -2 12 -13l-2 -17q-9 -68 -62 -109t-133 -41q-81 0 -132.5 41.5zM188 579q-2 4 1 10l57 103q5 8 15 8h75q7 0 9.5 -4.5t-1.5 -10.5l-71 -102q-5 -8 -14 -8h-62q-7 0 -9 4z" />
    <glyph glyph-name="Ccircumflex" unicode="&#x108;" horiz-adv-x="533" 
d="M154 18.5q-50 26.5 -77.5 74.5t-27.5 111v294q0 63 27.5 110.5t77.5 73.5t115 26t115 -25.5t77.5 -72t27.5 -108.5v-6q0 -5 -3.5 -9t-8.5 -4l-93 -4q-12 0 -12 12v12q0 47 -28.5 76t-74.5 29q-47 0 -75.5 -29t-28.5 -76v-307q0 -47 28.5 -75.5t75.5 -28.5q46 0 74.5 28.5
t28.5 75.5v13q0 11 12 11l93 -4q5 0 8.5 -3.5t3.5 -8.5v-4q0 -62 -27.5 -109.5t-77.5 -73t-115 -25.5t-115 26.5zM131 767.5q-2 4.5 2 10.5l68 103q5 8 14 8h105q9 0 14 -8l71 -103q2 -3 2 -7q0 -8 -10 -8h-71q-10 0 -14 8l-40 65q-2 3 -4 3t-3 -3l-40 -65q-4 -8 -14 -8h-71
q-7 0 -9 4.5z" />
    <glyph glyph-name="ccircumflex" unicode="&#x109;" horiz-adv-x="477" 
d="M113.5 33.5q-51.5 41.5 -62.5 113.5q-8 41 -8 110q0 63 8 109q11 70 63 111.5t132 41.5q77 0 130 -39.5t64 -103.5q1 -4 2 -10t1 -15v-2q0 -9 -11 -11l-91 -9h-2q-9 0 -11 11q0 7 -2 15q-5 27 -26.5 45.5t-54.5 18.5t-54.5 -20t-26.5 -53q-5 -38 -5 -90q0 -57 6 -92
q5 -33 26 -52.5t54 -19.5q34 0 55.5 19.5t25.5 47.5l1 10q1 5 5 8.5t9 2.5l90 -8q12 -2 12 -13l-2 -17q-9 -68 -62 -109t-133 -41q-81 0 -132.5 41.5zM106 578.5q-2 4.5 2 10.5l68 103q5 8 14 8h105q9 0 14 -8l71 -103q2 -3 2 -7q0 -8 -10 -8h-71q-10 0 -14 8l-40 65
q-2 3 -4 3t-3 -3l-40 -65q-4 -8 -14 -8h-71q-7 0 -9 4.5z" />
    <glyph glyph-name="Cdotaccent" unicode="&#x10a;" horiz-adv-x="533" 
d="M154 18.5q-50 26.5 -77.5 74.5t-27.5 111v294q0 63 27.5 110.5t77.5 73.5t115 26t115 -25.5t77.5 -72t27.5 -108.5v-6q0 -5 -3.5 -9t-8.5 -4l-93 -4q-12 0 -12 12v12q0 47 -28.5 76t-74.5 29q-47 0 -75.5 -29t-28.5 -76v-307q0 -47 28.5 -75.5t75.5 -28.5q46 0 74.5 28.5
t28.5 75.5v13q0 11 12 11l93 -4q5 0 8.5 -3.5t3.5 -8.5v-4q0 -62 -27.5 -109.5t-77.5 -73t-115 -25.5t-115 26.5zM218 790q-20 20 -20 51t20 51t51 20t50.5 -20t19.5 -51t-20 -51t-50 -20q-31 0 -51 20z" />
    <glyph glyph-name="cdotaccent" unicode="&#x10b;" horiz-adv-x="477" 
d="M113.5 33.5q-51.5 41.5 -62.5 113.5q-8 41 -8 110q0 63 8 109q11 70 63 111.5t132 41.5q77 0 130 -39.5t64 -103.5q1 -4 2 -10t1 -15v-2q0 -9 -11 -11l-91 -9h-2q-9 0 -11 11q0 7 -2 15q-5 27 -26.5 45.5t-54.5 18.5t-54.5 -20t-26.5 -53q-5 -38 -5 -90q0 -57 6 -92
q5 -33 26 -52.5t54 -19.5q34 0 55.5 19.5t25.5 47.5l1 10q1 5 5 8.5t9 2.5l90 -8q12 -2 12 -13l-2 -17q-9 -68 -62 -109t-133 -41q-81 0 -132.5 41.5zM194 601q-20 20 -20 51t20 51t51 20t50.5 -20t19.5 -51t-20 -51t-50 -20q-31 0 -51 20z" />
    <glyph glyph-name="Ccaron" unicode="&#x10c;" horiz-adv-x="533" 
d="M154 18.5q-50 26.5 -77.5 74.5t-27.5 111v294q0 63 27.5 110.5t77.5 73.5t115 26t115 -25.5t77.5 -72t27.5 -108.5v-6q0 -5 -3.5 -9t-8.5 -4l-93 -4q-12 0 -12 12v12q0 47 -28.5 76t-74.5 29q-47 0 -75.5 -29t-28.5 -76v-307q0 -47 28.5 -75.5t75.5 -28.5q46 0 74.5 28.5
t28.5 75.5v13q0 11 12 11l93 -4q5 0 8.5 -3.5t3.5 -8.5v-4q0 -62 -27.5 -109.5t-77.5 -73t-115 -25.5t-115 26.5zM135 881q0 8 9 8h71q10 0 14 -8l40 -65q2 -3 4 -3t3 3l40 65q4 8 14 8h71q7 0 9.5 -4.5t-1.5 -10.5l-71 -103q-5 -8 -14 -8h-105q-9 0 -14 8l-68 103
q-2 3 -2 7z" />
    <glyph glyph-name="ccaron" unicode="&#x10d;" horiz-adv-x="477" 
d="M113.5 33.5q-51.5 41.5 -62.5 113.5q-8 41 -8 110q0 63 8 109q11 70 63 111.5t132 41.5q77 0 130 -39.5t64 -103.5q1 -4 2 -10t1 -15v-2q0 -9 -11 -11l-91 -9h-2q-9 0 -11 11q0 7 -2 15q-5 27 -26.5 45.5t-54.5 18.5t-54.5 -20t-26.5 -53q-5 -38 -5 -90q0 -57 6 -92
q5 -33 26 -52.5t54 -19.5q34 0 55.5 19.5t25.5 47.5l1 10q1 5 5 8.5t9 2.5l90 -8q12 -2 12 -13l-2 -17q-9 -68 -62 -109t-133 -41q-81 0 -132.5 41.5zM111 692q0 8 9 8h71q10 0 14 -8l40 -65q2 -3 4 -3t3 3l40 65q4 8 14 8h71q7 0 9.5 -4.5t-1.5 -10.5l-71 -103
q-5 -8 -14 -8h-105q-9 0 -14 8l-68 103q-2 3 -2 7z" />
    <glyph glyph-name="Dcaron" unicode="&#x10e;" horiz-adv-x="545" 
d="M67.5 3.5q-3.5 3.5 -3.5 8.5v676q0 5 3.5 8.5t8.5 3.5h207q97 0 155.5 -54t58.5 -144v-304q0 -90 -58.5 -144t-155.5 -54h-207q-5 0 -8.5 3.5zM185 100l99 1q43 0 69 29.5t28 80.5v278q0 51 -26.5 81t-70.5 30h-99q-5 0 -5 -5v-490q0 -5 5 -5zM133 879q0 8 9 8h71
q10 0 14 -8l40 -65q2 -3 4 -3t3 3l40 65q4 8 14 8h71q7 0 9.5 -4.5t-1.5 -10.5l-71 -103q-5 -8 -14 -8h-105q-9 0 -14 8l-68 103q-2 3 -2 7z" />
    <glyph glyph-name="dcaron" unicode="&#x10f;" horiz-adv-x="498" 
d="M330.5 696.5q3.5 3.5 8.5 3.5h92q5 0 8.5 -3.5t3.5 -8.5v-676q0 -5 -3.5 -8.5t-8.5 -3.5h-92q-5 0 -8.5 3.5t-3.5 8.5v26q0 3 -2 4t-4 -2q-38 -48 -109 -48q-122 0 -156 152q-11 46 -11 113q0 66 9 110q31 152 161 152q72 0 106 -46q2 -3 4 -2t2 4v213q0 5 3.5 8.5z
M326 256q0 68 -11 103q-16 60 -68 60q-53 0 -73 -59q-13 -38 -13 -104q0 -61 11 -100q18 -64 74 -64q53 0 70 63q10 35 10 101zM483 579q-2 4 1 10l57 103q5 8 15 8h75q7 0 9.5 -4.5t-1.5 -10.5l-71 -102q-5 -8 -14 -8h-62q-7 0 -9 4z" />
    <glyph glyph-name="Dcroat" unicode="&#x110;" horiz-adv-x="591" 
d="M483.5 646q58.5 -54 58.5 -144v-304q0 -90 -58.5 -144t-155.5 -54h-207q-5 0 -8.5 3.5t-3.5 8.5v310q0 5 -5 5h-28q-5 0 -8.5 3.5t-3.5 8.5v50q0 5 3.5 8.5t8.5 3.5h28q5 0 5 5v282q0 5 3.5 8.5t8.5 3.5h207q97 0 155.5 -54zM426 489q0 51 -26 81t-71 30h-99q-5 0 -5 -5
v-189q0 -5 5 -5h71q5 0 8.5 -3.5t3.5 -8.5v-50q0 -5 -3.5 -8.5t-8.5 -3.5h-71q-5 0 -5 -5v-217q0 -5 5 -5l100 1q43 0 69 29.5t27 80.5v278z" />
    <glyph glyph-name="dcroat" unicode="&#x111;" horiz-adv-x="498" 
d="M490.5 629.5q3.5 -3.5 3.5 -8.5v-48q0 -5 -3.5 -8.5t-8.5 -3.5h-34q-5 0 -5 -5v-544q0 -5 -3.5 -8.5t-8.5 -3.5h-92q-5 0 -8.5 3.5t-3.5 8.5v26q0 3 -2 4t-4 -2q-38 -48 -109 -48q-122 0 -156 152q-11 46 -11 113q0 66 9 110q31 152 161 152q72 0 106 -46q2 -3 4 -2t2 4
v81q0 5 -5 5h-126q-5 0 -8.5 3.5t-3.5 8.5v48q0 5 3.5 8.5t8.5 3.5h126q5 0 5 5v50q0 5 3.5 8.5t8.5 3.5h92q5 0 8.5 -3.5t3.5 -8.5v-50q0 -5 5 -5h34q5 0 8.5 -3.5zM326 256q0 68 -11 103q-16 60 -68 60q-53 0 -73 -59q-13 -38 -13 -104q0 -61 11 -100q18 -64 74 -64
q53 0 70 63q10 35 10 101z" />
    <glyph glyph-name="Emacron" unicode="&#x112;" horiz-adv-x="513" 
d="M471.5 603.5q-3.5 -3.5 -8.5 -3.5h-278q-5 0 -5 -5v-188q0 -5 5 -5h178q5 0 8.5 -3.5t3.5 -8.5v-76q0 -5 -3.5 -8.5t-8.5 -3.5h-178q-5 0 -5 -5v-192q0 -5 5 -5h278q5 0 8.5 -3.5t3.5 -8.5v-76q0 -5 -3.5 -8.5t-8.5 -3.5h-387q-5 0 -8.5 3.5t-3.5 8.5v676q0 5 3.5 8.5
t8.5 3.5h387q5 0 8.5 -3.5t3.5 -8.5v-76q0 -5 -3.5 -8.5zM145.5 777.5q-3.5 3.5 -3.5 8.5v56q0 5 3.5 8.5t8.5 3.5h225q5 0 8.5 -3.5t3.5 -8.5v-56q0 -5 -3.5 -8.5t-8.5 -3.5h-225q-5 0 -8.5 3.5z" />
    <glyph glyph-name="emacron" unicode="&#x113;" horiz-adv-x="483" 
d="M446 265l-1 -43q0 -12 -12 -12h-268q-5 0 -5 -5q2 -28 4 -41q5 -33 28 -53t58 -20q30 1 50.5 15t31.5 39q5 11 15 8l82 -17q12 -4 8 -15q-20 -62 -68.5 -95.5t-118.5 -33.5q-83 0 -133 40t-65 111q-5 27 -6.5 57t-1.5 80q0 52 5 79q10 73 62 116.5t132 43.5
q87 0 140.5 -49t59.5 -129q3 -33 3 -76zM189.5 399.5q-21.5 -19.5 -26.5 -52.5q-3 -22 -3 -50q0 -5 5 -5h159q5 0 5 5q-2 34 -4 49q-4 33 -26 53t-55 20t-54.5 -19.5zM119.5 606.5q-3.5 3.5 -3.5 8.5v56q0 5 3.5 8.5t8.5 3.5h225q5 0 8.5 -3.5t3.5 -8.5v-56q0 -5 -3.5 -8.5
t-8.5 -3.5h-225q-5 0 -8.5 3.5z" />
    <glyph glyph-name="Edotaccent" unicode="&#x116;" horiz-adv-x="513" 
d="M471.5 603.5q-3.5 -3.5 -8.5 -3.5h-278q-5 0 -5 -5v-188q0 -5 5 -5h178q5 0 8.5 -3.5t3.5 -8.5v-76q0 -5 -3.5 -8.5t-8.5 -3.5h-178q-5 0 -5 -5v-192q0 -5 5 -5h278q5 0 8.5 -3.5t3.5 -8.5v-76q0 -5 -3.5 -8.5t-8.5 -3.5h-387q-5 0 -8.5 3.5t-3.5 8.5v676q0 5 3.5 8.5
t8.5 3.5h387q5 0 8.5 -3.5t3.5 -8.5v-76q0 -5 -3.5 -8.5zM217 790q-20 20 -20 51t20 51t51 20t50.5 -20t19.5 -51t-20 -51t-50 -20q-31 0 -51 20z" />
    <glyph glyph-name="edotaccent" unicode="&#x117;" horiz-adv-x="483" 
d="M446 265l-1 -43q0 -12 -12 -12h-268q-5 0 -5 -5q2 -28 4 -41q5 -33 28 -53t58 -20q30 1 50.5 15t31.5 39q5 11 15 8l82 -17q12 -4 8 -15q-20 -62 -68.5 -95.5t-118.5 -33.5q-83 0 -133 40t-65 111q-5 27 -6.5 57t-1.5 80q0 52 5 79q10 73 62 116.5t132 43.5
q87 0 140.5 -49t59.5 -129q3 -33 3 -76zM189.5 399.5q-21.5 -19.5 -26.5 -52.5q-3 -22 -3 -50q0 -5 5 -5h159q5 0 5 5q-2 34 -4 49q-4 33 -26 53t-55 20t-54.5 -19.5zM191 601q-20 20 -20 51t20 51t51 20t50.5 -20t19.5 -51t-20 -51t-50 -20q-31 0 -51 20z" />
    <glyph glyph-name="Eogonek" unicode="&#x118;" horiz-adv-x="513" 
d="M471.5 603.5q-3.5 -3.5 -8.5 -3.5h-278q-5 0 -5 -5v-188q0 -5 5 -5h178q5 0 8.5 -3.5t3.5 -8.5v-76q0 -5 -3.5 -8.5t-8.5 -3.5h-178q-5 0 -5 -5v-192q0 -5 5 -5h278q5 0 8.5 -3.5t3.5 -8.5v-76q0 -5 -3.5 -8.5t-8.5 -3.5h-152q-3 0 -7 -2q-46 -41 -46 -75q0 -6 1 -9
q4 -14 13 -21t22 -7q4 0 14 2l5 1q8 0 9 -10l5 -37v-4q0 -7 -8 -11q-23 -7 -47 -7q-32 0 -56 14.5t-32 47.5q-3 12 -3 25q0 46 41 87q2 2 1 4t-4 2h-143q-5 0 -8.5 3.5t-3.5 8.5v676q0 5 3.5 8.5t8.5 3.5h387q5 0 8.5 -3.5t3.5 -8.5v-76q0 -5 -3.5 -8.5z" />
    <glyph glyph-name="eogonek" unicode="&#x119;" horiz-adv-x="483" 
d="M446 265l-1 -43q0 -12 -12 -12h-268q-5 0 -5 -5q2 -28 4 -41q5 -33 28 -53t58 -20q30 1 50.5 15t31.5 39q5 11 15 8l82 -17q12 -4 8 -15q-18 -53 -56.5 -86t-94.5 -41q-2 0 -6 -2q-43 -40 -43 -74q0 -18 10.5 -27.5t25.5 -9.5q5 0 13 2l6 1q8 0 9 -10l5 -37v-3
q0 -8 -9 -11q-23 -7 -47 -7q-38 0 -64 20t-26 65q0 47 42 89q4 4 -2 6q-61 11 -98.5 49t-49.5 98q-5 27 -6.5 57t-1.5 80q0 52 5 79q10 73 62 116.5t132 43.5q87 0 140.5 -49t59.5 -129q3 -33 3 -76zM189.5 399.5q-21.5 -19.5 -26.5 -52.5q-3 -22 -3 -50q0 -5 5 -5h159
q5 0 5 5q-2 34 -4 49q-4 33 -26 53t-55 20t-54.5 -19.5z" />
    <glyph glyph-name="Ecaron" unicode="&#x11a;" horiz-adv-x="513" 
d="M471.5 603.5q-3.5 -3.5 -8.5 -3.5h-278q-5 0 -5 -5v-188q0 -5 5 -5h178q5 0 8.5 -3.5t3.5 -8.5v-76q0 -5 -3.5 -8.5t-8.5 -3.5h-178q-5 0 -5 -5v-192q0 -5 5 -5h278q5 0 8.5 -3.5t3.5 -8.5v-76q0 -5 -3.5 -8.5t-8.5 -3.5h-387q-5 0 -8.5 3.5t-3.5 8.5v676q0 5 3.5 8.5
t8.5 3.5h387q5 0 8.5 -3.5t3.5 -8.5v-76q0 -5 -3.5 -8.5zM134 881q0 8 9 8h71q10 0 14 -8l40 -65q2 -3 4 -3t3 3l40 65q4 8 14 8h71q7 0 9.5 -4.5t-1.5 -10.5l-71 -103q-5 -8 -14 -8h-105q-9 0 -14 8l-68 103q-2 3 -2 7z" />
    <glyph glyph-name="ecaron" unicode="&#x11b;" horiz-adv-x="483" 
d="M446 265l-1 -43q0 -12 -12 -12h-268q-5 0 -5 -5q2 -28 4 -41q5 -33 28 -53t58 -20q30 1 50.5 15t31.5 39q5 11 15 8l82 -17q12 -4 8 -15q-20 -62 -68.5 -95.5t-118.5 -33.5q-83 0 -133 40t-65 111q-5 27 -6.5 57t-1.5 80q0 52 5 79q10 73 62 116.5t132 43.5
q87 0 140.5 -49t59.5 -129q3 -33 3 -76zM189.5 399.5q-21.5 -19.5 -26.5 -52.5q-3 -22 -3 -50q0 -5 5 -5h159q5 0 5 5q-2 34 -4 49q-4 33 -26 53t-55 20t-54.5 -19.5zM107 691q0 8 9 8h71q10 0 14 -8l40 -65q2 -3 4 -3t3 3l40 65q4 8 14 8h71q7 0 9.5 -4.5t-1.5 -10.5
l-71 -103q-5 -8 -14 -8h-105q-9 0 -14 8l-68 103q-2 3 -2 7z" />
    <glyph glyph-name="Gcircumflex" unicode="&#x11c;" horiz-adv-x="537" 
d="M153.5 18q-49.5 26 -77 73.5t-27.5 109.5v298q0 62 27.5 109.5t77 73.5t114.5 26t115 -25.5t77.5 -71.5t27.5 -105v-23q0 -5 -3.5 -8.5t-8.5 -3.5h-92q-5 0 -8.5 3.5t-3.5 8.5v23q0 45 -28.5 73.5t-75.5 28.5q-46 0 -74.5 -29.5t-28.5 -77.5v-302q0 -48 29.5 -77.5
t76.5 -29.5q46 0 73.5 26.5t27.5 72.5v79q0 5 -5 5h-91q-5 0 -8.5 3.5t-3.5 8.5v73q0 5 3.5 8.5t8.5 3.5h200q5 0 8.5 -3.5t3.5 -8.5v-156q0 -99 -60 -155.5t-160 -56.5q-65 0 -114.5 26zM130 769.5q-2 4.5 2 10.5l68 103q5 8 14 8h105q9 0 14 -8l71 -103q2 -3 2 -7
q0 -8 -10 -8h-71q-10 0 -14 8l-40 65q-2 3 -4 3t-3 -3l-40 -65q-4 -8 -14 -8h-71q-7 0 -9 4.5z" />
    <glyph glyph-name="gcircumflex" unicode="&#x11d;" horiz-adv-x="490" 
d="M328.5 507.5q3.5 3.5 8.5 3.5h92q5 0 8.5 -3.5t3.5 -8.5v-472q0 -116 -63 -172.5t-182 -56.5q-14 0 -44 2q-12 1 -12 13l3 80q0 12 13 11q10 -1 30 -1q75 0 107 31t32 100v9q0 3 -2 4t-4 -2q-38 -44 -105 -44q-65 0 -110 38.5t-56 109.5q-6 30 -6 108q0 83 8 114
q10 68 52 108t108 40q69 0 109 -45q2 -2 4 -1.5t2 3.5v23q0 5 3.5 8.5zM325 257q0 57 -4 90q-4 32 -25 52t-53 20t-53 -20t-26 -52q-6 -37 -6 -90q0 -49 5 -87q5 -32 27 -52t54 -20q33 0 53.5 20t24.5 52q3 38 3 87zM113 578.5q-2 4.5 2 10.5l68 103q5 8 14 8h105q9 0 14 -8
l71 -103q2 -3 2 -7q0 -8 -10 -8h-71q-10 0 -14 8l-40 65q-2 3 -4 3t-3 -3l-40 -65q-4 -8 -14 -8h-71q-7 0 -9 4.5z" />
    <glyph glyph-name="Gbreve" unicode="&#x11e;" horiz-adv-x="537" 
d="M153.5 18q-49.5 26 -77 73.5t-27.5 109.5v298q0 62 27.5 109.5t77 73.5t114.5 26t115 -25.5t77.5 -71.5t27.5 -105v-23q0 -5 -3.5 -8.5t-8.5 -3.5h-92q-5 0 -8.5 3.5t-3.5 8.5v23q0 45 -28.5 73.5t-75.5 28.5q-46 0 -74.5 -29.5t-28.5 -77.5v-302q0 -48 29.5 -77.5
t76.5 -29.5q46 0 73.5 26.5t27.5 72.5v79q0 5 -5 5h-91q-5 0 -8.5 3.5t-3.5 8.5v73q0 5 3.5 8.5t8.5 3.5h200q5 0 8.5 -3.5t3.5 -8.5v-156q0 -99 -60 -155.5t-160 -56.5q-65 0 -114.5 26zM179.5 776.5q-35.5 29.5 -40.5 76.5v2q0 10 11 10h46q10 0 12 -11q4 -22 20.5 -36
t39.5 -14t39.5 14t20.5 36q2 11 12 11h46q12 0 12 -11q-5 -47 -40.5 -77t-89.5 -30q-53 0 -88.5 29.5z" />
    <glyph glyph-name="gbreve" unicode="&#x11f;" horiz-adv-x="490" 
d="M328.5 507.5q3.5 3.5 8.5 3.5h92q5 0 8.5 -3.5t3.5 -8.5v-472q0 -116 -63 -172.5t-182 -56.5q-14 0 -44 2q-12 1 -12 13l3 80q0 12 13 11q10 -1 30 -1q75 0 107 31t32 100v9q0 3 -2 4t-4 -2q-38 -44 -105 -44q-65 0 -110 38.5t-56 109.5q-6 30 -6 108q0 83 8 114
q10 68 52 108t108 40q69 0 109 -45q2 -2 4 -1.5t2 3.5v23q0 5 3.5 8.5zM325 257q0 57 -4 90q-4 32 -25 52t-53 20t-53 -20t-26 -52q-6 -37 -6 -90q0 -49 5 -87q5 -32 27 -52t54 -20q33 0 53.5 20t24.5 52q3 38 3 87zM162.5 585.5q-35.5 29.5 -40.5 76.5v2q0 10 11 10h46
q10 0 12 -11q4 -22 20.5 -36t39.5 -14t39.5 14t20.5 36q2 11 12 11h46q12 0 12 -11q-5 -47 -40.5 -77t-89.5 -30q-53 0 -88.5 29.5z" />
    <glyph glyph-name="Gdotaccent" unicode="&#x120;" horiz-adv-x="537" 
d="M153.5 18q-49.5 26 -77 73.5t-27.5 109.5v298q0 62 27.5 109.5t77 73.5t114.5 26t115 -25.5t77.5 -71.5t27.5 -105v-23q0 -5 -3.5 -8.5t-8.5 -3.5h-92q-5 0 -8.5 3.5t-3.5 8.5v23q0 45 -28.5 73.5t-75.5 28.5q-46 0 -74.5 -29.5t-28.5 -77.5v-302q0 -48 29.5 -77.5
t76.5 -29.5q46 0 73.5 26.5t27.5 72.5v79q0 5 -5 5h-91q-5 0 -8.5 3.5t-3.5 8.5v73q0 5 3.5 8.5t8.5 3.5h200q5 0 8.5 -3.5t3.5 -8.5v-156q0 -99 -60 -155.5t-160 -56.5q-65 0 -114.5 26zM218 792q-20 20 -20 51t20 51t51 20t50.5 -20t19.5 -51t-20 -51t-50 -20
q-31 0 -51 20z" />
    <glyph glyph-name="gdotaccent" unicode="&#x121;" horiz-adv-x="490" 
d="M328.5 507.5q3.5 3.5 8.5 3.5h92q5 0 8.5 -3.5t3.5 -8.5v-472q0 -116 -63 -172.5t-182 -56.5q-14 0 -44 2q-12 1 -12 13l3 80q0 12 13 11q10 -1 30 -1q75 0 107 31t32 100v9q0 3 -2 4t-4 -2q-38 -44 -105 -44q-65 0 -110 38.5t-56 109.5q-6 30 -6 108q0 83 8 114
q10 68 52 108t108 40q69 0 109 -45q2 -2 4 -1.5t2 3.5v23q0 5 3.5 8.5zM325 257q0 57 -4 90q-4 32 -25 52t-53 20t-53 -20t-26 -52q-6 -37 -6 -90q0 -49 5 -87q5 -32 27 -52t54 -20q33 0 53.5 20t24.5 52q3 38 3 87zM200 601q-20 20 -20 51t20 51t51 20t50.5 -20t19.5 -51
t-20 -51t-50 -20q-31 0 -51 20z" />
    <glyph glyph-name="uni0122" unicode="&#x122;" horiz-adv-x="537" 
d="M153.5 18q-49.5 26 -77 73.5t-27.5 109.5v298q0 62 27.5 109.5t77 73.5t114.5 26t115 -25.5t77.5 -71.5t27.5 -105v-23q0 -5 -3.5 -8.5t-8.5 -3.5h-92q-5 0 -8.5 3.5t-3.5 8.5v23q0 45 -28.5 73.5t-75.5 28.5q-46 0 -74.5 -29.5t-28.5 -77.5v-302q0 -48 29.5 -77.5
t76.5 -29.5q46 0 73.5 26.5t27.5 72.5v79q0 5 -5 5h-91q-5 0 -8.5 3.5t-3.5 8.5v73q0 5 3.5 8.5t8.5 3.5h200q5 0 8.5 -3.5t3.5 -8.5v-156q0 -99 -60 -155.5t-160 -56.5q-65 0 -114.5 26zM182 -183q-2 4 1 10l57 103q5 8 15 8h75q7 0 9.5 -4.5t-1.5 -10.5l-71 -102
q-5 -8 -14 -8h-62q-7 0 -9 4z" />
    <glyph glyph-name="uni0123" unicode="&#x123;" horiz-adv-x="490" 
d="M335 687q2 -4 -1 -10l-57 -103q-5 -8 -15 -8h-76q-7 0 -9.5 4.5t1.5 10.5l72 102q5 8 14 8h62q7 0 9 -4zM328.5 507.5q3.5 3.5 8.5 3.5h92q5 0 8.5 -3.5t3.5 -8.5v-472q0 -116 -63 -172.5t-182 -56.5q-14 0 -44 2q-12 1 -12 13l3 80q0 12 13 11q10 -1 30 -1q75 0 107 31
t32 100v9q0 3 -2 4t-4 -2q-38 -44 -105 -44q-65 0 -110 38.5t-56 109.5q-6 30 -6 108q0 83 8 114q10 68 52 108t108 40q69 0 109 -45q2 -2 4 -1.5t2 3.5v23q0 5 3.5 8.5zM325 257q0 57 -4 90q-4 32 -25 52t-53 20t-53 -20t-26 -52q-6 -37 -6 -90q0 -49 5 -87q5 -32 27 -52
t54 -20q33 0 53.5 20t24.5 52q3 38 3 87z" />
    <glyph glyph-name="Hcircumflex" unicode="&#x124;" horiz-adv-x="557" 
d="M383.5 696.5q3.5 3.5 8.5 3.5h92q5 0 8.5 -3.5t3.5 -8.5v-676q0 -5 -3.5 -8.5t-8.5 -3.5h-92q-5 0 -8.5 3.5t-3.5 8.5v284q0 5 -5 5h-190q-5 0 -5 -5v-284q0 -5 -3.5 -8.5t-8.5 -3.5h-92q-5 0 -8.5 3.5t-3.5 8.5v676q0 5 3.5 8.5t8.5 3.5h92q5 0 8.5 -3.5t3.5 -8.5v-281
q0 -5 5 -5h190q5 0 5 5v281q0 5 3.5 8.5zM142 768.5q-2 4.5 2 10.5l68 103q5 8 14 8h105q9 0 14 -8l71 -103q2 -3 2 -7q0 -8 -10 -8h-71q-10 0 -14 8l-40 65q-2 3 -4 3t-3 -3l-40 -65q-4 -8 -14 -8h-71q-7 0 -9 4.5z" />
    <glyph glyph-name="hcircumflex" unicode="&#x125;" horiz-adv-x="491" 
d="M400 473q41 -46 41 -127v-334q0 -5 -3.5 -8.5t-8.5 -3.5h-92q-5 0 -8.5 3.5t-3.5 8.5v318q0 41 -20.5 65t-55.5 24q-36 0 -57.5 -24.5t-21.5 -65.5v-317q0 -5 -3.5 -8.5t-8.5 -3.5h-92q-5 0 -8.5 3.5t-3.5 8.5v676q0 5 3.5 8.5t8.5 3.5h92q5 0 8.5 -3.5t3.5 -8.5v-215
q0 -3 2 -4t4 2q40 48 110 48q73 0 114 -46zM116 754.5q-2 4.5 2 10.5l68 103q5 8 14 8h105q9 0 14 -8l71 -103q2 -3 2 -7q0 -8 -10 -8h-71q-10 0 -14 8l-40 65q-2 3 -4 3t-3 -3l-40 -65q-4 -8 -14 -8h-71q-7 0 -9 4.5z" />
    <glyph glyph-name="Hbar" unicode="&#x126;" horiz-adv-x="557" 
d="M546.5 583.5q3.5 -3.5 3.5 -8.5v-56q0 -5 -3.5 -8.5t-8.5 -3.5h-37q-5 0 -5 -5v-490q0 -5 -3.5 -8.5t-8.5 -3.5h-92q-5 0 -8.5 3.5t-3.5 8.5v284q0 5 -5 5h-190q-5 0 -5 -5v-284q0 -5 -3.5 -8.5t-8.5 -3.5h-92q-5 0 -8.5 3.5t-3.5 8.5v490q0 5 -5 5h-37q-5 0 -8.5 3.5
t-3.5 8.5v56q0 5 3.5 8.5t8.5 3.5h37q5 0 5 5v96q0 5 3.5 8.5t8.5 3.5h92q5 0 8.5 -3.5t3.5 -8.5v-96q0 -5 5 -5h190q5 0 5 5v96q0 5 3.5 8.5t8.5 3.5h92q5 0 8.5 -3.5t3.5 -8.5v-96q0 -5 5 -5h37q5 0 8.5 -3.5zM380 407v95q0 5 -5 5h-190q-5 0 -5 -5v-95q0 -5 5 -5h190
q5 0 5 5z" />
    <glyph glyph-name="hbar" unicode="&#x127;" horiz-adv-x="491" 
d="M400 473q41 -46 41 -127v-334q0 -5 -3.5 -8.5t-8.5 -3.5h-92q-5 0 -8.5 3.5t-3.5 8.5v318q0 41 -20.5 65t-55.5 24q-36 0 -57.5 -24.5t-21.5 -65.5v-317q0 -5 -3.5 -8.5t-8.5 -3.5h-92q-5 0 -8.5 3.5t-3.5 8.5v534q0 5 -5 5h-41q-5 0 -8.5 3.5t-3.5 8.5v48q0 5 3.5 8.5
t8.5 3.5h41q5 0 5 5v60q0 5 3.5 8.5t8.5 3.5h92q5 0 8.5 -3.5t3.5 -8.5v-60q0 -5 5 -5h119q5 0 8.5 -3.5t3.5 -8.5v-48q0 -5 -3.5 -8.5t-8.5 -3.5h-119q-5 0 -5 -5v-73q0 -3 2 -4t4 2q40 48 110 48q73 0 114 -46z" />
    <glyph glyph-name="Itilde" unicode="&#x128;" horiz-adv-x="243" 
d="M67.5 3.5q-3.5 3.5 -3.5 8.5v676q0 5 3.5 8.5t8.5 3.5h92q5 0 8.5 -3.5t3.5 -8.5v-676q0 -5 -3.5 -8.5t-8.5 -3.5h-92q-5 0 -8.5 3.5zM159 781q-13 5 -30 15l-16 8t-17 7t-15 2q-28 0 -47 -22q-8 -10 -16 -2l-33 30q-8 8 -3 17q15 28 39 43t53 15q19 0 33 -5.5t35 -17.5
q4 -2 13.5 -7.5t17.5 -8t16 -2.5q27 0 44 23q5 7 10 7q3 0 7 -4l31 -30q4 -4 4 -9t-2 -8q-14 -27 -39 -41.5t-55 -14.5q-17 0 -30 5z" />
    <glyph glyph-name="itilde" unicode="&#x129;" horiz-adv-x="205" 
d="M48.5 3.5q-3.5 3.5 -3.5 8.5v487q0 5 3.5 8.5t8.5 3.5h92q5 0 8.5 -3.5t3.5 -8.5v-487q0 -5 -3.5 -8.5t-8.5 -3.5h-92q-5 0 -8.5 3.5zM140 592q-13 5 -30 15l-16 8t-17 7t-15 2q-28 0 -47 -22q-8 -10 -16 -2l-33 30q-8 8 -3 17q15 28 39 43t53 15q19 0 33 -5.5t35 -17.5
q4 -2 13.5 -7.5t17.5 -8t16 -2.5q27 0 44 23q5 7 10 7q3 0 7 -4l31 -30q4 -4 4 -9t-2 -8q-14 -27 -39 -41.5t-55 -14.5q-17 0 -30 5z" />
    <glyph glyph-name="Imacron" unicode="&#x12a;" horiz-adv-x="243" 
d="M67.5 3.5q-3.5 3.5 -3.5 8.5v676q0 5 3.5 8.5t8.5 3.5h92q5 0 8.5 -3.5t3.5 -8.5v-676q0 -5 -3.5 -8.5t-8.5 -3.5h-92q-5 0 -8.5 3.5zM-0.5 777.5q-3.5 3.5 -3.5 8.5v56q0 5 3.5 8.5t8.5 3.5h225q5 0 8.5 -3.5t3.5 -8.5v-56q0 -5 -3.5 -8.5t-8.5 -3.5h-225q-5 0 -8.5 3.5
z" />
    <glyph glyph-name="imacron" unicode="&#x12b;" horiz-adv-x="205" 
d="M48.5 3.5q-3.5 3.5 -3.5 8.5v487q0 5 3.5 8.5t8.5 3.5h92q5 0 8.5 -3.5t3.5 -8.5v-487q0 -5 -3.5 -8.5t-8.5 -3.5h-92q-5 0 -8.5 3.5zM-19.5 588.5q-3.5 3.5 -3.5 8.5v56q0 5 3.5 8.5t8.5 3.5h225q5 0 8.5 -3.5t3.5 -8.5v-56q0 -5 -3.5 -8.5t-8.5 -3.5h-225
q-5 0 -8.5 3.5z" />
    <glyph glyph-name="ibreve" unicode="&#x12d;" horiz-adv-x="205" 
d="M48.5 3.5q-3.5 3.5 -3.5 8.5v487q0 5 3.5 8.5t8.5 3.5h92q5 0 8.5 -3.5t3.5 -8.5v-487q0 -5 -3.5 -8.5t-8.5 -3.5h-92q-5 0 -8.5 3.5zM13.5 599.5q-35.5 29.5 -40.5 75.5v2q0 10 11 10h43q10 0 12 -11q5 -23 22 -36.5t41 -13.5t41.5 14t21.5 36q2 11 12 11h43
q12 0 12 -11q-5 -46 -41 -76t-89 -30t-88.5 29.5z" />
    <glyph glyph-name="Iogonek" unicode="&#x12e;" horiz-adv-x="227" 
d="M59.5 3.5q-3.5 3.5 -3.5 8.5v676q0 5 3.5 8.5t8.5 3.5h92q5 0 8.5 -3.5t3.5 -8.5v-676q0 -5 -3.5 -8.5t-8.5 -3.5h-92q-5 0 -8.5 3.5zM180 -171q0 -8 -9 -12q-21 -7 -46 -7q-32 0 -56 14.5t-32 47.5q-3 12 -3 24q0 53 51 98q6 6 15 6h49q10 0 10 -6q0 -4 -5 -9
q-43 -38 -43 -71q0 -19 10 -28.5t25 -9.5q4 0 14 2l6 1q8 0 9 -10l5 -37v-3z" />
    <glyph glyph-name="iogonek" unicode="&#x12f;" horiz-adv-x="248" 
d="M76.5 3.5q-3.5 3.5 -3.5 8.5v487q0 5 3.5 8.5t8.5 3.5h92q5 0 8.5 -3.5t3.5 -8.5v-487q0 -5 -3.5 -8.5t-8.5 -3.5h-92q-5 0 -8.5 3.5zM80 601q-20 20 -20 51t20 51t51 20t50.5 -20t19.5 -51t-20 -51t-50 -20q-31 0 -51 20zM197 -171q0 -8 -9 -12q-21 -7 -46 -7
q-32 0 -56 14.5t-32 47.5q-3 12 -3 24q0 53 51 98q6 6 15 6h49q10 0 10 -6q0 -4 -5 -9q-43 -38 -43 -71q0 -19 10 -28.5t25 -9.5q4 0 14 2l6 1q8 0 9 -10l5 -37v-3z" />
    <glyph glyph-name="Idotaccent" unicode="&#x130;" horiz-adv-x="243" 
d="M67.5 3.5q-3.5 3.5 -3.5 8.5v676q0 5 3.5 8.5t8.5 3.5h92q5 0 8.5 -3.5t3.5 -8.5v-676q0 -5 -3.5 -8.5t-8.5 -3.5h-92q-5 0 -8.5 3.5zM71 790q-20 20 -20 51t20 51t51 20t50.5 -20t19.5 -51t-20 -51t-50 -20q-31 0 -51 20z" />
    <glyph glyph-name="dotlessi" unicode="&#x131;" horiz-adv-x="205" 
d="M48.5 3.5q-3.5 3.5 -3.5 8.5v487q0 5 3.5 8.5t8.5 3.5h92q5 0 8.5 -3.5t3.5 -8.5v-487q0 -5 -3.5 -8.5t-8.5 -3.5h-92q-5 0 -8.5 3.5z" />
    <glyph glyph-name="ij" unicode="&#x133;" horiz-adv-x="459" 
d="M66.5 601q-19.5 20 -19.5 51t19.5 51t50.5 20q32 0 51.5 -19.5t19.5 -51.5q0 -31 -20 -51t-51 -20t-50.5 20zM62.5 3.5q-3.5 3.5 -3.5 8.5v488q0 5 3.5 8.5t8.5 3.5h92q5 0 8.5 -3.5t3.5 -8.5v-488q0 -5 -3.5 -8.5t-8.5 -3.5h-92q-5 0 -8.5 3.5zM291 601q-20 20 -20 51
t20 51t51 20t51 -20t20 -51t-20.5 -51t-50.5 -20q-31 0 -51 20zM179 -193v75q0 12 16 12q48 0 69 22t21 67l-1 516q0 5 3.5 8.5t8.5 3.5h92q5 0 8.5 -3.5t3.5 -8.5v-515q0 -69 -17 -109.5t-62 -60.5t-130 -19q-12 0 -12 12z" />
    <glyph glyph-name="Jcircumflex" unicode="&#x134;" horiz-adv-x="512" 
d="M78 47q-58 55 -58 146v70q0 5 3.5 8.5t8.5 3.5h92q5 0 8.5 -3.5t3.5 -8.5v-71q0 -45 26.5 -72.5t70.5 -27.5t72 27.5t28 72.5v496q0 5 3.5 8.5t8.5 3.5h91q5 0 8.5 -3.5t3.5 -8.5v-495q0 -60 -27 -105.5t-76 -70.5t-112 -25q-97 0 -155 55zM252 768.5q-2 4.5 2 10.5
l68 103q5 8 14 8h105q9 0 14 -8l71 -103q2 -3 2 -7q0 -8 -10 -8h-71q-10 0 -14 8l-40 65q-2 3 -4 3t-3 -3l-40 -65q-4 -8 -14 -8h-71q-7 0 -9 4.5z" />
    <glyph glyph-name="jcircumflex" unicode="&#x135;" horiz-adv-x="232" 
d="M-49 -193v75q0 12 16 12q48 0 69 22t21 67l-1 516q0 5 3.5 8.5t8.5 3.5h93q5 0 8.5 -3.5t3.5 -8.5v-515q0 -69 -17 -109.5t-62.5 -60.5t-130.5 -19q-12 0 -12 12zM-23 578.5q-2 4.5 2 10.5l68 103q5 8 14 8h105q9 0 14 -8l71 -103q2 -3 2 -7q0 -8 -10 -8h-71q-10 0 -14 8
l-40 65q-2 3 -4 3t-3 -3l-40 -65q-4 -8 -14 -8h-71q-7 0 -9 4.5z" />
    <glyph glyph-name="uni0136" unicode="&#x136;" horiz-adv-x="549" 
d="M67.5 3.5q-3.5 3.5 -3.5 8.5v676q0 5 3.5 8.5t8.5 3.5h92q5 0 8.5 -3.5t3.5 -8.5v-288q0 -3 2 -4t4 2l205 294q5 8 14 8h101q7 0 9.5 -4.5t-1.5 -10.5l-189 -281q-1 -3 0 -7l203 -383q2 -4 2 -6q0 -8 -10 -8h-102q-10 0 -15 9l-158 298q-1 3 -3 3t-4 -2l-56 -77
q-2 -4 -2 -6v-213q0 -5 -3.5 -8.5t-8.5 -3.5h-92q-5 0 -8.5 3.5zM202 -175q-2 4 1 10l57 103q5 8 15 8h75q7 0 9.5 -4.5t-1.5 -10.5l-71 -102q-5 -8 -14 -8h-62q-7 0 -9 4z" />
    <glyph glyph-name="uni0137" unicode="&#x137;" horiz-adv-x="478" 
d="M57.5 3.5q-3.5 3.5 -3.5 8.5v676q0 5 3.5 8.5t8.5 3.5h92q5 0 8.5 -3.5t3.5 -8.5v-358q0 -3 2 -3.5t4 1.5l135 176q6 7 15 7h101q10 0 10 -7q0 -3 -3 -8l-116 -155q-2 -3 0 -7l134 -320q1 -2 1 -6q0 -8 -10 -8h-96q-11 0 -14 10l-91 239q-1 3 -2.5 3t-3.5 -2l-64 -81
q-2 -4 -2 -6v-151q0 -5 -3.5 -8.5t-8.5 -3.5h-92q-5 0 -8.5 3.5zM164 -175q-2 4 1 10l57 103q5 8 15 8h75q7 0 9.5 -4.5t-1.5 -10.5l-71 -102q-5 -8 -14 -8h-62q-7 0 -9 4z" />
    <glyph glyph-name="Lacute" unicode="&#x139;" horiz-adv-x="493" 
d="M67.5 3.5q-3.5 3.5 -3.5 8.5v676q0 5 3.5 8.5t8.5 3.5h92q5 0 8.5 -3.5t3.5 -8.5v-583q0 -5 5 -5h275q5 0 8.5 -3.5t3.5 -8.5v-76q0 -5 -3.5 -8.5t-8.5 -3.5h-384q-5 0 -8.5 3.5zM65 768q-2 4 1 10l57 103q5 8 15 8h75q7 0 9.5 -4.5t-1.5 -10.5l-71 -102q-5 -8 -14 -8
h-62q-7 0 -9 4z" />
    <glyph glyph-name="lacute" unicode="&#x13a;" horiz-adv-x="219" 
d="M55.5 3.5q-3.5 3.5 -3.5 8.5v676q0 5 3.5 8.5t8.5 3.5h92q5 0 8.5 -3.5t3.5 -8.5v-676q0 -5 -3.5 -8.5t-8.5 -3.5h-92q-5 0 -8.5 3.5zM54 768q-2 4 1 10l57 103q5 8 15 8h75q7 0 9.5 -4.5t-1.5 -10.5l-71 -102q-5 -8 -14 -8h-62q-7 0 -9 4z" />
    <glyph glyph-name="uni013B" unicode="&#x13b;" horiz-adv-x="493" 
d="M67.5 3.5q-3.5 3.5 -3.5 8.5v676q0 5 3.5 8.5t8.5 3.5h92q5 0 8.5 -3.5t3.5 -8.5v-583q0 -5 5 -5h275q5 0 8.5 -3.5t3.5 -8.5v-76q0 -5 -3.5 -8.5t-8.5 -3.5h-384q-5 0 -8.5 3.5zM157 -175q-2 4 1 10l57 103q5 8 15 8h75q7 0 9.5 -4.5t-1.5 -10.5l-71 -102q-5 -8 -14 -8
h-62q-7 0 -9 4z" />
    <glyph glyph-name="uni013C" unicode="&#x13c;" horiz-adv-x="219" 
d="M55.5 3.5q-3.5 3.5 -3.5 8.5v676q0 5 3.5 8.5t8.5 3.5h92q5 0 8.5 -3.5t3.5 -8.5v-676q0 -5 -3.5 -8.5t-8.5 -3.5h-92q-5 0 -8.5 3.5zM-11 -175q-2 4 1 10l57 103q5 8 15 8h75q7 0 9.5 -4.5t-1.5 -10.5l-71 -102q-5 -8 -14 -8h-62q-7 0 -9 4z" />
    <glyph glyph-name="Lcaron" unicode="&#x13d;" horiz-adv-x="494" 
d="M67.5 3.5q-3.5 3.5 -3.5 8.5v676q0 5 3.5 8.5t8.5 3.5h92q5 0 8.5 -3.5t3.5 -8.5v-583q0 -5 5 -5h275q5 0 8.5 -3.5t3.5 -8.5v-76q0 -5 -3.5 -8.5t-8.5 -3.5h-384q-5 0 -8.5 3.5zM236 579q-2 4 1 10l57 103q5 8 15 8h75q7 0 9.5 -4.5t-1.5 -10.5l-71 -102q-5 -8 -14 -8
h-62q-7 0 -9 4z" />
    <glyph glyph-name="lcaron" unicode="&#x13e;" horiz-adv-x="394" 
d="M55.5 3.5q-3.5 3.5 -3.5 8.5v676q0 5 3.5 8.5t8.5 3.5h92q5 0 8.5 -3.5t3.5 -8.5v-676q0 -5 -3.5 -8.5t-8.5 -3.5h-92q-5 0 -8.5 3.5zM201 579q-2 4 1 10l57 103q5 8 15 8h75q7 0 9.5 -4.5t-1.5 -10.5l-71 -102q-5 -8 -14 -8h-62q-7 0 -9 4z" />
    <glyph glyph-name="ldot" unicode="&#x140;" horiz-adv-x="245" 
d="M68.5 3.5q-3.5 3.5 -3.5 8.5v676q0 5 3.5 8.5t8.5 3.5h92q5 0 8.5 -3.5t3.5 -8.5v-676q0 -5 -3.5 -8.5t-8.5 -3.5h-92q-5 0 -8.5 3.5zM73 790q-20 20 -20 51t20 51t51 20t50.5 -20t19.5 -51t-20 -51t-50 -20q-31 0 -51 20z" />
    <glyph glyph-name="Lslash" unicode="&#x141;" horiz-adv-x="548" 
d="M240 100h276q5 0 8.5 -3.5t3.5 -8.5v-76q0 -5 -3.5 -8.5t-8.5 -3.5h-385q-5 0 -8.5 3.5t-3.5 8.5v196q0 3 -2 4t-4 -1l-68 -54q-4 -3 -8 -3t-9 5l-41 50q-4 6 -4 8q0 4 5 9l128 102q3 2 3 6v354q0 5 3.5 8.5t8.5 3.5h92q5 0 8.5 -3.5t3.5 -8.5v-257q0 -3 2 -4t4 1
l163 131q5 3 8 3q4 0 9 -5l42 -50q3 -4 3 -8t-5 -9l-223 -179q-3 -1 -3 -6v-200q0 -5 5 -5z" />
    <glyph glyph-name="lslash" unicode="&#x142;" horiz-adv-x="377" 
d="M359 399q0 -5 -6 -10l-110 -61q-3 -2 -3 -6v-310q0 -5 -3.5 -8.5t-8.5 -3.5h-92q-5 0 -8.5 3.5t-3.5 8.5v243q0 3 -2 4.5t-4 -0.5l-52 -30q-4 -2 -7 -2q-6 0 -10 7l-28 54q-2 4 -2 6q0 6 6 10l96 54q3 2 3 6v324q0 5 3.5 8.5t8.5 3.5h92q5 0 8.5 -3.5t3.5 -8.5v-255
q0 -3 2 -4t4 0l64 36q4 2 6 2q6 0 10 -6l31 -56q2 -4 2 -6z" />
    <glyph glyph-name="Nacute" unicode="&#x143;" horiz-adv-x="588" 
d="M412.5 696.5q3.5 3.5 8.5 3.5h92q5 0 8.5 -3.5t3.5 -8.5v-676q0 -5 -3.5 -8.5t-8.5 -3.5h-97q-9 0 -14 9l-218 448q-2 3 -4 2.5t-2 -4.5l1 -443q0 -5 -3.5 -8.5t-8.5 -3.5h-92q-5 0 -8.5 3.5t-3.5 8.5v676q0 5 3.5 8.5t8.5 3.5h96q10 0 14 -9l219 -450q2 -3 4 -2.5t2 4.5
l-1 445q0 5 3.5 8.5zM234 770q-2 4 1 10l57 103q5 8 15 8h75q7 0 9.5 -4.5t-1.5 -10.5l-71 -102q-5 -8 -14 -8h-62q-7 0 -9 4z" />
    <glyph glyph-name="nacute" unicode="&#x144;" horiz-adv-x="491" 
d="M400 473q41 -46 41 -127v-334q0 -5 -3.5 -8.5t-8.5 -3.5h-92q-5 0 -8.5 3.5t-3.5 8.5v318q0 41 -20.5 65t-55.5 24q-36 0 -57.5 -24.5t-21.5 -65.5v-317q0 -5 -3.5 -8.5t-8.5 -3.5h-92q-5 0 -8.5 3.5t-3.5 8.5v487q0 5 3.5 8.5t8.5 3.5h92q5 0 8.5 -3.5t3.5 -8.5v-26
q0 -3 2 -4t4 2q40 48 110 48q73 0 114 -46zM193 579q-2 4 1 10l57 103q5 8 15 8h75q7 0 9.5 -4.5t-1.5 -10.5l-71 -102q-5 -8 -14 -8h-62q-7 0 -9 4z" />
    <glyph glyph-name="uni0145" unicode="&#x145;" horiz-adv-x="588" 
d="M412.5 696.5q3.5 3.5 8.5 3.5h92q5 0 8.5 -3.5t3.5 -8.5v-676q0 -5 -3.5 -8.5t-8.5 -3.5h-97q-9 0 -14 9l-218 448q-2 3 -4 2.5t-2 -4.5l1 -443q0 -5 -3.5 -8.5t-8.5 -3.5h-92q-5 0 -8.5 3.5t-3.5 8.5v676q0 5 3.5 8.5t8.5 3.5h96q10 0 14 -9l219 -450q2 -3 4 -2.5t2 4.5
l-1 445q0 5 3.5 8.5zM212 -175q-2 4 1 10l57 103q5 8 15 8h75q7 0 9.5 -4.5t-1.5 -10.5l-71 -102q-5 -8 -14 -8h-62q-7 0 -9 4z" />
    <glyph glyph-name="uni0146" unicode="&#x146;" horiz-adv-x="491" 
d="M400 473q41 -46 41 -127v-334q0 -5 -3.5 -8.5t-8.5 -3.5h-92q-5 0 -8.5 3.5t-3.5 8.5v318q0 41 -20.5 65t-55.5 24q-36 0 -57.5 -24.5t-21.5 -65.5v-317q0 -5 -3.5 -8.5t-8.5 -3.5h-92q-5 0 -8.5 3.5t-3.5 8.5v487q0 5 3.5 8.5t8.5 3.5h92q5 0 8.5 -3.5t3.5 -8.5v-26
q0 -3 2 -4t4 2q40 48 110 48q73 0 114 -46zM166 -175q-2 4 1 10l57 103q5 8 15 8h75q7 0 9.5 -4.5t-1.5 -10.5l-71 -102q-5 -8 -14 -8h-62q-7 0 -9 4z" />
    <glyph glyph-name="Ncaron" unicode="&#x147;" horiz-adv-x="588" 
d="M412.5 696.5q3.5 3.5 8.5 3.5h92q5 0 8.5 -3.5t3.5 -8.5v-676q0 -5 -3.5 -8.5t-8.5 -3.5h-97q-9 0 -14 9l-218 448q-2 3 -4 2.5t-2 -4.5l1 -443q0 -5 -3.5 -8.5t-8.5 -3.5h-92q-5 0 -8.5 3.5t-3.5 8.5v676q0 5 3.5 8.5t8.5 3.5h96q10 0 14 -9l219 -450q2 -3 4 -2.5t2 4.5
l-1 445q0 5 3.5 8.5zM157 883q0 8 9 8h71q10 0 14 -8l40 -65q2 -3 4 -3t3 3l40 65q4 8 14 8h71q7 0 9.5 -4.5t-1.5 -10.5l-71 -103q-5 -8 -14 -8h-105q-9 0 -14 8l-68 103q-2 3 -2 7z" />
    <glyph glyph-name="ncaron" unicode="&#x148;" horiz-adv-x="491" 
d="M400 473q41 -46 41 -127v-334q0 -5 -3.5 -8.5t-8.5 -3.5h-92q-5 0 -8.5 3.5t-3.5 8.5v318q0 41 -20.5 65t-55.5 24q-36 0 -57.5 -24.5t-21.5 -65.5v-317q0 -5 -3.5 -8.5t-8.5 -3.5h-92q-5 0 -8.5 3.5t-3.5 8.5v487q0 5 3.5 8.5t8.5 3.5h92q5 0 8.5 -3.5t3.5 -8.5v-26
q0 -3 2 -4t4 2q40 48 110 48q73 0 114 -46zM116 692q0 8 9 8h71q10 0 14 -8l40 -65q2 -3 4 -3t3 3l40 65q4 8 14 8h71q7 0 9.5 -4.5t-1.5 -10.5l-71 -103q-5 -8 -14 -8h-105q-9 0 -14 8l-68 103q-2 3 -2 7z" />
    <glyph glyph-name="Eng" unicode="&#x14a;" horiz-adv-x="588" 
d="M412.5 696.5q3.5 3.5 8.5 3.5h92q5 0 8.5 -3.5t3.5 -8.5v-688q-1 -64 -16 -101.5t-56.5 -56t-120.5 -18.5q-16 0 -16 12l-1 75q0 12 16 12q42 0 56.5 18.5t15.5 61.5q0 4 -1 6l-218 448q-2 3 -4 2.5t-2 -4.5l1 -443q0 -5 -3.5 -8.5t-8.5 -3.5h-92q-5 0 -8.5 3.5t-3.5 8.5
v676q0 5 3.5 8.5t8.5 3.5h96q10 0 14 -9l212 -436q2 -3 4 -2.5t2 4.5v187q0 12 3 12t3 5v227q0 5 3.5 8.5z" />
    <glyph glyph-name="eng" unicode="&#x14b;" horiz-adv-x="492" 
d="M442 222h1v-216q0 -65 -13 -104t-53.5 -61t-120.5 -22q-15 0 -15 12v71q0 12 12 12q40 2 56 22t18 59l-1 5h-1v330q0 41 -20.5 65t-55.5 24q-36 0 -57.5 -24.5t-21.5 -65.5v-317q0 -5 -3.5 -8.5t-8.5 -3.5h-92q-5 0 -8.5 3.5t-3.5 8.5v487q0 5 3.5 8.5t8.5 3.5h92
q5 0 8.5 -3.5t3.5 -8.5v-26q0 -3 2 -4t4 2q40 48 110 48q73 0 114 -46t41 -127v-119z" />
    <glyph glyph-name="Omacron" unicode="&#x14c;" horiz-adv-x="544" 
d="M154.5 18q-50.5 27 -78 76.5t-27.5 114.5v282q0 64 27.5 113.5t78 76.5t116.5 27q67 0 117.5 -27t78.5 -76.5t28 -113.5v-282q0 -65 -28 -114.5t-78.5 -76.5t-117.5 -27q-66 0 -116.5 27zM349.5 122.5q29.5 31.5 29.5 81.5v290q0 51 -29.5 82.5t-78.5 31.5
q-48 0 -77 -31.5t-29 -82.5v-290q0 -50 29 -81.5t77 -31.5q49 0 78.5 31.5zM149.5 776.5q-3.5 3.5 -3.5 8.5v56q0 5 3.5 8.5t8.5 3.5h225q5 0 8.5 -3.5t3.5 -8.5v-56q0 -5 -3.5 -8.5t-8.5 -3.5h-225q-5 0 -8.5 3.5z" />
    <glyph glyph-name="omacron" unicode="&#x14d;" horiz-adv-x="488" 
d="M112 35.5q-52 43.5 -63 117.5q-8 48 -8 103q0 57 8 105q11 73 64 115.5t133 42.5q79 0 131 -42.5t63 -114.5q8 -50 8 -105q0 -60 -7 -103q-11 -75 -63 -118.5t-133 -43.5t-133 43.5zM300.5 114q22.5 22 27.5 58q4 52 4 84q0 33 -4 85q-5 36 -27.5 57t-55.5 21
q-34 0 -56 -21t-27 -57q-4 -35 -4 -85q0 -51 4 -84q5 -36 27 -58t56 -22q33 0 55.5 22zM121.5 588.5q-3.5 3.5 -3.5 8.5v56q0 5 3.5 8.5t8.5 3.5h225q5 0 8.5 -3.5t3.5 -8.5v-56q0 -5 -3.5 -8.5t-8.5 -3.5h-225q-5 0 -8.5 3.5z" />
    <glyph glyph-name="obreve" unicode="&#x14f;" horiz-adv-x="488" 
d="M112 35.5q-52 43.5 -63 117.5q-8 48 -8 103q0 57 8 105q11 73 64 115.5t133 42.5q79 0 131 -42.5t63 -114.5q8 -50 8 -105q0 -60 -7 -103q-11 -75 -63 -118.5t-133 -43.5t-133 43.5zM300.5 114q22.5 22 27.5 58q4 52 4 84q0 33 -4 85q-5 36 -27.5 57t-55.5 21
q-34 0 -56 -21t-27 -57q-4 -35 -4 -85q0 -51 4 -84q5 -36 27 -58t56 -22q33 0 55.5 22zM155.5 599.5q-35.5 29.5 -40.5 75.5v2q0 10 11 10h43q10 0 12 -11q5 -23 22 -36.5t41 -13.5t41.5 14t21.5 36q2 11 12 11h43q12 0 12 -11q-5 -46 -41 -76t-89 -30t-88.5 29.5z" />
    <glyph glyph-name="Ohungarumlaut" unicode="&#x150;" horiz-adv-x="544" 
d="M154.5 18q-50.5 27 -78 76.5t-27.5 114.5v282q0 64 27.5 113.5t78 76.5t116.5 27q67 0 117.5 -27t78.5 -76.5t28 -113.5v-282q0 -65 -28 -114.5t-78.5 -76.5t-117.5 -27q-66 0 -116.5 27zM349.5 122.5q29.5 31.5 29.5 81.5v290q0 51 -29.5 82.5t-78.5 31.5
q-48 0 -77 -31.5t-29 -82.5v-290q0 -50 29 -81.5t77 -31.5q49 0 78.5 31.5zM150.5 766.5q-2.5 3.5 0.5 10.5l50 102q4 9 14 9h77q7 0 9 -4t-1 -10l-54 -102q-5 -9 -15 -9h-71q-7 0 -9.5 3.5zM310 767q-2 4 1 10l54 102q4 9 15 9h72q7 0 9 -4t-1 -10l-54 -102q-5 -9 -15 -9
h-72q-7 0 -9 4z" />
    <glyph glyph-name="ohungarumlaut" unicode="&#x151;" horiz-adv-x="488" 
d="M112 35.5q-52 43.5 -63 117.5q-8 48 -8 103q0 57 8 105q11 73 64 115.5t133 42.5q79 0 131 -42.5t63 -114.5q8 -50 8 -105q0 -60 -7 -103q-11 -75 -63 -118.5t-133 -43.5t-133 43.5zM300.5 114q22.5 22 27.5 58q4 52 4 84q0 33 -4 85q-5 36 -27.5 57t-55.5 21
q-34 0 -56 -21t-27 -57q-4 -35 -4 -85q0 -51 4 -84q5 -36 27 -58t56 -22q33 0 55.5 22zM123.5 578.5q-2.5 3.5 0.5 10.5l50 102q4 9 14 9h77q7 0 9 -4t-1 -10l-54 -102q-5 -9 -15 -9h-71q-7 0 -9.5 3.5zM283 579q-2 4 1 10l54 102q4 9 15 9h72q7 0 9 -4t-1 -10l-54 -102
q-5 -9 -15 -9h-72q-7 0 -9 4z" />
    <glyph glyph-name="OE" unicode="&#x152;" horiz-adv-x="808" 
d="M766.5 603.5q-3.5 -3.5 -8.5 -3.5h-266q-5 0 -5 -5v-188q0 -5 5 -5h166q5 0 8.5 -3.5t3.5 -8.5v-76q0 -5 -3.5 -8.5t-8.5 -3.5h-166q-5 0 -5 -5v-192q0 -5 5 -5h266q5 0 8.5 -3.5t3.5 -8.5v-76q0 -5 -3.5 -8.5t-8.5 -3.5h-375q-5 0 -8.5 3.5t-3.5 8.5v21q0 3 -2 4t-4 -1
q-51 -45 -126 -45q-52 0 -95.5 27t-69 76t-25.5 111v290q0 62 25.5 110.5t69 75.5t95.5 27q75 0 126 -45q2 -2 4 -1t2 4v22q0 5 3.5 8.5t8.5 3.5h375q5 0 8.5 -3.5t3.5 -8.5v-76q0 -5 -3.5 -8.5zM342 121.5q29 30.5 29 78.5v298q0 48 -29 79t-75 31q-45 0 -73.5 -31
t-28.5 -79v-298q0 -48 28 -78.5t74 -30.5t75 30.5z" />
    <glyph glyph-name="oe" unicode="&#x153;" horiz-adv-x="773" 
d="M593.5 106q21.5 15 33.5 39q5 11 15 7l72 -25q11 -5 8 -15q-19 -57 -66 -88.5t-117 -31.5q-93 0 -147 69q-3 4 -7 0q-54 -69 -143 -69q-78 0 -129.5 41.5t-62.5 112.5q-7 37 -7 110q0 75 7 110q11 70 62.5 111.5t129.5 41.5q88 0 143 -70q4 -3 7 1q56 69 142 69
q79 0 131.5 -42.5t62.5 -111.5q7 -63 7 -136q0 -12 -12 -12h-265q-5 0 -5 -5q0 -26 3 -47q5 -34 28.5 -54t61.5 -20q26 0 47.5 15zM325 256q0 58 -4 90q-5 33 -26 53t-53 20t-53 -20t-26 -53q-4 -33 -4 -90q0 -48 5 -91q4 -33 25 -53t53 -20t53 20t26 53q4 33 4 91zM481 399
q-21 -20 -25 -53q-3 -21 -3 -45q0 -5 5 -5h156q5 0 5 5q-2 30 -4 45q-5 33 -26.5 53t-53.5 20q-33 0 -54 -20z" />
    <glyph glyph-name="Racute" unicode="&#x154;" horiz-adv-x="537" 
d="M384 10l-108 287q-2 4 -5 4h-86q-5 0 -5 -5v-284q0 -5 -3.5 -8.5t-8.5 -3.5h-92q-5 0 -8.5 3.5t-3.5 8.5v676q0 5 3.5 8.5t8.5 3.5h231q57 0 101 -25.5t68 -72t24 -106.5q0 -65 -30 -113t-82 -68q-5 -2 -3 -7l118 -294q1 -2 1 -6q0 -8 -10 -8h-96q-11 0 -14 10zM180 595
v-199q0 -5 5 -5h105q42 0 68 28.5t26 75.5q0 48 -26 76.5t-68 28.5h-105q-5 0 -5 -5zM202 768q-2 4 1 10l57 103q5 8 15 8h75q7 0 9.5 -4.5t-1.5 -10.5l-71 -102q-5 -8 -14 -8h-62q-7 0 -9 4z" />
    <glyph glyph-name="racute" unicode="&#x155;" horiz-adv-x="345" 
d="M324 505q8 -4 6 -15l-17 -91q-1 -12 -14 -7t-30 5q-7 0 -21 -2q-34 -3 -56.5 -31t-22.5 -70v-282q0 -5 -3.5 -8.5t-8.5 -3.5h-92q-5 0 -8.5 3.5t-3.5 8.5v487q0 5 3.5 8.5t8.5 3.5h92q5 0 8.5 -3.5t3.5 -8.5v-43q0 -4 1.5 -4.5t3.5 2.5q36 63 101 63q28 0 49 -12z
M140 579q-2 4 1 10l57 103q5 8 15 8h75q7 0 9.5 -4.5t-1.5 -10.5l-71 -102q-5 -8 -14 -8h-62q-7 0 -9 4z" />
    <glyph glyph-name="uni0156" unicode="&#x156;" horiz-adv-x="537" 
d="M384 10l-108 287q-2 4 -5 4h-86q-5 0 -5 -5v-284q0 -5 -3.5 -8.5t-8.5 -3.5h-92q-5 0 -8.5 3.5t-3.5 8.5v676q0 5 3.5 8.5t8.5 3.5h231q57 0 101 -25.5t68 -72t24 -106.5q0 -65 -30 -113t-82 -68q-5 -2 -3 -7l118 -294q1 -2 1 -6q0 -8 -10 -8h-96q-11 0 -14 10zM180 595
v-199q0 -5 5 -5h105q42 0 68 28.5t26 75.5q0 48 -26 76.5t-68 28.5h-105q-5 0 -5 -5zM187 -175q-2 4 1 10l57 103q5 8 15 8h75q7 0 9.5 -4.5t-1.5 -10.5l-71 -102q-5 -8 -14 -8h-62q-7 0 -9 4z" />
    <glyph glyph-name="uni0157" unicode="&#x157;" horiz-adv-x="345" 
d="M324 505q8 -4 6 -15l-17 -91q-1 -12 -14 -7t-30 5q-7 0 -21 -2q-34 -3 -56.5 -31t-22.5 -70v-282q0 -5 -3.5 -8.5t-8.5 -3.5h-92q-5 0 -8.5 3.5t-3.5 8.5v487q0 5 3.5 8.5t8.5 3.5h92q5 0 8.5 -3.5t3.5 -8.5v-43q0 -4 1.5 -4.5t3.5 2.5q36 63 101 63q28 0 49 -12z
M-12 -175q-2 4 1 10l57 103q5 8 15 8h75q7 0 9.5 -4.5t-1.5 -10.5l-71 -102q-5 -8 -14 -8h-62q-7 0 -9 4z" />
    <glyph glyph-name="Rcaron" unicode="&#x158;" horiz-adv-x="537" 
d="M384 10l-108 287q-2 4 -5 4h-86q-5 0 -5 -5v-284q0 -5 -3.5 -8.5t-8.5 -3.5h-92q-5 0 -8.5 3.5t-3.5 8.5v676q0 5 3.5 8.5t8.5 3.5h231q57 0 101 -25.5t68 -72t24 -106.5q0 -65 -30 -113t-82 -68q-5 -2 -3 -7l118 -294q1 -2 1 -6q0 -8 -10 -8h-96q-11 0 -14 10zM180 595
v-199q0 -5 5 -5h105q42 0 68 28.5t26 75.5q0 48 -26 76.5t-68 28.5h-105q-5 0 -5 -5zM125 881q0 8 9 8h71q10 0 14 -8l40 -65q2 -3 4 -3t3 3l40 65q4 8 14 8h71q7 0 9.5 -4.5t-1.5 -10.5l-71 -103q-5 -8 -14 -8h-105q-9 0 -14 8l-68 103q-2 3 -2 7z" />
    <glyph glyph-name="rcaron" unicode="&#x159;" horiz-adv-x="345" 
d="M324 505q8 -4 6 -15l-17 -91q-1 -12 -14 -7t-30 5q-7 0 -21 -2q-34 -3 -56.5 -31t-22.5 -70v-282q0 -5 -3.5 -8.5t-8.5 -3.5h-92q-5 0 -8.5 3.5t-3.5 8.5v487q0 5 3.5 8.5t8.5 3.5h92q5 0 8.5 -3.5t3.5 -8.5v-43q0 -4 1.5 -4.5t3.5 2.5q36 63 101 63q28 0 49 -12zM63 692
q0 8 9 8h71q10 0 14 -8l40 -65q2 -3 4 -3t3 3l40 65q4 8 14 8h71q7 0 9.5 -4.5t-1.5 -10.5l-71 -103q-5 -8 -14 -8h-105q-9 0 -14 8l-68 103q-2 3 -2 7z" />
    <glyph glyph-name="Sacute" unicode="&#x15a;" horiz-adv-x="513" 
d="M143 15.5q-50 23.5 -77.5 67t-27.5 100.5v26q0 5 3.5 8.5t8.5 3.5h90q5 0 8.5 -3.5t3.5 -8.5v-20q0 -43 30 -70t81 -27q47 0 72 24t25 63q0 27 -14 46.5t-39.5 36t-78.5 44.5q-61 32 -98 57t-62.5 64t-25.5 95q0 86 57.5 136t151.5 50q65 0 115 -24.5t77 -69.5t27 -103
v-21q0 -5 -3.5 -8.5t-8.5 -3.5h-90q-5 0 -8.5 3.5t-3.5 8.5v19q0 43 -29 71t-78 28q-43 0 -68 -22.5t-25 -62.5q0 -27 13 -46t39.5 -36t80.5 -44q72 -41 106 -64t57.5 -59.5t23.5 -89.5q0 -88 -59 -140t-158 -52q-66 0 -116 23.5zM196 768q-2 4 1 10l57 103q5 8 15 8h75
q7 0 9.5 -4.5t-1.5 -10.5l-71 -102q-5 -8 -14 -8h-62q-7 0 -9 4z" />
    <glyph glyph-name="sacute" unicode="&#x15b;" horiz-adv-x="448" 
d="M88 33q-52 39 -52 102v8q0 5 3.5 8.5t8.5 3.5h87q5 0 8.5 -3.5t3.5 -8.5v-3q0 -24 23 -41.5t57 -17.5q33 0 53.5 16t20.5 40t-20.5 37t-63.5 28l-26 9q-68 22 -109 55.5t-41 99.5q0 70 50 110.5t132 40.5q85 0 135.5 -41.5t50.5 -110.5v-1q0 -5 -3.5 -8.5t-8.5 -3.5h-84
q-5 0 -8.5 3.5t-3.5 8.5v4q0 25 -21 41.5t-55 16.5q-33 0 -53 -15.5t-20 -39.5q0 -19 14 -31.5t31.5 -19.5t61.5 -22q47 -16 79.5 -33t55.5 -47t23 -76q0 -69 -51.5 -108.5t-138.5 -39.5t-139 39zM168 579q-2 4 1 10l57 103q5 8 15 8h75q7 0 9.5 -4.5t-1.5 -10.5l-71 -102
q-5 -8 -14 -8h-62q-7 0 -9 4z" />
    <glyph glyph-name="Scircumflex" unicode="&#x15c;" horiz-adv-x="513" 
d="M143 15.5q-50 23.5 -77.5 67t-27.5 100.5v26q0 5 3.5 8.5t8.5 3.5h90q5 0 8.5 -3.5t3.5 -8.5v-20q0 -43 30 -70t81 -27q47 0 72 24t25 63q0 27 -14 46.5t-39.5 36t-78.5 44.5q-61 32 -98 57t-62.5 64t-25.5 95q0 86 57.5 136t151.5 50q65 0 115 -24.5t77 -69.5t27 -103
v-21q0 -5 -3.5 -8.5t-8.5 -3.5h-90q-5 0 -8.5 3.5t-3.5 8.5v19q0 43 -29 71t-78 28q-43 0 -68 -22.5t-25 -62.5q0 -27 13 -46t39.5 -36t80.5 -44q72 -41 106 -64t57.5 -59.5t23.5 -89.5q0 -88 -59 -140t-158 -52q-66 0 -116 23.5zM115 767.5q-2 4.5 2 10.5l68 103q5 8 14 8
h105q9 0 14 -8l71 -103q2 -3 2 -7q0 -8 -10 -8h-71q-10 0 -14 8l-40 65q-2 3 -4 3t-3 -3l-40 -65q-4 -8 -14 -8h-71q-7 0 -9 4.5z" />
    <glyph glyph-name="scircumflex" unicode="&#x15d;" horiz-adv-x="448" 
d="M88 33q-52 39 -52 102v8q0 5 3.5 8.5t8.5 3.5h87q5 0 8.5 -3.5t3.5 -8.5v-3q0 -24 23 -41.5t57 -17.5q33 0 53.5 16t20.5 40t-20.5 37t-63.5 28l-26 9q-68 22 -109 55.5t-41 99.5q0 70 50 110.5t132 40.5q85 0 135.5 -41.5t50.5 -110.5v-1q0 -5 -3.5 -8.5t-8.5 -3.5h-84
q-5 0 -8.5 3.5t-3.5 8.5v4q0 25 -21 41.5t-55 16.5q-33 0 -53 -15.5t-20 -39.5q0 -19 14 -31.5t31.5 -19.5t61.5 -22q47 -16 79.5 -33t55.5 -47t23 -76q0 -69 -51.5 -108.5t-138.5 -39.5t-139 39zM86 578.5q-2 4.5 2 10.5l68 103q5 8 14 8h105q9 0 14 -8l71 -103q2 -3 2 -7
q0 -8 -10 -8h-71q-10 0 -14 8l-40 65q-2 3 -4 3t-3 -3l-40 -65q-4 -8 -14 -8h-71q-7 0 -9 4.5z" />
    <glyph glyph-name="Scedilla" unicode="&#x15e;" horiz-adv-x="513" 
d="M430 56.5q-46 -50.5 -125 -61.5q-7 -1 -2 -6q41 -42 41 -88q0 -13 -3 -25q-8 -33 -32 -47t-56 -14q-24 0 -47 7q-9 3 -8 14l5 37q1 12 14 9q10 -2 13 -2q17 0 27 9.5t10 27.5q0 36 -46 75q-4 2 -6 2q-81 11 -129 62t-48 127v26q0 5 3.5 8.5t8.5 3.5h90q5 0 8.5 -3.5
t3.5 -8.5v-20q0 -43 30 -70t81 -27q47 0 72 24t25 63q0 27 -14 46.5t-39.5 36t-78.5 44.5q-61 32 -98 57t-62.5 64t-25.5 95q0 86 57.5 136t151.5 50q65 0 115 -24.5t77 -69.5t27 -103v-21q0 -5 -3.5 -8.5t-8.5 -3.5h-90q-5 0 -8.5 3.5t-3.5 8.5v19q0 43 -29 71t-78 28
q-43 0 -68 -22.5t-25 -62.5q0 -27 13 -46t39.5 -36t80.5 -44q72 -41 106 -64t57.5 -59.5t23.5 -89.5q0 -77 -46 -127.5z" />
    <glyph glyph-name="scedilla" unicode="&#x15f;" horiz-adv-x="448" 
d="M379.5 46.5q-37.5 -37.5 -102.5 -48.5q-6 -2 -2 -6q42 -43 42 -90q0 -12 -3 -24q-8 -33 -32 -47.5t-56 -14.5q-25 0 -46 7q-10 4 -9 15l5 37q1 12 15 9q10 -2 14 -2q16 0 25.5 9.5t9.5 27.5q0 35 -45 75q-4 2 -6 2q-71 8 -112 46t-41 93v8q0 5 3.5 8.5t8.5 3.5h87
q5 0 8.5 -3.5t3.5 -8.5v-3q0 -24 23 -41.5t57 -17.5q33 0 53.5 16t20.5 40t-20.5 37t-63.5 28l-26 9q-68 22 -109 55.5t-41 99.5q0 70 50 110.5t132 40.5q85 0 135.5 -41.5t50.5 -110.5v-1q0 -5 -3.5 -8.5t-8.5 -3.5h-84q-5 0 -8.5 3.5t-3.5 8.5v4q0 25 -21 41.5t-55 16.5
q-33 0 -53 -15.5t-20 -39.5q0 -19 14 -31.5t31.5 -19.5t61.5 -22q47 -16 79.5 -33t55.5 -47t23 -76q0 -58 -37.5 -95.5z" />
    <glyph glyph-name="Scaron" unicode="&#x160;" horiz-adv-x="513" 
d="M143 15.5q-50 23.5 -77.5 67t-27.5 100.5v26q0 5 3.5 8.5t8.5 3.5h90q5 0 8.5 -3.5t3.5 -8.5v-20q0 -43 30 -70t81 -27q47 0 72 24t25 63q0 27 -14 46.5t-39.5 36t-78.5 44.5q-61 32 -98 57t-62.5 64t-25.5 95q0 86 57.5 136t151.5 50q65 0 115 -24.5t77 -69.5t27 -103
v-21q0 -5 -3.5 -8.5t-8.5 -3.5h-90q-5 0 -8.5 3.5t-3.5 8.5v19q0 43 -29 71t-78 28q-43 0 -68 -22.5t-25 -62.5q0 -27 13 -46t39.5 -36t80.5 -44q72 -41 106 -64t57.5 -59.5t23.5 -89.5q0 -88 -59 -140t-158 -52q-66 0 -116 23.5zM119 881q0 8 9 8h71q10 0 14 -8l40 -65
q2 -3 4 -3t3 3l40 65q4 8 14 8h71q7 0 9.5 -4.5t-1.5 -10.5l-71 -103q-5 -8 -14 -8h-105q-9 0 -14 8l-68 103q-2 3 -2 7z" />
    <glyph glyph-name="scaron" unicode="&#x161;" horiz-adv-x="448" 
d="M88 33q-52 39 -52 102v8q0 5 3.5 8.5t8.5 3.5h87q5 0 8.5 -3.5t3.5 -8.5v-3q0 -24 23 -41.5t57 -17.5q33 0 53.5 16t20.5 40t-20.5 37t-63.5 28l-26 9q-68 22 -109 55.5t-41 99.5q0 70 50 110.5t132 40.5q85 0 135.5 -41.5t50.5 -110.5v-1q0 -5 -3.5 -8.5t-8.5 -3.5h-84
q-5 0 -8.5 3.5t-3.5 8.5v4q0 25 -21 41.5t-55 16.5q-33 0 -53 -15.5t-20 -39.5q0 -19 14 -31.5t31.5 -19.5t61.5 -22q47 -16 79.5 -33t55.5 -47t23 -76q0 -69 -51.5 -108.5t-138.5 -39.5t-139 39zM91 692q0 8 9 8h71q10 0 14 -8l40 -65q2 -3 4 -3t3 3l40 65q4 8 14 8h71
q7 0 9.5 -4.5t-1.5 -10.5l-71 -103q-5 -8 -14 -8h-105q-9 0 -14 8l-68 103q-2 3 -2 7z" />
    <glyph glyph-name="uni0162" unicode="&#x162;" horiz-adv-x="516" 
d="M481.5 696.5q3.5 -3.5 3.5 -8.5v-77q0 -5 -3.5 -8.5t-8.5 -3.5h-155q-5 0 -5 -5v-582q0 -5 -3.5 -8.5t-8.5 -3.5h-92q-5 0 -8.5 3.5t-3.5 8.5v582q0 5 -5 5h-149q-5 0 -8.5 3.5t-3.5 8.5v77q0 5 3.5 8.5t8.5 3.5h430q5 0 8.5 -3.5zM224 -168l5 37q1 12 15 9q8 -2 13 -2
q16 0 26 9.5t10 27.5q0 35 -43 72q-6 4 -6 9q0 6 10 6h50q9 0 15 -6q51 -44 51 -97q0 -13 -3 -25q-8 -33 -32 -47.5t-56 -14.5q-24 0 -47 7q-9 4 -8 15z" />
    <glyph glyph-name="uni0163" unicode="&#x163;" horiz-adv-x="328" 
d="M292.5 426.5q-3.5 -3.5 -8.5 -3.5h-81q-5 0 -5 -5v-251q0 -37 14.5 -52.5t45.5 -14.5h18q5 0 8.5 -3.5t3.5 -8.5v-76q0 -11 -12 -13h-14q-3 0 -3.5 -2t1.5 -4q32 -38 32 -78q0 -12 -3 -24q-8 -33 -32 -47.5t-56 -14.5q-24 0 -47 7q-9 3 -8 14l5 37q1 12 14 9q10 -2 13 -2
q16 0 26.5 9.5t10.5 28.5q0 32 -41 70l-6 3q-40 9 -61 37t-21 81v295q0 5 -5 5h-46q-5 0 -8.5 3.5t-3.5 8.5v64q0 5 3.5 8.5t8.5 3.5h46q5 0 5 5v114q0 5 3.5 8.5t8.5 3.5h88q5 0 8.5 -3.5t3.5 -8.5v-114q0 -5 5 -5h81q5 0 8.5 -3.5t3.5 -8.5v-64q0 -5 -3.5 -8.5z" />
    <glyph glyph-name="Tcaron" unicode="&#x164;" horiz-adv-x="516" 
d="M481.5 696.5q3.5 -3.5 3.5 -8.5v-77q0 -5 -3.5 -8.5t-8.5 -3.5h-155q-5 0 -5 -5v-582q0 -5 -3.5 -8.5t-8.5 -3.5h-92q-5 0 -8.5 3.5t-3.5 8.5v582q0 5 -5 5h-149q-5 0 -8.5 3.5t-3.5 8.5v77q0 5 3.5 8.5t8.5 3.5h430q5 0 8.5 -3.5zM122 879q0 8 9 8h71q10 0 14 -8l40 -65
q2 -3 4 -3t3 3l40 65q4 8 14 8h71q7 0 9.5 -4.5t-1.5 -10.5l-71 -103q-5 -8 -14 -8h-105q-9 0 -14 8l-68 103q-2 3 -2 7z" />
    <glyph glyph-name="tcaron" unicode="&#x165;" horiz-adv-x="328" 
d="M292.5 426.5q-3.5 -3.5 -8.5 -3.5h-81q-5 0 -5 -5v-251q0 -37 14.5 -52.5t45.5 -14.5h18q5 0 8.5 -3.5t3.5 -8.5v-76q0 -11 -12 -13h-42q-74 0 -111 26t-37 98v295q0 5 -5 5h-46q-5 0 -8.5 3.5t-3.5 8.5v64q0 5 3.5 8.5t8.5 3.5h46q5 0 5 5v114q0 5 3.5 8.5t8.5 3.5h88
q5 0 8.5 -3.5t3.5 -8.5v-114q0 -5 5 -5h81q5 0 8.5 -3.5t3.5 -8.5v-64q0 -5 -3.5 -8.5zM228 579q-2 4 1 10l57 103q5 8 15 8h75q7 0 9.5 -4.5t-1.5 -10.5l-71 -102q-5 -8 -14 -8h-62q-7 0 -9 4z" />
    <glyph glyph-name="Tbar" unicode="&#x166;" horiz-adv-x="516" 
d="M481.5 602.5q-3.5 -3.5 -8.5 -3.5h-155q-5 0 -5 -5v-177q0 -5 5 -5h78q5 0 8.5 -3.5t3.5 -8.5v-47q0 -5 -3.5 -8.5t-8.5 -3.5h-78q-5 0 -5 -5v-324q0 -5 -3.5 -8.5t-8.5 -3.5h-92q-5 0 -8.5 3.5t-3.5 8.5v324q0 5 -5 5h-81q-5 0 -8.5 3.5t-3.5 8.5v47q0 5 3.5 8.5
t8.5 3.5h81q5 0 5 5v177q0 5 -5 5h-149q-5 0 -8.5 3.5t-3.5 8.5v77q0 5 3.5 8.5t8.5 3.5h430q5 0 8.5 -3.5t3.5 -8.5v-77q0 -5 -3.5 -8.5z" />
    <glyph glyph-name="tbar" unicode="&#x167;" horiz-adv-x="328" 
d="M292.5 426.5q-3.5 -3.5 -8.5 -3.5h-81q-5 0 -5 -5v-64q0 -5 5 -5h80q5 0 8.5 -3.5t3.5 -8.5v-47q0 -5 -3.5 -8.5t-8.5 -3.5h-80q-5 0 -5 -5v-106q0 -37 14.5 -52.5t45.5 -14.5h18q5 0 8.5 -3.5t3.5 -8.5v-76q0 -11 -12 -13h-42q-74 0 -111 26t-37 98v150q0 5 -5 5h-44
q-5 0 -8.5 3.5t-3.5 8.5v47q0 5 3.5 8.5t8.5 3.5h44q5 0 5 5v64q0 5 -5 5h-46q-5 0 -8.5 3.5t-3.5 8.5v64q0 5 3.5 8.5t8.5 3.5h46q5 0 5 5v114q0 5 3.5 8.5t8.5 3.5h88q5 0 8.5 -3.5t3.5 -8.5v-114q0 -5 5 -5h81q5 0 8.5 -3.5t3.5 -8.5v-64q0 -5 -3.5 -8.5z" />
    <glyph glyph-name="Utilde" unicode="&#x168;" horiz-adv-x="557" 
d="M163 19q-50 27 -77.5 76.5t-27.5 114.5v478q0 5 3.5 8.5t8.5 3.5h92q5 0 8.5 -3.5t3.5 -8.5v-484q0 -50 28.5 -81t75.5 -31t76 31t29 81v484q0 5 3.5 8.5t8.5 3.5h92q5 0 8.5 -3.5t3.5 -8.5v-478q0 -65 -27.5 -114.5t-77.5 -76.5t-116 -27q-65 0 -115 27zM316 781
q-13 5 -30 15l-16 8t-17 7t-15 2q-28 0 -47 -22q-8 -10 -16 -2l-33 30q-8 8 -3 17q15 28 39 43t53 15q19 0 33 -5.5t35 -17.5q4 -2 13.5 -7.5t17.5 -8t16 -2.5q27 0 44 23q5 7 10 7q3 0 7 -4l31 -30q4 -4 4 -9t-2 -8q-14 -27 -39 -41.5t-55 -14.5q-17 0 -30 5z" />
    <glyph glyph-name="utilde" unicode="&#x169;" horiz-adv-x="491" 
d="M323.5 507.5q3.5 3.5 8.5 3.5h92q5 0 8.5 -3.5t3.5 -8.5v-487q0 -5 -3.5 -8.5t-8.5 -3.5h-92q-5 0 -8.5 3.5t-3.5 8.5v27q0 3 -2 3.5t-4 -2.5q-34 -47 -107 -47q-68 0 -113 40.5t-45 118.5v347q0 5 3.5 8.5t8.5 3.5h92q5 0 8.5 -3.5t3.5 -8.5v-318q0 -42 19.5 -65.5
t56.5 -23.5t58 24.5t21 66.5v316q0 5 3.5 8.5zM281 592q-13 5 -30 15l-16 8t-17 7t-15 2q-28 0 -47 -22q-8 -10 -16 -2l-33 30q-8 8 -3 17q15 28 39 43t53 15q19 0 33 -5.5t35 -17.5q4 -2 13.5 -7.5t17.5 -8t16 -2.5q27 0 44 23q5 7 10 7q3 0 7 -4l31 -30q4 -4 4 -9t-2 -8
q-14 -27 -39 -41.5t-55 -14.5q-17 0 -30 5z" />
    <glyph glyph-name="Umacron" unicode="&#x16a;" horiz-adv-x="557" 
d="M163 19q-50 27 -77.5 76.5t-27.5 114.5v478q0 5 3.5 8.5t8.5 3.5h92q5 0 8.5 -3.5t3.5 -8.5v-484q0 -50 28.5 -81t75.5 -31t76 31t29 81v484q0 5 3.5 8.5t8.5 3.5h92q5 0 8.5 -3.5t3.5 -8.5v-478q0 -65 -27.5 -114.5t-77.5 -76.5t-116 -27q-65 0 -115 27zM156.5 777.5
q-3.5 3.5 -3.5 8.5v56q0 5 3.5 8.5t8.5 3.5h225q5 0 8.5 -3.5t3.5 -8.5v-56q0 -5 -3.5 -8.5t-8.5 -3.5h-225q-5 0 -8.5 3.5z" />
    <glyph glyph-name="umacron" unicode="&#x16b;" horiz-adv-x="491" 
d="M323.5 507.5q3.5 3.5 8.5 3.5h92q5 0 8.5 -3.5t3.5 -8.5v-487q0 -5 -3.5 -8.5t-8.5 -3.5h-92q-5 0 -8.5 3.5t-3.5 8.5v27q0 3 -2 3.5t-4 -2.5q-34 -47 -107 -47q-68 0 -113 40.5t-45 118.5v347q0 5 3.5 8.5t8.5 3.5h92q5 0 8.5 -3.5t3.5 -8.5v-318q0 -42 19.5 -65.5
t56.5 -23.5t58 24.5t21 66.5v316q0 5 3.5 8.5zM121.5 588.5q-3.5 3.5 -3.5 8.5v56q0 5 3.5 8.5t8.5 3.5h225q5 0 8.5 -3.5t3.5 -8.5v-56q0 -5 -3.5 -8.5t-8.5 -3.5h-225q-5 0 -8.5 3.5z" />
    <glyph glyph-name="Ubreve" unicode="&#x16c;" horiz-adv-x="557" 
d="M163 19q-50 27 -77.5 76.5t-27.5 114.5v478q0 5 3.5 8.5t8.5 3.5h92q5 0 8.5 -3.5t3.5 -8.5v-484q0 -50 28.5 -81t75.5 -31t76 31t29 81v484q0 5 3.5 8.5t8.5 3.5h92q5 0 8.5 -3.5t3.5 -8.5v-478q0 -65 -27.5 -114.5t-77.5 -76.5t-116 -27q-65 0 -115 27zM189.5 788.5
q-35.5 29.5 -40.5 75.5v2q0 10 11 10h43q10 0 12 -11q5 -23 22 -36.5t41 -13.5t41.5 14t21.5 36q2 11 12 11h43q12 0 12 -11q-5 -46 -41 -76t-89 -30t-88.5 29.5z" />
    <glyph glyph-name="ubreve" unicode="&#x16d;" horiz-adv-x="491" 
d="M323.5 507.5q3.5 3.5 8.5 3.5h92q5 0 8.5 -3.5t3.5 -8.5v-487q0 -5 -3.5 -8.5t-8.5 -3.5h-92q-5 0 -8.5 3.5t-3.5 8.5v27q0 3 -2 3.5t-4 -2.5q-34 -47 -107 -47q-68 0 -113 40.5t-45 118.5v347q0 5 3.5 8.5t8.5 3.5h92q5 0 8.5 -3.5t3.5 -8.5v-318q0 -42 19.5 -65.5
t56.5 -23.5t58 24.5t21 66.5v316q0 5 3.5 8.5zM154.5 599.5q-35.5 29.5 -40.5 75.5v2q0 10 11 10h43q10 0 12 -11q5 -23 22 -36.5t41 -13.5t41.5 14t21.5 36q2 11 12 11h43q12 0 12 -11q-5 -46 -41 -76t-89 -30t-88.5 29.5z" />
    <glyph glyph-name="Uring" unicode="&#x16e;" horiz-adv-x="557" 
d="M163 19q-50 27 -77.5 76.5t-27.5 114.5v478q0 5 3.5 8.5t8.5 3.5h92q5 0 8.5 -3.5t3.5 -8.5v-484q0 -50 28.5 -81t75.5 -31t76 31t29 81v484q0 5 3.5 8.5t8.5 3.5h92q5 0 8.5 -3.5t3.5 -8.5v-478q0 -65 -27.5 -114.5t-77.5 -76.5t-116 -27q-65 0 -115 27zM194.5 791.5
q-34.5 34.5 -34.5 84.5t34.5 84t84.5 34t84 -34t34 -84t-34 -84.5t-84 -34.5t-84.5 34.5zM318 836.5q16 16.5 16 39.5q0 24 -16 40t-39 16t-39 -16t-16 -40q0 -23 16 -39.5t39 -16.5t39 16.5z" />
    <glyph glyph-name="uring" unicode="&#x16f;" horiz-adv-x="491" 
d="M323.5 507.5q3.5 3.5 8.5 3.5h92q5 0 8.5 -3.5t3.5 -8.5v-487q0 -5 -3.5 -8.5t-8.5 -3.5h-92q-5 0 -8.5 3.5t-3.5 8.5v27q0 3 -2 3.5t-4 -2.5q-34 -47 -107 -47q-68 0 -113 40.5t-45 118.5v347q0 5 3.5 8.5t8.5 3.5h92q5 0 8.5 -3.5t3.5 -8.5v-318q0 -42 19.5 -65.5
t56.5 -23.5t58 24.5t21 66.5v316q0 5 3.5 8.5zM159.5 602.5q-34.5 34.5 -34.5 84.5t34.5 84t84.5 34t84 -34t34 -84t-34 -84.5t-84 -34.5t-84.5 34.5zM283 647.5q16 16.5 16 39.5q0 24 -16 40t-39 16t-39 -16t-16 -40q0 -23 16 -39.5t39 -16.5t39 16.5z" />
    <glyph glyph-name="Uhungarumlaut" unicode="&#x170;" horiz-adv-x="557" 
d="M163 19q-50 27 -77.5 76.5t-27.5 114.5v478q0 5 3.5 8.5t8.5 3.5h92q5 0 8.5 -3.5t3.5 -8.5v-484q0 -50 28.5 -81t75.5 -31t76 31t29 81v484q0 5 3.5 8.5t8.5 3.5h92q5 0 8.5 -3.5t3.5 -8.5v-478q0 -65 -27.5 -114.5t-77.5 -76.5t-116 -27q-65 0 -115 27zM157.5 767.5
q-2.5 3.5 0.5 10.5l50 102q4 9 14 9h77q7 0 9 -4t-1 -10l-54 -102q-5 -9 -15 -9h-71q-7 0 -9.5 3.5zM317 768q-2 4 1 10l54 102q4 9 15 9h72q7 0 9 -4t-1 -10l-54 -102q-5 -9 -15 -9h-72q-7 0 -9 4z" />
    <glyph glyph-name="uhungarumlaut" unicode="&#x171;" horiz-adv-x="491" 
d="M323.5 507.5q3.5 3.5 8.5 3.5h92q5 0 8.5 -3.5t3.5 -8.5v-487q0 -5 -3.5 -8.5t-8.5 -3.5h-92q-5 0 -8.5 3.5t-3.5 8.5v27q0 3 -2 3.5t-4 -2.5q-34 -47 -107 -47q-68 0 -113 40.5t-45 118.5v347q0 5 3.5 8.5t8.5 3.5h92q5 0 8.5 -3.5t3.5 -8.5v-318q0 -42 19.5 -65.5
t56.5 -23.5t58 24.5t21 66.5v316q0 5 3.5 8.5zM123.5 578.5q-2.5 3.5 0.5 10.5l50 102q4 9 14 9h77q7 0 9 -4t-1 -10l-54 -102q-5 -9 -15 -9h-71q-7 0 -9.5 3.5zM283 579q-2 4 1 10l54 102q4 9 15 9h72q7 0 9 -4t-1 -10l-54 -102q-5 -9 -15 -9h-72q-7 0 -9 4z" />
    <glyph glyph-name="Uogonek" unicode="&#x172;" horiz-adv-x="557" 
d="M386.5 696.5q3.5 3.5 8.5 3.5h92q5 0 8.5 -3.5t3.5 -8.5v-478q0 -89 -50 -147t-135 -69q-2 0 -6 -2q-38 -38 -38 -68q0 -19 10 -28.5t25 -9.5q4 0 14 2l6 1q8 0 9 -10l5 -37v-3q0 -8 -9 -12q-21 -7 -46 -7q-32 0 -56 14.5t-32 47.5q-3 12 -3 25q0 42 37 83q4 4 -2 6
q-78 15 -124 72.5t-46 141.5v478q0 5 3.5 8.5t8.5 3.5h92q5 0 8.5 -3.5t3.5 -8.5v-484q0 -50 28.5 -81t75.5 -31t76 31t29 81v484q0 5 3.5 8.5z" />
    <glyph glyph-name="uogonek" unicode="&#x173;" horiz-adv-x="491" 
d="M432 -121q8 0 9 -10l5 -37v-4q0 -7 -8 -11q-23 -7 -47 -7q-32 0 -56 14.5t-32 47.5q-3 12 -3 24q0 51 51 98q2 2 1.5 4t-3.5 2h-17q-5 0 -8.5 3.5t-3.5 8.5v27q0 3 -2 3.5t-4 -2.5q-34 -47 -107 -47q-68 0 -113 40.5t-45 118.5v347q0 5 3.5 8.5t8.5 3.5h92q5 0 8.5 -3.5
t3.5 -8.5v-318q0 -42 19.5 -65.5t56.5 -23.5t58 24.5t21 66.5v316q0 5 3.5 8.5t8.5 3.5h92q5 0 8.5 -3.5t3.5 -8.5v-496q0 -4 -2 -6l-14 -12q-43 -37 -43 -72q0 -18 10 -27.5t26 -9.5q4 0 14 2z" />
    <glyph glyph-name="Wcircumflex" unicode="&#x174;" horiz-adv-x="785" 
d="M183 10l-158 677v4q0 9 11 9h96q11 0 13 -11l93 -437q1 -3 3 -3t3 4l86 436q1 11 13 11h87q11 0 13 -11l93 -437q1 -4 3 -4t3 4l88 437q2 11 13 11h92q14 0 11 -13l-149 -676q-2 -11 -13 -11h-90q-11 0 -13 11l-92 451q-1 3 -3 3t-3 -3l-87 -451q-1 -11 -13 -11h-87
q-10 0 -13 10zM254 767.5q-2 4.5 2 10.5l68 103q5 8 14 8h105q9 0 14 -8l71 -103q2 -3 2 -7q0 -8 -10 -8h-71q-10 0 -14 8l-40 65q-2 3 -4 3t-3 -3l-40 -65q-4 -8 -14 -8h-71q-7 0 -9 4.5z" />
    <glyph glyph-name="wcircumflex" unicode="&#x175;" horiz-adv-x="677" 
d="M147 10l-124 489v4q0 9 11 9h90q11 0 13 -11l69 -314q1 -4 3 -4t3 4l70 314q2 11 13 11h82q10 0 13 -10l73 -315q1 -4 3 -4t3 4l71 314q3 11 13 11l90 -2q14 0 11 -13l-125 -487q-3 -10 -14 -10h-92q-10 0 -13 10l-72 300q-1 4 -3 4t-3 -4l-67 -299q-2 -11 -13 -11h-91
q-11 0 -14 10zM198 578.5q-2 4.5 2 10.5l68 103q5 8 14 8h105q9 0 14 -8l71 -103q2 -3 2 -7q0 -8 -10 -8h-71q-10 0 -14 8l-40 65q-2 3 -4 3t-3 -3l-40 -65q-4 -8 -14 -8h-71q-7 0 -9 4.5z" />
    <glyph glyph-name="Ycircumflex" unicode="&#x176;" horiz-adv-x="528" 
d="M209.5 4.5q-3.5 3.5 -3.5 8.5v270l-1 6l-173 397q-1 2 -1 6q0 8 10 8h98q11 0 14 -9l108 -270q3 -7 6 0l107 270q3 9 14 9h99q7 0 9 -4t0 -10l-174 -397l-1 -6v-270q0 -5 -3.5 -8.5t-8.5 -3.5h-91q-5 0 -8.5 3.5zM126 766.5q-2 4.5 2 10.5l68 103q5 8 14 8h105q9 0 14 -8
l71 -103q2 -3 2 -7q0 -8 -10 -8h-71q-10 0 -14 8l-40 65q-2 3 -4 3t-3 -3l-40 -65q-4 -8 -14 -8h-71q-7 0 -9 4.5z" />
    <glyph glyph-name="ycircumflex" unicode="&#x177;" horiz-adv-x="446" 
d="M42 -195.5q-2 3.5 -2 8.5v72q0 12 11 12q37 1 58 8.5t34 29t21 62.5q1 2 0 6l-145 495l-1 4q0 10 11 10h99q10 0 13 -10l80 -342q1 -4 3 -4t3 4l80 341q3 11 13 11l97 -1q6 0 8.5 -3.5t1.5 -9.5l-155 -526q-22 -71 -44.5 -106t-62 -50t-112.5 -15h-6q-3 0 -5 3.5z
M85 582.5q-2 4.5 2 10.5l68 103q5 8 14 8h105q9 0 14 -8l71 -103q2 -3 2 -7q0 -8 -10 -8h-71q-10 0 -14 8l-40 65q-2 3 -4 3t-3 -3l-40 -65q-4 -8 -14 -8h-71q-7 0 -9 4.5z" />
    <glyph glyph-name="Ydieresis" unicode="&#x178;" horiz-adv-x="528" 
d="M209.5 4.5q-3.5 3.5 -3.5 8.5v270l-1 6l-173 397q-1 2 -1 6q0 8 10 8h98q11 0 14 -9l108 -270q3 -7 6 0l107 270q3 9 14 9h99q7 0 9 -4t0 -10l-174 -397l-1 -6v-270q0 -5 -3.5 -8.5t-8.5 -3.5h-91q-5 0 -8.5 3.5zM304 792q-20 20 -20 51t20 51t51 20t50.5 -20t19.5 -51
t-20 -51t-50 -20q-31 0 -51 20zM123 792q-20 20 -20 51t20 51t51 20t50.5 -20t19.5 -51t-20 -51t-50 -20q-31 0 -51 20z" />
    <glyph glyph-name="Zacute" unicode="&#x179;" horiz-adv-x="480" 
d="M34.5 3.5q-3.5 3.5 -3.5 8.5v83q0 8 4 15l281 484q3 6 -4 6h-269q-5 0 -8.5 3.5t-3.5 8.5v76q0 5 3.5 8.5t8.5 3.5h389q5 0 8.5 -3.5t3.5 -8.5v-83q0 -8 -4 -15l-281 -484q-3 -6 4 -6h269q5 0 8.5 -3.5t3.5 -8.5v-76q0 -5 -3.5 -8.5t-8.5 -3.5h-389q-5 0 -8.5 3.5z
M181 768q-2 4 1 10l57 103q5 8 15 8h75q7 0 9.5 -4.5t-1.5 -10.5l-71 -102q-5 -8 -14 -8h-62q-7 0 -9 4z" />
    <glyph glyph-name="zacute" unicode="&#x17a;" horiz-adv-x="412" 
d="M29.5 3.5q-3.5 3.5 -3.5 8.5v85q0 7 5 15l209 288q2 2 0.5 4t-4.5 2h-193q-5 0 -8.5 3.5t-3.5 8.5v81q0 5 3.5 8.5t8.5 3.5h326q5 0 8.5 -3.5t3.5 -8.5v-85q0 -8 -5 -15l-214 -288q-2 -2 -1 -4t4 -2h208q5 0 8.5 -3.5t3.5 -8.5v-81q0 -5 -3.5 -8.5t-8.5 -3.5h-335
q-5 0 -8.5 3.5zM149 579q-2 4 1 10l57 103q5 8 15 8h75q7 0 9.5 -4.5t-1.5 -10.5l-71 -102q-5 -8 -14 -8h-62q-7 0 -9 4z" />
    <glyph glyph-name="Zdotaccent" unicode="&#x17b;" horiz-adv-x="480" 
d="M34.5 3.5q-3.5 3.5 -3.5 8.5v83q0 8 4 15l281 484q3 6 -4 6h-269q-5 0 -8.5 3.5t-3.5 8.5v76q0 5 3.5 8.5t8.5 3.5h389q5 0 8.5 -3.5t3.5 -8.5v-83q0 -8 -4 -15l-281 -484q-3 -6 4 -6h269q5 0 8.5 -3.5t3.5 -8.5v-76q0 -5 -3.5 -8.5t-8.5 -3.5h-389q-5 0 -8.5 3.5z
M187 790q-20 20 -20 51t20 51t51 20t50.5 -20t19.5 -51t-20 -51t-50 -20q-31 0 -51 20z" />
    <glyph glyph-name="zdotaccent" unicode="&#x17c;" horiz-adv-x="412" 
d="M29.5 3.5q-3.5 3.5 -3.5 8.5v85q0 7 5 15l209 288q2 2 0.5 4t-4.5 2h-193q-5 0 -8.5 3.5t-3.5 8.5v81q0 5 3.5 8.5t8.5 3.5h326q5 0 8.5 -3.5t3.5 -8.5v-85q0 -8 -5 -15l-214 -288q-2 -2 -1 -4t4 -2h208q5 0 8.5 -3.5t3.5 -8.5v-81q0 -5 -3.5 -8.5t-8.5 -3.5h-335
q-5 0 -8.5 3.5zM155 601q-20 20 -20 51t20 51t51 20t50.5 -20t19.5 -51t-20 -51t-50 -20q-31 0 -51 20z" />
    <glyph glyph-name="Zcaron" unicode="&#x17d;" horiz-adv-x="480" 
d="M34.5 3.5q-3.5 3.5 -3.5 8.5v83q0 8 4 15l281 484q3 6 -4 6h-269q-5 0 -8.5 3.5t-3.5 8.5v76q0 5 3.5 8.5t8.5 3.5h389q5 0 8.5 -3.5t3.5 -8.5v-83q0 -8 -4 -15l-281 -484q-3 -6 4 -6h269q5 0 8.5 -3.5t3.5 -8.5v-76q0 -5 -3.5 -8.5t-8.5 -3.5h-389q-5 0 -8.5 3.5z
M104 881q0 8 9 8h71q10 0 14 -8l40 -65q2 -3 4 -3t3 3l40 65q4 8 14 8h71q7 0 9.5 -4.5t-1.5 -10.5l-71 -103q-5 -8 -14 -8h-105q-9 0 -14 8l-68 103q-2 3 -2 7z" />
    <glyph glyph-name="zcaron" unicode="&#x17e;" horiz-adv-x="412" 
d="M29.5 3.5q-3.5 3.5 -3.5 8.5v85q0 7 5 15l209 288q2 2 0.5 4t-4.5 2h-193q-5 0 -8.5 3.5t-3.5 8.5v81q0 5 3.5 8.5t8.5 3.5h326q5 0 8.5 -3.5t3.5 -8.5v-85q0 -8 -5 -15l-214 -288q-2 -2 -1 -4t4 -2h208q5 0 8.5 -3.5t3.5 -8.5v-81q0 -5 -3.5 -8.5t-8.5 -3.5h-335
q-5 0 -8.5 3.5zM72 692q0 8 9 8h71q10 0 14 -8l40 -65q2 -3 4 -3t3 3l40 65q4 8 14 8h71q7 0 9.5 -4.5t-1.5 -10.5l-71 -103q-5 -8 -14 -8h-105q-9 0 -14 8l-68 103q-2 3 -2 7z" />
    <glyph glyph-name="uni018F" unicode="&#x18f;" horiz-adv-x="583" 
d="M534 331q0 -84 -7 -143q-12 -90 -75.5 -144.5t-161.5 -54.5q-107 0 -171.5 60.5t-72.5 160.5q-3 45 -3 91l1 58q0 12 12 12h358q5 0 5 5q-1 45 -7 81q-8 51 -43 82t-89 31q-44 -1 -75.5 -25t-47.5 -64q-5 -11 -15 -7l-80 27q-11 4 -8 15q23 73 83 113.5t149 40.5
q98 0 161 -52t77 -142q10 -59 10 -145zM374 121q33 31 40 83q2 15 4 63q0 5 -5 5h-247q-5 0 -5 -5q0 -34 3 -61q5 -52 39.5 -84t86.5 -32q51 0 84 31z" />
    <glyph glyph-name="florin" unicode="&#x192;" horiz-adv-x="513" 
d="M272.5 639.5q20.5 34.5 59.5 49.5t105 15q22 0 34 -1t12 -13l-1 -71q0 -5 -3.5 -8.5t-8.5 -3.5h-34q-37 0 -54.5 -19t-24.5 -62l-17 -106q0 -5 4 -5h69q5 0 8.5 -3.5t3.5 -8.5v-70q0 -5 -3.5 -8.5t-8.5 -3.5h-84q-6 0 -6 -5l-58 -360q-9 -61 -29.5 -95.5t-59.5 -49.5
t-105 -15q-22 0 -34 1t-12 13l1 71q0 5 3.5 8.5t8.5 3.5h34q36 0 54 19t25 62l55 342q0 5 -4 5h-58q-5 0 -8.5 3.5t-3.5 8.5v70q0 5 3.5 8.5t8.5 3.5h73q6 0 6 5l20 124q9 61 29.5 95.5z" />
    <glyph glyph-name="Ohorn" unicode="&#x1a0;" horiz-adv-x="544" 
d="M432 652.5q0 -1.5 2 -3.5q29 -29 45 -69.5t16 -88.5v-282q0 -65 -28 -114.5t-78.5 -76.5t-117.5 -27q-66 0 -116.5 27t-78 76.5t-27.5 114.5v282q0 64 27.5 113.5t78 76.5t116.5 27q54 0 97 -18q4 -1 6 3q2 6 10 8q23 3 40.5 20t20.5 51q0 12 12 12h44q5 0 8.5 -4.5
t2.5 -12.5q-4 -42 -24.5 -70t-52.5 -42q-3 -1 -3 -2.5zM379 494q0 51 -29.5 82.5t-78.5 31.5q-48 0 -77 -31.5t-29 -82.5v-290q0 -50 29 -81.5t77 -31.5q49 0 78.5 31.5t29.5 81.5v290z" />
    <glyph glyph-name="ohorn" unicode="&#x1a1;" horiz-adv-x="488" 
d="M448 257q0 -60 -7 -103q-11 -75 -63 -118.5t-133 -43.5t-133 43.5t-63 117.5q-8 48 -8 103q0 57 8 105q11 73 64 115.5t133 42.5q28 0 59 -7q2 -1 6 -1q25 3 43 20t21 52q2 12 13 12h43q12 0 12 -12q-6 -72 -58 -106q-4 -3 -1 -7q45 -41 56 -108q8 -50 8 -105zM332 256
q0 33 -4 85q-5 36 -27.5 57t-55.5 21q-34 0 -56 -21t-27 -57q-4 -35 -4 -85q0 -51 4 -84q5 -36 27 -58t56 -22q33 0 55.5 22t27.5 58q4 52 4 84z" />
    <glyph glyph-name="Uhorn" unicode="&#x1af;" horiz-adv-x="557" 
d="M600 772q-4 -50 -30.5 -81.5t-66.5 -41.5q-4 -1 -4 -5v-434q0 -65 -27.5 -114.5t-77.5 -76.5t-116 -27q-65 0 -115 27t-77.5 76.5t-27.5 114.5v478q0 5 3.5 8.5t8.5 3.5h92q5 0 8.5 -3.5t3.5 -8.5v-484q0 -50 28.5 -81t75.5 -31t76 31t29 81v484q0 5 3.5 8.5t8.5 3.5h65
q26 0 47.5 17t24.5 55q0 12 12 12h44q12 0 12 -12z" />
    <glyph glyph-name="uhorn" unicode="&#x1b0;" horiz-adv-x="491" 
d="M526 583q-4 -47 -27 -77t-59 -43q-4 -1 -4 -5v-446q0 -5 -3.5 -8.5t-8.5 -3.5h-92q-5 0 -8.5 3.5t-3.5 8.5v27q0 3 -2 3.5t-4 -2.5q-34 -47 -107 -47q-68 0 -113 40.5t-45 118.5v347q0 5 3.5 8.5t8.5 3.5h92q5 0 8.5 -3.5t3.5 -8.5v-318q0 -42 19.5 -65.5t56.5 -23.5
t58 24.5t21 66.5v316q0 5 3.5 8.5t8.5 3.5h53q27 0 48.5 17t24.5 55q0 12 12 12h44q12 0 12 -12z" />
    <glyph glyph-name="uni01CD" unicode="&#x1cd;" horiz-adv-x="552" 
d="M409 10l-26 107q-1 4 -5 4h-206q-4 0 -5 -4l-25 -107q-3 -10 -14 -10h-95q-13 0 -10 13l182 677q3 10 14 10h114q11 0 14 -10l182 -677l1 -4q0 -9 -11 -9h-96q-11 0 -14 10zM192 213.5q2 -1.5 4 -1.5h158q2 0 4 1.5t1 4.5l-82 328q-1 3 -3 3t-3 -3l-80 -328q-1 -3 1 -4.5
zM141 879q0 8 9 8h71q10 0 14 -8l40 -65q2 -3 4 -3t3 3l40 65q4 8 14 8h71q7 0 9.5 -4.5t-1.5 -10.5l-71 -103q-5 -8 -14 -8h-105q-9 0 -14 8l-68 103q-2 3 -2 7z" />
    <glyph glyph-name="uni01CE" unicode="&#x1ce;" horiz-adv-x="477" 
d="M339 497.5q44 -21.5 68.5 -59.5t24.5 -87v-339q0 -5 -3.5 -8.5t-8.5 -3.5h-92q-5 0 -8.5 3.5t-3.5 8.5v25q0 3 -2 4t-4 -1q-42 -48 -121 -48q-66 0 -112 35.5t-46 115.5q0 84 53.5 125t147.5 41h79q5 0 5 5v25q0 37 -20.5 58.5t-56.5 21.5q-29 0 -47.5 -13.5t-23.5 -36.5
q-3 -11 -14 -11l-97 6q-5 0 -8.5 3.5t-2.5 7.5q6 64 59.5 104t132.5 40q57 0 101 -21.5zM287 108.5q29 22.5 29 59.5v52q0 5 -5 5h-67q-44 0 -69.5 -19t-25.5 -55q0 -32 19.5 -48.5t50.5 -16.5q39 0 68 22.5zM105 691q0 8 9 8h71q10 0 14 -8l40 -65q2 -3 4 -3t3 3l40 65
q4 8 14 8h71q7 0 9.5 -4.5t-1.5 -10.5l-71 -103q-5 -8 -14 -8h-105q-9 0 -14 8l-68 103q-2 3 -2 7z" />
    <glyph glyph-name="uni01D4" unicode="&#x1d4;" horiz-adv-x="491" 
d="M323.5 507.5q3.5 3.5 8.5 3.5h92q5 0 8.5 -3.5t3.5 -8.5v-487q0 -5 -3.5 -8.5t-8.5 -3.5h-92q-5 0 -8.5 3.5t-3.5 8.5v27q0 3 -2 3.5t-4 -2.5q-34 -47 -107 -47q-68 0 -113 40.5t-45 118.5v347q0 5 3.5 8.5t8.5 3.5h92q5 0 8.5 -3.5t3.5 -8.5v-318q0 -42 19.5 -65.5
t56.5 -23.5t58 24.5t21 66.5v316q0 5 3.5 8.5zM110 691q0 8 9 8h71q10 0 14 -8l40 -65q2 -3 4 -3t3 3l40 65q4 8 14 8h71q7 0 9.5 -4.5t-1.5 -10.5l-71 -103q-5 -8 -14 -8h-105q-9 0 -14 8l-68 103q-2 3 -2 7z" />
    <glyph glyph-name="uni01E5" unicode="&#x1e5;" horiz-adv-x="507" 
d="M500.5 289.5q3.5 -3.5 3.5 -8.5v-48q0 -5 -3.5 -8.5t-8.5 -3.5h-46q-5 0 -5 -5v-189q0 -116 -63 -172.5t-182 -56.5q-14 0 -44 2q-12 1 -12 13l3 80q0 12 13 11q10 -1 30 -1q75 0 107 31t32 100v9q0 3 -2 4t-4 -2q-38 -44 -105 -44q-65 0 -110 38.5t-56 109.5
q-6 30 -6 108q0 83 8 114q10 68 52 108t108 40q69 0 109 -45q2 -2 4 -1.5t2 3.5v23q0 5 3.5 8.5t8.5 3.5h92q5 0 8.5 -3.5t3.5 -8.5v-201q0 -5 5 -5h46q5 0 8.5 -3.5zM297.5 118q20.5 20 24.5 52l3 46q0 5 -5 5h-78q-5 0 -8.5 3.5t-3.5 8.5v48q0 5 3.5 8.5t8.5 3.5h78
q5 0 5 5q-2 29 -4 49q-4 32 -25 52t-53 20t-53 -20t-26 -52q-6 -37 -6 -90q0 -49 5 -87q5 -32 27 -52t54 -20q33 0 53.5 20z" />
    <glyph glyph-name="gcaron" unicode="&#x1e7;" horiz-adv-x="490" 
d="M328.5 507.5q3.5 3.5 8.5 3.5h92q5 0 8.5 -3.5t3.5 -8.5v-472q0 -116 -63 -172.5t-182 -56.5q-14 0 -44 2q-12 1 -12 13l3 80q0 12 13 11q10 -1 30 -1q75 0 107 31t32 100v9q0 3 -2 4t-4 -2q-38 -44 -105 -44q-65 0 -110 38.5t-56 109.5q-6 30 -6 108q0 83 8 114
q10 68 52 108t108 40q69 0 109 -45q2 -2 4 -1.5t2 3.5v23q0 5 3.5 8.5zM325 257q0 57 -4 90q-4 32 -25 52t-53 20t-53 -20t-26 -52q-6 -37 -6 -90q0 -49 5 -87q5 -32 27 -52t54 -20q33 0 53.5 20t24.5 52q3 38 3 87zM117 691q0 8 9 8h71q10 0 14 -8l40 -65q2 -3 4 -3t3 3
l40 65q4 8 14 8h71q7 0 9.5 -4.5t-1.5 -10.5l-71 -103q-5 -8 -14 -8h-105q-9 0 -14 8l-68 103q-2 3 -2 7z" />
    <glyph glyph-name="uni01E9" unicode="&#x1e9;" horiz-adv-x="478" 
d="M57.5 3.5q-3.5 3.5 -3.5 8.5v676q0 5 3.5 8.5t8.5 3.5h92q5 0 8.5 -3.5t3.5 -8.5v-358q0 -3 2 -3.5t4 1.5l135 176q6 7 15 7h101q10 0 10 -7q0 -3 -3 -8l-116 -155q-2 -3 0 -7l134 -320q1 -2 1 -6q0 -8 -10 -8h-96q-11 0 -14 10l-91 239q-1 3 -2.5 3t-3.5 -2l-64 -81
q-2 -4 -2 -6v-151q0 -5 -3.5 -8.5t-8.5 -3.5h-92q-5 0 -8.5 3.5zM102 879q0 8 9 8h71q10 0 14 -8l40 -65q2 -3 4 -3t3 3l40 65q4 8 14 8h71q7 0 9.5 -4.5t-1.5 -10.5l-71 -103q-5 -8 -14 -8h-105q-9 0 -14 8l-68 103q-2 3 -2 7z" />
    <glyph glyph-name="uni01EF" unicode="&#x1ef;" horiz-adv-x="467" 
d="M236.5 262q0.5 -2 3.5 -2q94 -17 141.5 -79t47.5 -144q0 -73 -35.5 -127t-95.5 -82.5t-133 -28.5q-54 0 -111 17q-9 3 -9 14l3 78q0 6 4 8.5t10 0.5q52 -15 94 -15q69 0 113 34t44 104q0 58 -34.5 98.5t-99.5 40.5q-33 0 -73 -12q-2 -1 -6 -1q-7 0 -10 7l-28 53
q-2 4 -2 6q0 5 5 10l174 158q2 2 1.5 4t-3.5 2h-182q-5 0 -8.5 3.5t-3.5 8.5v81q0 5 3.5 8.5t8.5 3.5h325q5 0 8.5 -3.5t3.5 -8.5v-81q0 -9 -6 -15l-148 -137q-2 -2 -1.5 -4zM90 691q0 8 9 8h71q10 0 14 -8l40 -65q2 -3 4 -3t3 3l40 65q4 8 14 8h71q7 0 9.5 -4.5t-1.5 -10.5
l-71 -103q-5 -8 -14 -8h-105q-9 0 -14 8l-68 103q-2 3 -2 7z" />
    <glyph glyph-name="oslashacute" unicode="&#x1ff;" horiz-adv-x="482" 
d="M412 432q18 -32 24 -70q8 -50 8 -105q0 -60 -7 -103q-11 -75 -63 -118.5t-133 -43.5q-45 0 -84 14q-4 1 -6 -2l-28 -45q-6 -11 -16 -4l-62 43q-6 5 -6 9t3 8l32 52q2 4 0 7q-23 35 -29 79q-8 48 -8 103q0 57 8 105q11 73 64 115.5t133 42.5q51 0 87 -16q4 -1 6 2l31 49
q7 10 16 4l62 -44q9 -8 3 -17l-35 -59q-1 -3 0 -6zM154 215q1 -4 3 -4.5t4 2.5l115 193q3 4 -2 6q-14 7 -33 7q-34 0 -56 -21t-27 -57q-4 -35 -4 -85v-41zM328 256v30q-1 4 -3 4.5t-4 -2.5l-110 -184q-3 -5 2 -7q11 -5 28 -5q33 0 55.5 22t27.5 58q4 52 4 84zM185 579
q-2 4 1 10l57 103q5 8 15 8h75q7 0 9.5 -4.5t-1.5 -10.5l-71 -102q-5 -8 -14 -8h-62q-7 0 -9 4z" />
    <glyph glyph-name="uni0218" unicode="&#x218;" horiz-adv-x="513" 
d="M143 15.5q-50 23.5 -77.5 67t-27.5 100.5v26q0 5 3.5 8.5t8.5 3.5h90q5 0 8.5 -3.5t3.5 -8.5v-20q0 -43 30 -70t81 -27q47 0 72 24t25 63q0 27 -14 46.5t-39.5 36t-78.5 44.5q-61 32 -98 57t-62.5 64t-25.5 95q0 86 57.5 136t151.5 50q65 0 115 -24.5t77 -69.5t27 -103
v-21q0 -5 -3.5 -8.5t-8.5 -3.5h-90q-5 0 -8.5 3.5t-3.5 8.5v19q0 43 -29 71t-78 28q-43 0 -68 -22.5t-25 -62.5q0 -27 13 -46t39.5 -36t80.5 -44q72 -41 106 -64t57.5 -59.5t23.5 -89.5q0 -88 -59 -140t-158 -52q-66 0 -116 23.5zM172 -183q-2 4 1 10l57 103q5 8 15 8h75
q7 0 9.5 -4.5t-1.5 -10.5l-71 -102q-5 -8 -14 -8h-62q-7 0 -9 4z" />
    <glyph glyph-name="uni0219" unicode="&#x219;" horiz-adv-x="448" 
d="M88 33q-52 39 -52 102v8q0 5 3.5 8.5t8.5 3.5h87q5 0 8.5 -3.5t3.5 -8.5v-3q0 -24 23 -41.5t57 -17.5q33 0 53.5 16t20.5 40t-20.5 37t-63.5 28l-26 9q-68 22 -109 55.5t-41 99.5q0 70 50 110.5t132 40.5q85 0 135.5 -41.5t50.5 -110.5v-1q0 -5 -3.5 -8.5t-8.5 -3.5h-84
q-5 0 -8.5 3.5t-3.5 8.5v4q0 25 -21 41.5t-55 16.5q-33 0 -53 -15.5t-20 -39.5q0 -19 14 -31.5t31.5 -19.5t61.5 -22q47 -16 79.5 -33t55.5 -47t23 -76q0 -69 -51.5 -108.5t-138.5 -39.5t-139 39zM145 -181q-2 4 1 10l57 103q5 8 15 8h75q7 0 9.5 -4.5t-1.5 -10.5l-71 -102
q-5 -8 -14 -8h-62q-7 0 -9 4z" />
    <glyph glyph-name="uni021A" unicode="&#x21a;" horiz-adv-x="516" 
d="M481.5 696.5q3.5 -3.5 3.5 -8.5v-77q0 -5 -3.5 -8.5t-8.5 -3.5h-155q-5 0 -5 -5v-582q0 -5 -3.5 -8.5t-8.5 -3.5h-92q-5 0 -8.5 3.5t-3.5 8.5v582q0 5 -5 5h-149q-5 0 -8.5 3.5t-3.5 8.5v77q0 5 3.5 8.5t8.5 3.5h430q5 0 8.5 -3.5zM131 -176q-2 4 1 10l57 103q5 8 15 8
h75q7 0 9.5 -4.5t-1.5 -10.5l-71 -102q-5 -8 -14 -8h-62q-7 0 -9 4z" />
    <glyph glyph-name="uni021B" unicode="&#x21b;" horiz-adv-x="328" 
d="M292.5 426.5q-3.5 -3.5 -8.5 -3.5h-81q-5 0 -5 -5v-251q0 -37 14.5 -52.5t45.5 -14.5h18q5 0 8.5 -3.5t3.5 -8.5v-76q0 -11 -12 -13h-42q-74 0 -111 26t-37 98v295q0 5 -5 5h-46q-5 0 -8.5 3.5t-3.5 8.5v64q0 5 3.5 8.5t8.5 3.5h46q5 0 5 5v114q0 5 3.5 8.5t8.5 3.5h88
q5 0 8.5 -3.5t3.5 -8.5v-114q0 -5 5 -5h81q5 0 8.5 -3.5t3.5 -8.5v-64q0 -5 -3.5 -8.5zM120 -170q-2 4 1 10l57 103q5 8 15 8h75q7 0 9.5 -4.5t-1.5 -10.5l-71 -102q-5 -8 -14 -8h-62q-7 0 -9 4z" />
    <glyph glyph-name="uni021F" unicode="&#x21f;" horiz-adv-x="491" 
d="M400 473q41 -46 41 -127v-334q0 -5 -3.5 -8.5t-8.5 -3.5h-92q-5 0 -8.5 3.5t-3.5 8.5v318q0 41 -20.5 65t-55.5 24q-36 0 -57.5 -24.5t-21.5 -65.5v-317q0 -5 -3.5 -8.5t-8.5 -3.5h-92q-5 0 -8.5 3.5t-3.5 8.5v676q0 5 3.5 8.5t8.5 3.5h92q5 0 8.5 -3.5t3.5 -8.5v-215
q0 -3 2 -4t4 2q40 48 110 48q73 0 114 -46zM109 879q0 8 9 8h71q10 0 14 -8l40 -65q2 -3 4 -3t3 3l40 65q4 8 14 8h71q7 0 9.5 -4.5t-1.5 -10.5l-71 -103q-5 -8 -14 -8h-105q-9 0 -14 8l-68 103q-2 3 -2 7z" />
    <glyph glyph-name="uni0228" unicode="&#x228;" horiz-adv-x="513" 
d="M471.5 603.5q-3.5 -3.5 -8.5 -3.5h-278q-5 0 -5 -5v-188q0 -5 5 -5h178q5 0 8.5 -3.5t3.5 -8.5v-76q0 -5 -3.5 -8.5t-8.5 -3.5h-178q-5 0 -5 -5v-192q0 -5 5 -5h278q5 0 8.5 -3.5t3.5 -8.5v-76q0 -5 -3.5 -8.5t-8.5 -3.5h-143q-3 0 -4 -2t1 -4q38 -41 38 -85
q0 -47 -26 -66.5t-63 -19.5q-25 0 -48 7q-10 3 -9 14l5 37q1 12 15 9q10 -2 14 -2q15 0 25 9t10 28q0 35 -43 73q-4 2 -7 2h-152q-5 0 -8.5 3.5t-3.5 8.5v676q0 5 3.5 8.5t8.5 3.5h387q5 0 8.5 -3.5t3.5 -8.5v-76q0 -5 -3.5 -8.5z" />
    <glyph glyph-name="uni0229" unicode="&#x229;" horiz-adv-x="483" 
d="M446 265l-1 -43q0 -12 -12 -12h-268q-5 0 -5 -5q2 -28 4 -41q5 -33 28 -53t58 -20q30 1 50.5 15t31.5 39q5 11 15 8l82 -17q12 -4 8 -15q-17 -50 -52.5 -82.5t-87.5 -42.5q-6 -2 -2 -6q39 -40 39 -85q0 -13 -3 -25q-8 -33 -32 -47.5t-56 -14.5q-24 0 -47 7q-9 4 -8 15
l5 37q1 12 15 9q10 -2 14 -2q27 0 34 28q1 3 1 9q0 32 -42 71q-4 2 -6 2q-65 10 -104.5 48.5t-52.5 100.5q-5 27 -6.5 57t-1.5 80q0 52 5 79q10 73 62 116.5t132 43.5q87 0 140.5 -49t59.5 -129q3 -33 3 -76zM189.5 399.5q-21.5 -19.5 -26.5 -52.5q-3 -22 -3 -50q0 -5 5 -5
h159q5 0 5 5q-2 34 -4 49q-4 33 -26 53t-55 20t-54.5 -19.5z" />
    <glyph glyph-name="uni0237" unicode="&#x237;" horiz-adv-x="232" 
d="M-49 -193v75q0 12 16 12q48 0 69 22t21 67l-1 516q0 5 3.5 8.5t8.5 3.5h93q5 0 8.5 -3.5t3.5 -8.5v-515q0 -69 -17 -109.5t-62.5 -60.5t-130.5 -19q-12 0 -12 12z" />
    <glyph glyph-name="uni0259" unicode="&#x259;" horiz-adv-x="483" 
d="M434 153q-10 -73 -62.5 -117t-131.5 -44q-87 0 -140.5 49t-59.5 129q-3 33 -3 77l1 43q0 12 12 12h268q5 0 5 5q-2 27 -4 40q-5 34 -28 53.5t-58 19.5q-29 0 -50 -14.5t-32 -39.5q-5 -11 -15 -8l-82 17q-12 4 -8 15q20 62 68.5 95.5t118.5 33.5q83 0 133 -39.5t65 -110.5
q8 -40 8 -114q2 -64 -5 -102zM293.5 112q21.5 20 26.5 53q3 23 3 49q0 5 -5 5h-159q-5 0 -5 -5q2 -32 4 -48q4 -33 26 -53.5t55 -20.5t54.5 20z" />
    <glyph glyph-name="uni0292" unicode="&#x292;" horiz-adv-x="467" 
d="M236.5 262q0.5 -2 3.5 -2q94 -17 141.5 -79t47.5 -144q0 -73 -35.5 -127t-95.5 -82.5t-133 -28.5q-54 0 -111 17q-9 3 -9 14l3 78q0 6 4 8.5t10 0.5q52 -15 94 -15q69 0 113 34t44 104q0 58 -34.5 98.5t-99.5 40.5q-33 0 -73 -12q-2 -1 -6 -1q-7 0 -10 7l-28 53
q-2 4 -2 6q0 5 5 10l174 158q2 2 1.5 4t-3.5 2h-182q-5 0 -8.5 3.5t-3.5 8.5v81q0 5 3.5 8.5t8.5 3.5h325q5 0 8.5 -3.5t3.5 -8.5v-81q0 -9 -6 -15l-148 -137q-2 -2 -1.5 -4z" />
    <glyph glyph-name="uni02BB" unicode="&#x2bb;" horiz-adv-x="173" 
d="M4 691q0 9 11 9h92q11 0 14 -10l49 -195v-4q0 -9 -11 -9h-68q-11 0 -14 10l-72 194q-1 2 -1 5z" />
    <glyph glyph-name="uni02BC" unicode="&#x2bc;" horiz-adv-x="173" 
d="M168 686l-72 -194q-3 -10 -14 -10h-68q-14 0 -11 13l49 195q3 10 14 10h92q15 0 10 -14z" />
    <glyph glyph-name="circumflex" unicode="&#x2c6;" horiz-adv-x="288" 
d="M28 578.5q-2 4.5 2 10.5l68 103q5 8 14 8h105q9 0 14 -8l71 -103q2 -3 2 -7q0 -8 -10 -8h-71q-10 0 -14 8l-40 65q-2 3 -4 3t-3 -3l-40 -65q-4 -8 -14 -8h-71q-7 0 -9 4.5z" />
    <glyph glyph-name="caron" unicode="&#x2c7;" horiz-adv-x="331" 
d="M28 692q0 8 9 8h71q10 0 14 -8l40 -65q2 -3 4 -3t3 3l40 65q4 8 14 8h71q7 0 9.5 -4.5t-1.5 -10.5l-71 -103q-5 -8 -14 -8h-105q-9 0 -14 8l-68 103q-2 3 -2 7z" />
    <glyph glyph-name="uni02C9" unicode="&#x2c9;" horiz-adv-x="249" 
d="M3.5 623.5q-3.5 3.5 -3.5 8.5v55q0 5 3.5 8.5t8.5 3.5h225q5 0 8.5 -3.5t3.5 -8.5v-55q0 -5 -3.5 -8.5t-8.5 -3.5h-225q-5 0 -8.5 3.5z" />
    <glyph glyph-name="breve" unicode="&#x2d8;" horiz-adv-x="300" 
d="M61.5 585.5q-35.5 29.5 -40.5 76.5v2q0 10 11 10h46q10 0 12 -11q4 -22 20.5 -36t39.5 -14t39.5 14t20.5 36q2 11 12 11h46q12 0 12 -11q-5 -47 -40.5 -77t-89.5 -30q-53 0 -88.5 29.5z" />
    <glyph glyph-name="dotaccent" unicode="&#x2d9;" horiz-adv-x="180" 
d="M40 601q-20 20 -20 51t20 51t51 20t50.5 -20t19.5 -51t-20 -51t-50 -20q-31 0 -51 20z" />
    <glyph glyph-name="ring" unicode="&#x2da;" horiz-adv-x="276" 
d="M54.5 602.5q-34.5 34.5 -34.5 84.5t34.5 84t84.5 34t84 -34t34 -84t-34 -84.5t-84 -34.5t-84.5 34.5zM178 647.5q16 16.5 16 39.5q0 24 -16 40t-39 16t-39 -16t-16 -40q0 -23 16 -39.5t39 -16.5t39 16.5z" />
    <glyph glyph-name="ogonek" unicode="&#x2db;" horiz-adv-x="150" 
d="M146 -171q0 -8 -9 -12q-21 -7 -46 -7q-38 0 -64.5 20t-26.5 67q0 52 51 97q6 6 15 6h49q10 0 10 -6q0 -5 -5 -9q-43 -38 -43 -71q0 -19 10 -28.5t25 -9.5q4 0 14 2l6 1q8 0 9 -10l5 -37v-3z" />
    <glyph glyph-name="tilde" unicode="&#x2dc;" horiz-adv-x="346" 
d="M202 592q-13 5 -30 15l-16 8t-17 7t-15 2q-28 0 -47 -22q-8 -10 -16 -2l-33 30q-8 8 -3 17q15 28 39 43t53 15q19 0 33 -5.5t35 -17.5q4 -2 13.5 -7.5t17.5 -8t16 -2.5q27 0 44 23q5 7 10 7q3 0 7 -4l31 -30q4 -4 4 -9t-2 -8q-14 -27 -39 -41.5t-55 -14.5q-17 0 -30 5z
" />
    <glyph glyph-name="hungarumlaut" unicode="&#x2dd;" horiz-adv-x="375" 
d="M26 587q-2 4 1 10l57 103q5 8 15 8h74q7 0 9.5 -4.5t-1.5 -10.5l-71 -102q-5 -8 -14 -8h-61q-7 0 -9 4zM192 587q-2 4 1 10l56 103q5 8 15 8h74q7 0 9.5 -4.5t-1.5 -10.5l-70 -102q-5 -8 -14 -8h-61q-7 0 -9 4z" />
    <glyph glyph-name="gravecomb" unicode="&#x300;" 
d="M-10 583q0 -8 -10 -8h-62q-9 0 -14 8l-72 102q-2 3 -2 7q0 8 10 8h76q10 0 15 -8l57 -103q2 -4 2 -6z" />
    <glyph glyph-name="acutecomb" unicode="&#x301;" 
d="M-193 579q-2 4 1 10l57 103q5 8 15 8h75q7 0 9.5 -4.5t-1.5 -10.5l-71 -102q-5 -8 -14 -8h-62q-7 0 -9 4z" />
    <glyph glyph-name="uni0302" unicode="&#x302;" 
d="M-303 578.5q-2 4.5 2 10.5l68 103q5 8 14 8h105q9 0 14 -8l71 -103q2 -3 2 -7q0 -8 -10 -8h-71q-10 0 -14 8l-40 65q-2 3 -4 3t-3 -3l-40 -65q-4 -8 -14 -8h-71q-7 0 -9 4.5z" />
    <glyph glyph-name="tildecomb" unicode="&#x303;" 
d="M-130 592q-13 5 -30 15l-16 8t-17 7t-15 2q-28 0 -47 -22q-8 -10 -16 -2l-33 30q-8 8 -3 17q15 28 39 43t53 15q19 0 33 -5.5t35 -17.5q4 -2 13.5 -7.5t17.5 -8t16 -2.5q27 0 44 23q5 7 10 7q3 0 7 -4l31 -30q4 -4 4 -9t-2 -8q-14 -27 -39 -41.5t-55 -14.5q-17 0 -30 5z
" />
    <glyph glyph-name="uni0304" unicode="&#x304;" 
d="M-245.5 606.5q-3.5 3.5 -3.5 8.5v56q0 5 3.5 8.5t8.5 3.5h225q5 0 8.5 -3.5t3.5 -8.5v-56q0 -5 -3.5 -8.5t-8.5 -3.5h-225q-5 0 -8.5 3.5z" />
    <glyph glyph-name="uni0306" unicode="&#x306;" 
d="M-238.5 598.5q-35.5 29.5 -40.5 75.5v2q0 10 11 10h43q10 0 12 -11q5 -23 22 -36.5t41 -13.5t41.5 14t21.5 36q2 11 12 11h43q12 0 12 -11q-5 -46 -41 -76t-89 -30t-88.5 29.5z" />
    <glyph glyph-name="uni0307" unicode="&#x307;" 
d="M-128 601q-20 20 -20 51t20 51t51 20t50.5 -20t19.5 -51t-20 -51t-50 -20q-31 0 -51 20z" />
    <glyph glyph-name="uni0308" unicode="&#x308;" 
d="M-121 604q-20 20 -20 51t20 51t51 20t50.5 -20t19.5 -51t-20 -51t-50 -20q-31 0 -51 20zM-302 604q-20 20 -20 51t20 51t51 20t50.5 -20t19.5 -51t-20 -51t-50 -20q-31 0 -51 20z" />
    <glyph glyph-name="hookabovecomb" unicode="&#x309;" 
d="M-337 571q11 27 33 49q11 11 16 19.5t5 22.5q0 11 -10 19.5t-23 8.5q-15 0 -25 -6.5t-24 -24.5q-3 -6 -9 -6q-5 0 -8 3l-26 19q-5 3 -5 9q0 5 2 8q21 30 42.5 43t55.5 13q42 0 67.5 -23.5t25.5 -62.5q0 -23 -9.5 -38t-28.5 -34q-18 -18 -26 -32q-5 -9 -15 -8l-30 6
q-14 3 -8 15z" />
    <glyph glyph-name="uni030A" unicode="&#x30a;" 
d="M-188.5 602.5q-34.5 34.5 -34.5 84.5t34.5 84t84.5 34t84 -34t34 -84t-34 -84.5t-84 -34.5t-84.5 34.5zM-65 647.5q16 16.5 16 39.5q0 24 -16 40t-39 16t-39 -16t-16 -40q0 -23 16 -39.5t39 -16.5t39 16.5z" />
    <glyph glyph-name="uni030B" unicode="&#x30b;" 
d="M-337.5 578.5q-2.5 3.5 0.5 10.5l50 102q4 9 14 9h77q7 0 9 -4t-1 -10l-54 -102q-5 -9 -15 -9h-71q-7 0 -9.5 3.5zM-178 579q-2 4 1 10l54 102q4 9 15 9h72q7 0 9 -4t-1 -10l-54 -102q-5 -9 -15 -9h-72q-7 0 -9 4z" />
    <glyph glyph-name="uni030C" unicode="&#x30c;" 
d="M-303 692q0 8 9 8h71q10 0 14 -8l40 -65q2 -3 4 -3t3 3l40 65q4 8 14 8h71q7 0 9.5 -4.5t-1.5 -10.5l-71 -103q-5 -8 -14 -8h-105q-9 0 -14 8l-68 103q-2 3 -2 7z" />
    <glyph glyph-name="uni0312" unicode="&#x312;" 
d="M-27 696q2 -4 -1 -10l-57 -103q-5 -8 -15 -8h-75q-7 0 -9.5 4.5t1.5 10.5l71 102q5 8 14 8h62q7 0 9 -4z" />
    <glyph glyph-name="uni0313" unicode="&#x313;" 
d="M-171 579q-2 4 1 10l57 103q5 8 15 8h75q7 0 9.5 -4.5t-1.5 -10.5l-71 -102q-5 -8 -14 -8h-62q-7 0 -9 4z" />
    <glyph glyph-name="uni031B" unicode="&#x31b;" 
d="M-142 466v33q0 11 11 13q23 3 40.5 20t20.5 51q0 12 12 12h44q5 0 8.5 -4.5t2.5 -12.5q-5 -57 -40.5 -88.5t-86.5 -35.5q-12 0 -12 12z" />
    <glyph glyph-name="dotbelowcomb" unicode="&#x323;" 
d="M-128 -194.5q-19 19.5 -19 48.5t19 48t49 19q29 0 48 -19t19 -48t-19 -48.5t-48 -19.5q-30 0 -49 19.5z" />
    <glyph glyph-name="uni0326" unicode="&#x326;" 
d="M-197 -175q-2 4 1 10l57 103q5 8 15 8h75q7 0 9.5 -4.5t-1.5 -10.5l-71 -102q-5 -8 -14 -8h-62q-7 0 -9 4z" />
    <glyph glyph-name="uni0327" unicode="&#x327;" 
d="M-146 -168l5 37q1 12 15 9q8 -2 13 -2q16 0 26 9.5t10 27.5q0 35 -43 72q-6 4 -6 9q0 6 10 6h50q9 0 15 -6q51 -44 51 -97q0 -13 -3 -25q-8 -33 -32 -47.5t-56 -14.5q-24 0 -47 7q-9 4 -8 15z" />
    <glyph glyph-name="uni0328" unicode="&#x328;" 
d="M-4 -171q0 -8 -9 -12q-21 -7 -46 -7q-32 0 -56 14.5t-32 47.5q-3 12 -3 24q0 53 51 98q6 6 15 6h49q10 0 10 -6q0 -4 -5 -9q-43 -38 -43 -71q0 -19 10 -28.5t25 -9.5q4 0 14 2l6 1q8 0 9 -10l5 -37v-3z" />
    <glyph glyph-name="uni0335" unicode="&#x335;" 
d="M-310.5 629.5q3.5 3.5 8.5 3.5h286q5 0 8.5 -3.5t3.5 -8.5v-48q0 -5 -3.5 -8.5t-8.5 -3.5h-286q-5 0 -8.5 3.5t-3.5 8.5v48q0 5 3.5 8.5z" />
    <glyph glyph-name="uni0336" unicode="&#x336;" 
d="M-536.5 515.5q-3.5 3.5 -3.5 8.5v55q0 5 3.5 8.5t8.5 3.5h516q5 0 8.5 -3.5t3.5 -8.5v-55q0 -5 -3.5 -8.5t-8.5 -3.5h-516q-5 0 -8.5 3.5z" />
    <glyph glyph-name="uni0337" unicode="&#x337;" 
d="M-367 59q-4 0 -9 5l-42 50q-3 5 -3 8q0 4 5 9l416 333q5 3 8 3q4 0 9 -5l41 -50q4 -6 4 -8q0 -4 -5 -9l-416 -333q-5 -3 -8 -3z" />
    <glyph glyph-name="uni0338" unicode="&#x338;" 
d="M-436.5 -37.5q-2.5 3.5 0.5 10.5l356 763q4 9 14 9h50q7 0 9.5 -3.5t-0.5 -10.5l-357 -763q-4 -9 -14 -9h-49q-7 0 -9.5 3.5z" />
    <glyph glyph-name="uni0394" unicode="&#x394;" horiz-adv-x="589" 
d="M22.5 3.5q-3.5 3.5 -3.5 8.5v80q0 6 3 15l226 584q3 9 14 9h65q11 0 14 -9l226 -585q3 -9 3 -15v-79q0 -5 -3.5 -8.5t-8.5 -3.5h-527q-5 0 -8.5 3.5zM138 100h313q6 0 4 6l-157 437q-1 3 -3 3t-3 -3l-158 -437q-1 -6 4 -6z" />
    <glyph glyph-name="uni03A9" unicode="&#x3a9;" horiz-adv-x="564" 
d="M52.5 3.5q-3.5 3.5 -3.5 8.5v76q0 5 3.5 8.5t8.5 3.5h48q3 0 4 2t-1 4q-52 52 -52 137v248q0 64 27.5 113.5t78 76.5t116.5 27t117 -27t79 -76.5t28 -113.5v-248q0 -86 -53 -137q-2 -2 -1 -4t4 -2h47q5 0 8.5 -3.5t3.5 -8.5v-76q0 -5 -3.5 -8.5t-8.5 -3.5h-183
q-5 0 -8.5 3.5t-3.5 8.5v78q0 10 11 13q30 9 50.5 39t20.5 71v282q0 51 -29.5 82t-78.5 31q-48 0 -77 -31t-29 -82v-282q0 -41 20 -71t50 -39q10 -3 10 -13v-78q0 -5 -3.5 -8.5t-8.5 -3.5h-183q-5 0 -8.5 3.5z" />
    <glyph glyph-name="uni03BC" unicode="&#x3bc;" horiz-adv-x="496" 
d="M328.5 507.5q3.5 3.5 8.5 3.5h92q5 0 8.5 -3.5t3.5 -8.5v-487q0 -5 -3.5 -8.5t-8.5 -3.5h-92q-5 0 -8.5 3.5t-3.5 8.5v27q0 3 -2 3.5t-4 -2.5q-34 -47 -108 -47q-18 0 -36 3q-2 1 -3.5 -1t-1.5 -4v-179q0 -5 -3.5 -8.5t-8.5 -3.5h-92q-5 0 -8.5 3.5t-3.5 8.5v687
q0 5 3.5 8.5t8.5 3.5h92q5 0 8.5 -3.5t3.5 -8.5v-318q0 -42 19.5 -65.5t55.5 -23.5q37 0 58.5 25t21.5 66v316q0 5 3.5 8.5z" />
    <glyph glyph-name="pi" unicode="&#x3c0;" horiz-adv-x="592" 
d="M558.5 415.5q-3.5 -3.5 -8.5 -3.5h-52q-5 0 -5 -5v-241q0 -43 11.5 -55t36.5 -11q12 0 12 -12v-76q0 -12 -12 -12q-52 -1 -84 3.5t-56.5 27.5t-24.5 74v302q0 5 -5 5h-148q-5 0 -5 -5v-395q0 -5 -3.5 -8.5t-8.5 -3.5h-92q-5 0 -8.5 3.5t-3.5 8.5v395q0 5 -5 5h-55
q-5 0 -8.5 3.5t-3.5 8.5v75q0 5 3.5 8.5t8.5 3.5h508q5 0 8.5 -3.5t3.5 -8.5v-75q0 -5 -3.5 -8.5z" />
    <glyph glyph-name="Wgrave" unicode="&#x1e80;" horiz-adv-x="785" 
d="M183 10l-158 677v4q0 9 11 9h96q11 0 13 -11l93 -437q1 -3 3 -3t3 4l86 436q1 11 13 11h87q11 0 13 -11l93 -437q1 -4 3 -4t3 4l88 437q2 11 13 11h92q14 0 11 -13l-149 -676q-2 -11 -13 -11h-90q-11 0 -13 11l-92 451q-1 3 -3 3t-3 -3l-87 -451q-1 -11 -13 -11h-87
q-10 0 -13 10zM432 772q0 -8 -10 -8h-62q-9 0 -14 8l-72 102q-2 3 -2 7q0 8 10 8h76q10 0 15 -8l57 -103q2 -4 2 -6z" />
    <glyph glyph-name="wgrave" unicode="&#x1e81;" horiz-adv-x="677" 
d="M147 10l-124 489v4q0 9 11 9h90q11 0 13 -11l69 -314q1 -4 3 -4t3 4l70 314q2 11 13 11h82q10 0 13 -10l73 -315q1 -4 3 -4t3 4l71 314q3 11 13 11l90 -2q14 0 11 -13l-125 -487q-3 -10 -14 -10h-92q-10 0 -13 10l-72 300q-1 4 -3 4t-3 -4l-67 -299q-2 -11 -13 -11h-91
q-11 0 -14 10zM376 583q0 -8 -10 -8h-62q-9 0 -14 8l-72 102q-2 3 -2 7q0 8 10 8h76q10 0 15 -8l57 -103q2 -4 2 -6z" />
    <glyph glyph-name="Wacute" unicode="&#x1e82;" horiz-adv-x="785" 
d="M183 10l-158 677v4q0 9 11 9h96q11 0 13 -11l93 -437q1 -3 3 -3t3 4l86 436q1 11 13 11h87q11 0 13 -11l93 -437q1 -4 3 -4t3 4l88 437q2 11 13 11h92q14 0 11 -13l-149 -676q-2 -11 -13 -11h-90q-11 0 -13 11l-92 451q-1 3 -3 3t-3 -3l-87 -451q-1 -11 -13 -11h-87
q-10 0 -13 10zM335 768q-2 4 1 10l57 103q5 8 15 8h75q7 0 9.5 -4.5t-1.5 -10.5l-71 -102q-5 -8 -14 -8h-62q-7 0 -9 4z" />
    <glyph glyph-name="wacute" unicode="&#x1e83;" horiz-adv-x="677" 
d="M147 10l-124 489v4q0 9 11 9h90q11 0 13 -11l69 -314q1 -4 3 -4t3 4l70 314q2 11 13 11h82q10 0 13 -10l73 -315q1 -4 3 -4t3 4l71 314q3 11 13 11l90 -2q14 0 11 -13l-125 -487q-3 -10 -14 -10h-92q-10 0 -13 10l-72 300q-1 4 -3 4t-3 -4l-67 -299q-2 -11 -13 -11h-91
q-11 0 -14 10zM279 579q-2 4 1 10l57 103q5 8 15 8h75q7 0 9.5 -4.5t-1.5 -10.5l-71 -102q-5 -8 -14 -8h-62q-7 0 -9 4z" />
    <glyph glyph-name="Wdieresis" unicode="&#x1e84;" horiz-adv-x="785" 
d="M183 10l-158 677v4q0 9 11 9h96q11 0 13 -11l93 -437q1 -3 3 -3t3 4l86 436q1 11 13 11h87q11 0 13 -11l93 -437q1 -4 3 -4t3 4l88 437q2 11 13 11h92q14 0 11 -13l-149 -676q-2 -11 -13 -11h-90q-11 0 -13 11l-92 451q-1 3 -3 3t-3 -3l-87 -451q-1 -11 -13 -11h-87
q-10 0 -13 10zM431 793q-20 20 -20 51t20 51t51 20t50.5 -20t19.5 -51t-20 -51t-50 -20q-31 0 -51 20zM250 793q-20 20 -20 51t20 51t51 20t50.5 -20t19.5 -51t-20 -51t-50 -20q-31 0 -51 20z" />
    <glyph glyph-name="wdieresis" unicode="&#x1e85;" horiz-adv-x="677" 
d="M147 10l-124 489v4q0 9 11 9h90q11 0 13 -11l69 -314q1 -4 3 -4t3 4l70 314q2 11 13 11h82q10 0 13 -10l73 -315q1 -4 3 -4t3 4l71 314q3 11 13 11l90 -2q14 0 11 -13l-125 -487q-3 -10 -14 -10h-92q-10 0 -13 10l-72 300q-1 4 -3 4t-3 -4l-67 -299q-2 -11 -13 -11h-91
q-11 0 -14 10zM375 604q-20 20 -20 51t20 51t51 20t50.5 -20t19.5 -51t-20 -51t-50 -20q-31 0 -51 20zM194 604q-20 20 -20 51t20 51t51 20t50.5 -20t19.5 -51t-20 -51t-50 -20q-31 0 -51 20z" />
    <glyph glyph-name="uni1EA0" unicode="&#x1ea0;" horiz-adv-x="552" 
d="M409 10l-26 107q-1 4 -5 4h-206q-4 0 -5 -4l-25 -107q-3 -10 -14 -10h-95q-13 0 -10 13l182 677q3 10 14 10h114q11 0 14 -10l182 -677l1 -4q0 -9 -11 -9h-96q-11 0 -14 10zM192 213.5q2 -1.5 4 -1.5h158q2 0 4 1.5t1 4.5l-82 328q-1 3 -3 3t-3 -3l-80 -328q-1 -3 1 -4.5
zM228 -194.5q-19 19.5 -19 48.5t19 48t49 19q29 0 48 -19t19 -48t-19 -48.5t-48 -19.5q-30 0 -49 19.5z" />
    <glyph glyph-name="uni1EA1" unicode="&#x1ea1;" horiz-adv-x="477" 
d="M339 497.5q44 -21.5 68.5 -59.5t24.5 -87v-339q0 -5 -3.5 -8.5t-8.5 -3.5h-92q-5 0 -8.5 3.5t-3.5 8.5v25q0 3 -2 4t-4 -1q-42 -48 -121 -48q-66 0 -112 35.5t-46 115.5q0 84 53.5 125t147.5 41h79q5 0 5 5v25q0 37 -20.5 58.5t-56.5 21.5q-29 0 -47.5 -13.5t-23.5 -36.5
q-3 -11 -14 -11l-97 6q-5 0 -8.5 3.5t-2.5 7.5q6 64 59.5 104t132.5 40q57 0 101 -21.5zM287 108.5q29 22.5 29 59.5v52q0 5 -5 5h-67q-44 0 -69.5 -19t-25.5 -55q0 -32 19.5 -48.5t50.5 -16.5q39 0 68 22.5zM190 -194.5q-19 19.5 -19 48.5t19 48t49 19q29 0 48 -19t19 -48
t-19 -48.5t-48 -19.5q-30 0 -49 19.5z" />
    <glyph glyph-name="uni1EA2" unicode="&#x1ea2;" horiz-adv-x="552" 
d="M409 10l-26 107q-1 4 -5 4h-206q-4 0 -5 -4l-25 -107q-3 -10 -14 -10h-95q-13 0 -10 13l182 677q3 10 14 10h114q11 0 14 -10l182 -677l1 -4q0 -9 -11 -9h-96q-11 0 -14 10zM192 213.5q2 -1.5 4 -1.5h158q2 0 4 1.5t1 4.5l-82 328q-1 3 -3 3t-3 -3l-80 -328q-1 -3 1 -4.5
zM257 760q11 27 33 49q11 11 16 19.5t5 22.5q0 11 -10 19.5t-23 8.5q-15 0 -25 -6.5t-24 -24.5q-3 -6 -9 -6q-5 0 -8 3l-26 19q-5 3 -5 9q0 5 2 8q21 30 42.5 43t55.5 13q42 0 67.5 -23.5t25.5 -62.5q0 -23 -9.5 -38t-28.5 -34q-18 -18 -26 -32q-5 -9 -15 -8l-30 6
q-14 3 -8 15z" />
    <glyph glyph-name="uni1EA3" unicode="&#x1ea3;" horiz-adv-x="477" 
d="M339 497.5q44 -21.5 68.5 -59.5t24.5 -87v-339q0 -5 -3.5 -8.5t-8.5 -3.5h-92q-5 0 -8.5 3.5t-3.5 8.5v25q0 3 -2 4t-4 -1q-42 -48 -121 -48q-66 0 -112 35.5t-46 115.5q0 84 53.5 125t147.5 41h79q5 0 5 5v25q0 37 -20.5 58.5t-56.5 21.5q-29 0 -47.5 -13.5t-23.5 -36.5
q-3 -11 -14 -11l-97 6q-5 0 -8.5 3.5t-2.5 7.5q6 64 59.5 104t132.5 40q57 0 101 -21.5zM287 108.5q29 22.5 29 59.5v52q0 5 -5 5h-67q-44 0 -69.5 -19t-25.5 -55q0 -32 19.5 -48.5t50.5 -16.5q39 0 68 22.5zM220 571q11 27 33 49q11 11 16 19.5t5 22.5q0 11 -10 19.5
t-23 8.5q-15 0 -25 -6.5t-24 -24.5q-3 -6 -9 -6q-5 0 -8 3l-26 19q-5 3 -5 9q0 5 2 8q21 30 42.5 43t55.5 13q42 0 67.5 -23.5t25.5 -62.5q0 -23 -9.5 -38t-28.5 -34q-18 -18 -26 -32q-5 -9 -15 -8l-30 6q-14 3 -8 15z" />
    <glyph glyph-name="uni1EA4" unicode="&#x1ea4;" horiz-adv-x="552" 
d="M409 10l-26 107q-1 4 -5 4h-206q-4 0 -5 -4l-25 -107q-3 -10 -14 -10h-95q-13 0 -10 13l182 677q3 10 14 10h114q11 0 14 -10l182 -677l1 -4q0 -9 -11 -9h-96q-11 0 -14 10zM192 213.5q2 -1.5 4 -1.5h158q2 0 4 1.5t1 4.5l-82 328q-1 3 -3 3t-3 -3l-80 -328q-1 -3 1 -4.5
zM137 767.5q-2 4.5 2 10.5l68 103q5 8 14 8h105q9 0 14 -8l71 -103q2 -3 2 -7q0 -8 -10 -8h-71q-10 0 -14 8l-40 65q-2 3 -4 3t-3 -3l-40 -65q-4 -8 -14 -8h-71q-7 0 -9 4.5zM410 846q-2 4 1 10l57 103q5 8 15 8h75q7 0 9.5 -4.5t-1.5 -10.5l-71 -102q-5 -8 -14 -8h-62
q-7 0 -9 4z" />
    <glyph glyph-name="uni1EA5" unicode="&#x1ea5;" horiz-adv-x="477" 
d="M339 497.5q44 -21.5 68.5 -59.5t24.5 -87v-339q0 -5 -3.5 -8.5t-8.5 -3.5h-92q-5 0 -8.5 3.5t-3.5 8.5v25q0 3 -2 4t-4 -1q-42 -48 -121 -48q-66 0 -112 35.5t-46 115.5q0 84 53.5 125t147.5 41h79q5 0 5 5v25q0 37 -20.5 58.5t-56.5 21.5q-29 0 -47.5 -13.5t-23.5 -36.5
q-3 -11 -14 -11l-97 6q-5 0 -8.5 3.5t-2.5 7.5q6 64 59.5 104t132.5 40q57 0 101 -21.5zM287 108.5q29 22.5 29 59.5v52q0 5 -5 5h-67q-44 0 -69.5 -19t-25.5 -55q0 -32 19.5 -48.5t50.5 -16.5q39 0 68 22.5zM100 578.5q-2 4.5 2 10.5l68 103q5 8 14 8h105q9 0 14 -8
l71 -103q2 -3 2 -7q0 -8 -10 -8h-71q-10 0 -14 8l-40 65q-2 3 -4 3t-3 -3l-40 -65q-4 -8 -14 -8h-71q-7 0 -9 4.5zM373 657q-2 4 1 10l57 103q5 8 15 8h75q7 0 9.5 -4.5t-1.5 -10.5l-71 -102q-5 -8 -14 -8h-62q-7 0 -9 4z" />
    <glyph glyph-name="uni1EA6" unicode="&#x1ea6;" horiz-adv-x="552" 
d="M409 10l-26 107q-1 4 -5 4h-206q-4 0 -5 -4l-25 -107q-3 -10 -14 -10h-95q-13 0 -10 13l182 677q3 10 14 10h114q11 0 14 -10l182 -677l1 -4q0 -9 -11 -9h-96q-11 0 -14 10zM192 213.5q2 -1.5 4 -1.5h158q2 0 4 1.5t1 4.5l-82 328q-1 3 -3 3t-3 -3l-80 -328q-1 -3 1 -4.5
zM137 767.5q-2 4.5 2 10.5l68 103q5 8 14 8h105q9 0 14 -8l71 -103q2 -3 2 -7q0 -8 -10 -8h-71q-10 0 -14 8l-40 65q-2 3 -4 3t-3 -3l-40 -65q-4 -8 -14 -8h-71q-7 0 -9 4.5zM478 891q0 -8 -10 -8h-62q-9 0 -14 8l-72 102q-2 3 -2 7q0 8 10 8h76q10 0 15 -8l57 -103
q2 -4 2 -6z" />
    <glyph glyph-name="uni1EA7" unicode="&#x1ea7;" horiz-adv-x="477" 
d="M339 497.5q44 -21.5 68.5 -59.5t24.5 -87v-339q0 -5 -3.5 -8.5t-8.5 -3.5h-92q-5 0 -8.5 3.5t-3.5 8.5v25q0 3 -2 4t-4 -1q-42 -48 -121 -48q-66 0 -112 35.5t-46 115.5q0 84 53.5 125t147.5 41h79q5 0 5 5v25q0 37 -20.5 58.5t-56.5 21.5q-29 0 -47.5 -13.5t-23.5 -36.5
q-3 -11 -14 -11l-97 6q-5 0 -8.5 3.5t-2.5 7.5q6 64 59.5 104t132.5 40q57 0 101 -21.5zM287 108.5q29 22.5 29 59.5v52q0 5 -5 5h-67q-44 0 -69.5 -19t-25.5 -55q0 -32 19.5 -48.5t50.5 -16.5q39 0 68 22.5zM101 578.5q-2 4.5 2 10.5l68 103q5 8 14 8h105q9 0 14 -8
l71 -103q2 -3 2 -7q0 -8 -10 -8h-71q-10 0 -14 8l-40 65q-2 3 -4 3t-3 -3l-40 -65q-4 -8 -14 -8h-71q-7 0 -9 4.5zM442 702q0 -8 -10 -8h-62q-9 0 -14 8l-72 102q-2 3 -2 7q0 8 10 8h76q10 0 15 -8l57 -103q2 -4 2 -6z" />
    <glyph glyph-name="uni1EA8" unicode="&#x1ea8;" horiz-adv-x="552" 
d="M409 10l-26 107q-1 4 -5 4h-206q-4 0 -5 -4l-25 -107q-3 -10 -14 -10h-95q-13 0 -10 13l182 677q3 10 14 10h114q11 0 14 -10l182 -677l1 -4q0 -9 -11 -9h-96q-11 0 -14 10zM192 213.5q2 -1.5 4 -1.5h158q2 0 4 1.5t1 4.5l-82 328q-1 3 -3 3t-3 -3l-80 -328q-1 -3 1 -4.5
zM397.5 871q-2.5 4 0.5 10q10 25 32 47q11 12 15.5 20t4.5 21q0 11 -9.5 19.5t-22.5 8.5q-14 0 -24 -6.5t-23 -23.5q-4 -6 -10 -6q-5 0 -8 3l-25 18q-5 5 -5 9t3 8q20 29 41 41.5t54 12.5q41 0 66 -23t25 -61q0 -21 -9 -35.5t-28 -34.5q-18 -18 -26 -32q-6 -8 -15 -7l-28 5
q-6 2 -8.5 6zM137 767.5q-2 4.5 2 10.5l68 103q5 8 14 8h105q9 0 14 -8l71 -103q2 -3 2 -7q0 -8 -10 -8h-71q-10 0 -14 8l-40 65q-2 3 -4 3t-3 -3l-40 -65q-4 -8 -14 -8h-71q-7 0 -9 4.5z" />
    <glyph glyph-name="uni1EA9" unicode="&#x1ea9;" horiz-adv-x="477" 
d="M339 497.5q44 -21.5 68.5 -59.5t24.5 -87v-339q0 -5 -3.5 -8.5t-8.5 -3.5h-92q-5 0 -8.5 3.5t-3.5 8.5v25q0 3 -2 4t-4 -1q-42 -48 -121 -48q-66 0 -112 35.5t-46 115.5q0 84 53.5 125t147.5 41h79q5 0 5 5v25q0 37 -20.5 58.5t-56.5 21.5q-29 0 -47.5 -13.5t-23.5 -36.5
q-3 -11 -14 -11l-97 6q-5 0 -8.5 3.5t-2.5 7.5q6 64 59.5 104t132.5 40q57 0 101 -21.5zM287 108.5q29 22.5 29 59.5v52q0 5 -5 5h-67q-44 0 -69.5 -19t-25.5 -55q0 -32 19.5 -48.5t50.5 -16.5q39 0 68 22.5zM361.5 682q-2.5 4 0.5 10q10 25 32 47q11 12 15.5 20t4.5 21
q0 11 -9.5 19.5t-22.5 8.5q-14 0 -24 -6.5t-23 -23.5q-4 -6 -10 -6q-5 0 -8 3l-25 18q-5 5 -5 9t3 8q20 29 41 41.5t54 12.5q41 0 66 -23t25 -61q0 -21 -9 -35.5t-28 -34.5q-18 -18 -26 -32q-6 -8 -15 -7l-28 5q-6 2 -8.5 6zM101 578.5q-2 4.5 2 10.5l68 103q5 8 14 8h105
q9 0 14 -8l71 -103q2 -3 2 -7q0 -8 -10 -8h-71q-10 0 -14 8l-40 65q-2 3 -4 3t-3 -3l-40 -65q-4 -8 -14 -8h-71q-7 0 -9 4.5z" />
    <glyph glyph-name="uni1EAA" unicode="&#x1eaa;" horiz-adv-x="552" 
d="M409 10l-26 107q-1 4 -5 4h-206q-4 0 -5 -4l-25 -107q-3 -10 -14 -10h-95q-13 0 -10 13l182 677q3 10 14 10h114q11 0 14 -10l182 -677l1 -4q0 -9 -11 -9h-96q-11 0 -14 10zM192 213.5q2 -1.5 4 -1.5h158q2 0 4 1.5t1 4.5l-82 328q-1 3 -3 3t-3 -3l-80 -328q-1 -3 1 -4.5
zM137 767.5q-2 4.5 2 10.5l68 103q5 8 14 8h105q9 0 14 -8l71 -103q2 -3 2 -7q0 -8 -10 -8h-71q-10 0 -14 8l-40 65q-2 3 -4 3t-3 -3l-40 -65q-4 -8 -14 -8h-71q-7 0 -9 4.5zM306 925q-13 5 -30 15l-16 8t-17 7t-15 2q-28 0 -47 -22q-8 -10 -16 -2l-33 30q-8 8 -3 17
q15 28 39 43t53 15q19 0 33 -5.5t35 -17.5q4 -2 13.5 -7.5t17.5 -8t16 -2.5q27 0 44 23q5 7 10 7q3 0 7 -4l31 -30q4 -4 4 -9t-2 -8q-14 -27 -39 -41.5t-55 -14.5q-17 0 -30 5z" />
    <glyph glyph-name="uni1EAB" unicode="&#x1eab;" horiz-adv-x="477" 
d="M339 497.5q44 -21.5 68.5 -59.5t24.5 -87v-339q0 -5 -3.5 -8.5t-8.5 -3.5h-92q-5 0 -8.5 3.5t-3.5 8.5v25q0 3 -2 4t-4 -1q-42 -48 -121 -48q-66 0 -112 35.5t-46 115.5q0 84 53.5 125t147.5 41h79q5 0 5 5v25q0 37 -20.5 58.5t-56.5 21.5q-29 0 -47.5 -13.5t-23.5 -36.5
q-3 -11 -14 -11l-97 6q-5 0 -8.5 3.5t-2.5 7.5q6 64 59.5 104t132.5 40q57 0 101 -21.5zM287 108.5q29 22.5 29 59.5v52q0 5 -5 5h-67q-44 0 -69.5 -19t-25.5 -55q0 -32 19.5 -48.5t50.5 -16.5q39 0 68 22.5zM101 578.5q-2 4.5 2 10.5l68 103q5 8 14 8h105q9 0 14 -8
l71 -103q2 -3 2 -7q0 -8 -10 -8h-71q-10 0 -14 8l-40 65q-2 3 -4 3t-3 -3l-40 -65q-4 -8 -14 -8h-71q-7 0 -9 4.5zM270 736q-13 5 -30 15l-16 8t-17 7t-15 2q-28 0 -47 -22q-8 -10 -16 -2l-33 30q-8 8 -3 17q15 28 39 43t53 15q19 0 33 -5.5t35 -17.5q4 -2 13.5 -7.5
t17.5 -8t16 -2.5q27 0 44 23q5 7 10 7q3 0 7 -4l31 -30q4 -4 4 -9t-2 -8q-14 -27 -39 -41.5t-55 -14.5q-17 0 -30 5z" />
    <glyph glyph-name="uni1EAC" unicode="&#x1eac;" horiz-adv-x="552" 
d="M409 10l-26 107q-1 4 -5 4h-206q-4 0 -5 -4l-25 -107q-3 -10 -14 -10h-95q-13 0 -10 13l182 677q3 10 14 10h114q11 0 14 -10l182 -677l1 -4q0 -9 -11 -9h-96q-11 0 -14 10zM192 213.5q2 -1.5 4 -1.5h158q2 0 4 1.5t1 4.5l-82 328q-1 3 -3 3t-3 -3l-80 -328q-1 -3 1 -4.5
zM228 -194.5q-19 19.5 -19 48.5t19 48t49 19q29 0 48 -19t19 -48t-19 -48.5t-48 -19.5q-30 0 -49 19.5zM137 767.5q-2 4.5 2 10.5l68 103q5 8 14 8h105q9 0 14 -8l71 -103q2 -3 2 -7q0 -8 -10 -8h-71q-10 0 -14 8l-40 65q-2 3 -4 3t-3 -3l-40 -65q-4 -8 -14 -8h-71
q-7 0 -9 4.5z" />
    <glyph glyph-name="uni1EAD" unicode="&#x1ead;" horiz-adv-x="477" 
d="M339 497.5q44 -21.5 68.5 -59.5t24.5 -87v-339q0 -5 -3.5 -8.5t-8.5 -3.5h-92q-5 0 -8.5 3.5t-3.5 8.5v25q0 3 -2 4t-4 -1q-42 -48 -121 -48q-66 0 -112 35.5t-46 115.5q0 84 53.5 125t147.5 41h79q5 0 5 5v25q0 37 -20.5 58.5t-56.5 21.5q-29 0 -47.5 -13.5t-23.5 -36.5
q-3 -11 -14 -11l-97 6q-5 0 -8.5 3.5t-2.5 7.5q6 64 59.5 104t132.5 40q57 0 101 -21.5zM287 108.5q29 22.5 29 59.5v52q0 5 -5 5h-67q-44 0 -69.5 -19t-25.5 -55q0 -32 19.5 -48.5t50.5 -16.5q39 0 68 22.5zM190 -194.5q-19 19.5 -19 48.5t19 48t49 19q29 0 48 -19t19 -48
t-19 -48.5t-48 -19.5q-30 0 -49 19.5zM101 578.5q-2 4.5 2 10.5l68 103q5 8 14 8h105q9 0 14 -8l71 -103q2 -3 2 -7q0 -8 -10 -8h-71q-10 0 -14 8l-40 65q-2 3 -4 3t-3 -3l-40 -65q-4 -8 -14 -8h-71q-7 0 -9 4.5z" />
    <glyph glyph-name="uni1EAE" unicode="&#x1eae;" horiz-adv-x="552" 
d="M409 10l-26 107q-1 4 -5 4h-206q-4 0 -5 -4l-25 -107q-3 -10 -14 -10h-95q-13 0 -10 13l182 677q3 10 14 10h114q11 0 14 -10l182 -677l1 -4q0 -9 -11 -9h-96q-11 0 -14 10zM192 213.5q2 -1.5 4 -1.5h158q2 0 4 1.5t1 4.5l-82 328q-1 3 -3 3t-3 -3l-80 -328q-1 -3 1 -4.5
zM186.5 788.5q-35.5 29.5 -40.5 75.5v2q0 10 11 10h43q10 0 12 -11q5 -23 22 -36.5t41 -13.5t41.5 14t21.5 36q2 11 12 11h43q12 0 12 -11q-5 -46 -41 -76t-89 -30t-88.5 29.5zM223 923q-2 4 1 10l57 103q5 8 15 8h75q7 0 9.5 -4.5t-1.5 -10.5l-71 -102q-5 -8 -14 -8h-62
q-7 0 -9 4z" />
    <glyph glyph-name="uni1EAF" unicode="&#x1eaf;" horiz-adv-x="477" 
d="M339 497.5q44 -21.5 68.5 -59.5t24.5 -87v-339q0 -5 -3.5 -8.5t-8.5 -3.5h-92q-5 0 -8.5 3.5t-3.5 8.5v25q0 3 -2 4t-4 -1q-42 -48 -121 -48q-66 0 -112 35.5t-46 115.5q0 84 53.5 125t147.5 41h79q5 0 5 5v25q0 37 -20.5 58.5t-56.5 21.5q-29 0 -47.5 -13.5t-23.5 -36.5
q-3 -11 -14 -11l-97 6q-5 0 -8.5 3.5t-2.5 7.5q6 64 59.5 104t132.5 40q57 0 101 -21.5zM287 108.5q29 22.5 29 59.5v52q0 5 -5 5h-67q-44 0 -69.5 -19t-25.5 -55q0 -32 19.5 -48.5t50.5 -16.5q39 0 68 22.5zM150.5 599.5q-35.5 29.5 -40.5 75.5v2q0 10 11 10h43
q10 0 12 -11q5 -23 22 -36.5t41 -13.5t41.5 14t21.5 36q2 11 12 11h43q12 0 12 -11q-5 -46 -41 -76t-89 -30t-88.5 29.5zM187 734q-2 4 1 10l57 103q5 8 15 8h75q7 0 9.5 -4.5t-1.5 -10.5l-71 -102q-5 -8 -14 -8h-62q-7 0 -9 4z" />
    <glyph glyph-name="uni1EB0" unicode="&#x1eb0;" horiz-adv-x="552" 
d="M409 10l-26 107q-1 4 -5 4h-206q-4 0 -5 -4l-25 -107q-3 -10 -14 -10h-95q-13 0 -10 13l182 677q3 10 14 10h114q11 0 14 -10l182 -677l1 -4q0 -9 -11 -9h-96q-11 0 -14 10zM192 213.5q2 -1.5 4 -1.5h158q2 0 4 1.5t1 4.5l-82 328q-1 3 -3 3t-3 -3l-80 -328q-1 -3 1 -4.5
zM186.5 788.5q-35.5 29.5 -40.5 75.5v2q0 10 11 10h43q10 0 12 -11q5 -23 22 -36.5t41 -13.5t41.5 14t21.5 36q2 11 12 11h43q12 0 12 -11q-5 -46 -41 -76t-89 -30t-88.5 29.5zM316 927q0 -8 -10 -8h-62q-9 0 -14 8l-72 102q-2 3 -2 7q0 8 10 8h76q10 0 15 -8l57 -103
q2 -4 2 -6z" />
    <glyph glyph-name="uni1EB1" unicode="&#x1eb1;" horiz-adv-x="477" 
d="M339 497.5q44 -21.5 68.5 -59.5t24.5 -87v-339q0 -5 -3.5 -8.5t-8.5 -3.5h-92q-5 0 -8.5 3.5t-3.5 8.5v25q0 3 -2 4t-4 -1q-42 -48 -121 -48q-66 0 -112 35.5t-46 115.5q0 84 53.5 125t147.5 41h79q5 0 5 5v25q0 37 -20.5 58.5t-56.5 21.5q-29 0 -47.5 -13.5t-23.5 -36.5
q-3 -11 -14 -11l-97 6q-5 0 -8.5 3.5t-2.5 7.5q6 64 59.5 104t132.5 40q57 0 101 -21.5zM287 108.5q29 22.5 29 59.5v52q0 5 -5 5h-67q-44 0 -69.5 -19t-25.5 -55q0 -32 19.5 -48.5t50.5 -16.5q39 0 68 22.5zM150.5 599.5q-35.5 29.5 -40.5 75.5v2q0 10 11 10h43
q10 0 12 -11q5 -23 22 -36.5t41 -13.5t41.5 14t21.5 36q2 11 12 11h43q12 0 12 -11q-5 -46 -41 -76t-89 -30t-88.5 29.5zM280 738q0 -8 -10 -8h-62q-9 0 -14 8l-72 102q-2 3 -2 7q0 8 10 8h76q10 0 15 -8l57 -103q2 -4 2 -6z" />
    <glyph glyph-name="uni1EB2" unicode="&#x1eb2;" horiz-adv-x="552" 
d="M409 10l-26 107q-1 4 -5 4h-206q-4 0 -5 -4l-25 -107q-3 -10 -14 -10h-95q-13 0 -10 13l182 677q3 10 14 10h114q11 0 14 -10l182 -677l1 -4q0 -9 -11 -9h-96q-11 0 -14 10zM192 213.5q2 -1.5 4 -1.5h158q2 0 4 1.5t1 4.5l-82 328q-1 3 -3 3t-3 -3l-80 -328q-1 -3 1 -4.5
zM257.5 905q-2.5 4 0.5 10q6 15 12.5 24t18.5 22q11 12 15.5 19.5t4.5 20.5q0 11 -9 19t-22 8t-22.5 -6t-21.5 -21l-2 -2l-2 -2q-6 -8 -15 -1l-24 17q-9 7 -3 17q20 28 40 40.5t52 12.5q41 0 65 -22.5t24 -59.5q0 -21 -9 -36t-27 -33q-19 -22 -24 -30q-5 -9 -15 -8l-28 5
q-6 2 -8.5 6zM186.5 788.5q-35.5 29.5 -40.5 75.5v2q0 10 11 10h43q10 0 12 -11q4 -22 21.5 -36t41.5 -14t41.5 14t21.5 36q2 11 12 11h43q12 0 12 -11q-5 -46 -41 -76t-89 -30t-88.5 29.5z" />
    <glyph glyph-name="uni1EB3" unicode="&#x1eb3;" horiz-adv-x="477" 
d="M339 497.5q44 -21.5 68.5 -59.5t24.5 -87v-339q0 -5 -3.5 -8.5t-8.5 -3.5h-92q-5 0 -8.5 3.5t-3.5 8.5v25q0 3 -2 4t-4 -1q-42 -48 -121 -48q-66 0 -112 35.5t-46 115.5q0 84 53.5 125t147.5 41h79q5 0 5 5v25q0 37 -20.5 58.5t-56.5 21.5q-29 0 -47.5 -13.5t-23.5 -36.5
q-3 -11 -14 -11l-97 6q-5 0 -8.5 3.5t-2.5 7.5q6 64 59.5 104t132.5 40q57 0 101 -21.5zM287 108.5q29 22.5 29 59.5v52q0 5 -5 5h-67q-44 0 -69.5 -19t-25.5 -55q0 -32 19.5 -48.5t50.5 -16.5q39 0 68 22.5zM221.5 716q-2.5 4 0.5 10q6 15 12.5 24t18.5 22q11 12 15.5 19.5
t4.5 20.5q0 11 -9 19t-22 8t-22.5 -6t-21.5 -21l-2 -2l-2 -2q-6 -8 -15 -1l-24 17q-9 7 -3 17q20 28 40 40.5t52 12.5q41 0 65 -22.5t24 -59.5q0 -21 -9 -36t-27 -33q-19 -22 -24 -30q-5 -9 -15 -8l-28 5q-6 2 -8.5 6zM150.5 599.5q-35.5 29.5 -40.5 75.5v2q0 10 11 10h43
q10 0 12 -11q4 -22 21.5 -36t41.5 -14t41.5 14t21.5 36q2 11 12 11h43q12 0 12 -11q-5 -46 -41 -76t-89 -30t-88.5 29.5z" />
    <glyph glyph-name="uni1EB4" unicode="&#x1eb4;" horiz-adv-x="552" 
d="M409 10l-26 107q-1 4 -5 4h-206q-4 0 -5 -4l-25 -107q-3 -10 -14 -10h-95q-13 0 -10 13l182 677q3 10 14 10h114q11 0 14 -10l182 -677l1 -4q0 -9 -11 -9h-96q-11 0 -14 10zM192 213.5q2 -1.5 4 -1.5h158q2 0 4 1.5t1 4.5l-82 328q-1 3 -3 3t-3 -3l-80 -328q-1 -3 1 -4.5
zM309 915.5q-13 4.5 -28 13.5q-4 2 -13.5 7.5t-17 7.5t-14.5 2q-26 0 -44 -21q-6 -6 -10 -6q-3 0 -7 4l-30 28q-8 8 -3 16q14 27 37 41.5t50 14.5q18 0 31 -5t34 -17q4 -2 13 -7.5t16.5 -8t15.5 -2.5q25 0 41 22q5 7 10 7q3 0 7 -4l28 -27q4 -4 4 -9t-2 -8
q-13 -26 -36.5 -39.5t-51.5 -13.5q-17 0 -30 4.5zM186.5 788.5q-35.5 29.5 -40.5 75.5v2q0 10 11 10h43q10 0 12 -11q4 -22 21.5 -36t41.5 -14t41.5 14t21.5 36q2 11 12 11h43q12 0 12 -11q-5 -46 -41 -76t-89 -30t-88.5 29.5z" />
    <glyph glyph-name="uni1EB5" unicode="&#x1eb5;" horiz-adv-x="477" 
d="M339 497.5q44 -21.5 68.5 -59.5t24.5 -87v-339q0 -5 -3.5 -8.5t-8.5 -3.5h-92q-5 0 -8.5 3.5t-3.5 8.5v25q0 3 -2 4t-4 -1q-42 -48 -121 -48q-66 0 -112 35.5t-46 115.5q0 84 53.5 125t147.5 41h79q5 0 5 5v25q0 37 -20.5 58.5t-56.5 21.5q-29 0 -47.5 -13.5t-23.5 -36.5
q-3 -11 -14 -11l-97 6q-5 0 -8.5 3.5t-2.5 7.5q6 64 59.5 104t132.5 40q57 0 101 -21.5zM287 108.5q29 22.5 29 59.5v52q0 5 -5 5h-67q-44 0 -69.5 -19t-25.5 -55q0 -32 19.5 -48.5t50.5 -16.5q39 0 68 22.5zM273 726.5q-13 4.5 -28 13.5q-4 2 -13.5 7.5t-17 7.5t-14.5 2
q-26 0 -44 -21q-6 -6 -10 -6q-3 0 -7 4l-30 28q-8 8 -3 16q14 27 37 41.5t50 14.5q18 0 31 -5t34 -17q4 -2 13 -7.5t16.5 -8t15.5 -2.5q25 0 41 22q5 7 10 7q3 0 7 -4l28 -27q4 -4 4 -9t-2 -8q-13 -26 -36.5 -39.5t-51.5 -13.5q-17 0 -30 4.5zM150.5 599.5
q-35.5 29.5 -40.5 75.5v2q0 10 11 10h43q10 0 12 -11q4 -22 21.5 -36t41.5 -14t41.5 14t21.5 36q2 11 12 11h43q12 0 12 -11q-5 -46 -41 -76t-89 -30t-88.5 29.5z" />
    <glyph glyph-name="uni1EB6" unicode="&#x1eb6;" horiz-adv-x="552" 
d="M409 10l-26 107q-1 4 -5 4h-206q-4 0 -5 -4l-25 -107q-3 -10 -14 -10h-95q-13 0 -10 13l182 677q3 10 14 10h114q11 0 14 -10l182 -677l1 -4q0 -9 -11 -9h-96q-11 0 -14 10zM192 213.5q2 -1.5 4 -1.5h158q2 0 4 1.5t1 4.5l-82 328q-1 3 -3 3t-3 -3l-80 -328q-1 -3 1 -4.5
zM228 -194.5q-19 19.5 -19 48.5t19 48t49 19q29 0 48 -19t19 -48t-19 -48.5t-48 -19.5q-30 0 -49 19.5zM186.5 788.5q-35.5 29.5 -40.5 75.5v2q0 10 11 10h43q10 0 12 -11q5 -23 22 -36.5t41 -13.5t41.5 14t21.5 36q2 11 12 11h43q12 0 12 -11q-5 -46 -41 -76t-89 -30
t-88.5 29.5z" />
    <glyph glyph-name="uni1EB7" unicode="&#x1eb7;" horiz-adv-x="477" 
d="M339 497.5q44 -21.5 68.5 -59.5t24.5 -87v-339q0 -5 -3.5 -8.5t-8.5 -3.5h-92q-5 0 -8.5 3.5t-3.5 8.5v25q0 3 -2 4t-4 -1q-42 -48 -121 -48q-66 0 -112 35.5t-46 115.5q0 84 53.5 125t147.5 41h79q5 0 5 5v25q0 37 -20.5 58.5t-56.5 21.5q-29 0 -47.5 -13.5t-23.5 -36.5
q-3 -11 -14 -11l-97 6q-5 0 -8.5 3.5t-2.5 7.5q6 64 59.5 104t132.5 40q57 0 101 -21.5zM287 108.5q29 22.5 29 59.5v52q0 5 -5 5h-67q-44 0 -69.5 -19t-25.5 -55q0 -32 19.5 -48.5t50.5 -16.5q39 0 68 22.5zM190 -194.5q-19 19.5 -19 48.5t19 48t49 19q29 0 48 -19t19 -48
t-19 -48.5t-48 -19.5q-30 0 -49 19.5zM150.5 599.5q-35.5 29.5 -40.5 75.5v2q0 10 11 10h43q10 0 12 -11q5 -23 22 -36.5t41 -13.5t41.5 14t21.5 36q2 11 12 11h43q12 0 12 -11q-5 -46 -41 -76t-89 -30t-88.5 29.5z" />
    <glyph glyph-name="uni1EB8" unicode="&#x1eb8;" horiz-adv-x="513" 
d="M471.5 603.5q-3.5 -3.5 -8.5 -3.5h-278q-5 0 -5 -5v-188q0 -5 5 -5h178q5 0 8.5 -3.5t3.5 -8.5v-76q0 -5 -3.5 -8.5t-8.5 -3.5h-178q-5 0 -5 -5v-192q0 -5 5 -5h278q5 0 8.5 -3.5t3.5 -8.5v-76q0 -5 -3.5 -8.5t-8.5 -3.5h-387q-5 0 -8.5 3.5t-3.5 8.5v676q0 5 3.5 8.5
t8.5 3.5h387q5 0 8.5 -3.5t3.5 -8.5v-76q0 -5 -3.5 -8.5zM220 -194.5q-19 19.5 -19 48.5t19 48t49 19q29 0 48 -19t19 -48t-19 -48.5t-48 -19.5q-30 0 -49 19.5z" />
    <glyph glyph-name="uni1EB9" unicode="&#x1eb9;" horiz-adv-x="483" 
d="M446 265l-1 -43q0 -12 -12 -12h-268q-5 0 -5 -5q2 -28 4 -41q5 -33 28 -53t58 -20q30 1 50.5 15t31.5 39q5 11 15 8l82 -17q12 -4 8 -15q-20 -62 -68.5 -95.5t-118.5 -33.5q-83 0 -133 40t-65 111q-5 27 -6.5 57t-1.5 80q0 52 5 79q10 73 62 116.5t132 43.5
q87 0 140.5 -49t59.5 -129q3 -33 3 -76zM189.5 399.5q-21.5 -19.5 -26.5 -52.5q-3 -22 -3 -50q0 -5 5 -5h159q5 0 5 5q-2 34 -4 49q-4 33 -26 53t-55 20t-54.5 -19.5zM198 -199.5q-19 19.5 -19 48.5t19 48t49 19q29 0 48 -19t19 -48t-19 -48.5t-48 -19.5q-30 0 -49 19.5z
" />
    <glyph glyph-name="uni1EBA" unicode="&#x1eba;" horiz-adv-x="513" 
d="M471.5 603.5q-3.5 -3.5 -8.5 -3.5h-278q-5 0 -5 -5v-188q0 -5 5 -5h178q5 0 8.5 -3.5t3.5 -8.5v-76q0 -5 -3.5 -8.5t-8.5 -3.5h-178q-5 0 -5 -5v-192q0 -5 5 -5h278q5 0 8.5 -3.5t3.5 -8.5v-76q0 -5 -3.5 -8.5t-8.5 -3.5h-387q-5 0 -8.5 3.5t-3.5 8.5v676q0 5 3.5 8.5
t8.5 3.5h387q5 0 8.5 -3.5t3.5 -8.5v-76q0 -5 -3.5 -8.5zM249 760q11 27 33 49q11 11 16 19.5t5 22.5q0 11 -10 19.5t-23 8.5q-15 0 -25 -6.5t-24 -24.5q-3 -6 -9 -6q-5 0 -8 3l-26 19q-5 3 -5 9q0 5 2 8q21 30 42.5 43t55.5 13q42 0 67.5 -23.5t25.5 -62.5q0 -23 -9.5 -38
t-28.5 -34q-18 -18 -26 -32q-5 -9 -15 -8l-30 6q-14 3 -8 15z" />
    <glyph glyph-name="uni1EBB" unicode="&#x1ebb;" horiz-adv-x="483" 
d="M446 265l-1 -43q0 -12 -12 -12h-268q-5 0 -5 -5q2 -28 4 -41q5 -33 28 -53t58 -20q30 1 50.5 15t31.5 39q5 11 15 8l82 -17q12 -4 8 -15q-20 -62 -68.5 -95.5t-118.5 -33.5q-83 0 -133 40t-65 111q-5 27 -6.5 57t-1.5 80q0 52 5 79q10 73 62 116.5t132 43.5
q87 0 140.5 -49t59.5 -129q3 -33 3 -76zM189.5 399.5q-21.5 -19.5 -26.5 -52.5q-3 -22 -3 -50q0 -5 5 -5h159q5 0 5 5q-2 34 -4 49q-4 33 -26 53t-55 20t-54.5 -19.5zM223 571q11 27 33 49q11 11 16 19.5t5 22.5q0 11 -10 19.5t-23 8.5q-15 0 -25 -6.5t-24 -24.5
q-3 -6 -9 -6q-5 0 -8 3l-26 19q-5 3 -5 9q0 5 2 8q21 30 42.5 43t55.5 13q42 0 67.5 -23.5t25.5 -62.5q0 -23 -9.5 -38t-28.5 -34q-18 -18 -26 -32q-5 -9 -15 -8l-30 6q-14 3 -8 15z" />
    <glyph glyph-name="uni1EBC" unicode="&#x1ebc;" horiz-adv-x="513" 
d="M471.5 603.5q-3.5 -3.5 -8.5 -3.5h-278q-5 0 -5 -5v-188q0 -5 5 -5h178q5 0 8.5 -3.5t3.5 -8.5v-76q0 -5 -3.5 -8.5t-8.5 -3.5h-178q-5 0 -5 -5v-192q0 -5 5 -5h278q5 0 8.5 -3.5t3.5 -8.5v-76q0 -5 -3.5 -8.5t-8.5 -3.5h-387q-5 0 -8.5 3.5t-3.5 8.5v676q0 5 3.5 8.5
t8.5 3.5h387q5 0 8.5 -3.5t3.5 -8.5v-76q0 -5 -3.5 -8.5zM305 781q-13 5 -30 15l-16 8t-17 7t-15 2q-28 0 -47 -22q-8 -10 -16 -2l-33 30q-8 8 -3 17q15 28 39 43t53 15q19 0 33 -5.5t35 -17.5q4 -2 13.5 -7.5t17.5 -8t16 -2.5q27 0 44 23q5 7 10 7q3 0 7 -4l31 -30
q4 -4 4 -9t-2 -8q-14 -27 -39 -41.5t-55 -14.5q-17 0 -30 5z" />
    <glyph glyph-name="uni1EBD" unicode="&#x1ebd;" horiz-adv-x="483" 
d="M446 265l-1 -43q0 -12 -12 -12h-268q-5 0 -5 -5q2 -28 4 -41q5 -33 28 -53t58 -20q30 1 50.5 15t31.5 39q5 11 15 8l82 -17q12 -4 8 -15q-20 -62 -68.5 -95.5t-118.5 -33.5q-83 0 -133 40t-65 111q-5 27 -6.5 57t-1.5 80q0 52 5 79q10 73 62 116.5t132 43.5
q87 0 140.5 -49t59.5 -129q3 -33 3 -76zM189.5 399.5q-21.5 -19.5 -26.5 -52.5q-3 -22 -3 -50q0 -5 5 -5h159q5 0 5 5q-2 34 -4 49q-4 33 -26 53t-55 20t-54.5 -19.5zM279 592q-13 5 -30 15l-16 8t-17 7t-15 2q-28 0 -47 -22q-8 -10 -16 -2l-33 30q-8 8 -3 17q15 28 39 43
t53 15q19 0 33 -5.5t35 -17.5q4 -2 13.5 -7.5t17.5 -8t16 -2.5q27 0 44 23q5 7 10 7q3 0 7 -4l31 -30q4 -4 4 -9t-2 -8q-14 -27 -39 -41.5t-55 -14.5q-17 0 -30 5z" />
    <glyph glyph-name="uni1EBE" unicode="&#x1ebe;" horiz-adv-x="513" 
d="M471.5 603.5q-3.5 -3.5 -8.5 -3.5h-278q-5 0 -5 -5v-188q0 -5 5 -5h178q5 0 8.5 -3.5t3.5 -8.5v-76q0 -5 -3.5 -8.5t-8.5 -3.5h-178q-5 0 -5 -5v-192q0 -5 5 -5h278q5 0 8.5 -3.5t3.5 -8.5v-76q0 -5 -3.5 -8.5t-8.5 -3.5h-387q-5 0 -8.5 3.5t-3.5 8.5v676q0 5 3.5 8.5
t8.5 3.5h387q5 0 8.5 -3.5t3.5 -8.5v-76q0 -5 -3.5 -8.5zM129 767.5q-2 4.5 2 10.5l68 103q5 8 14 8h105q9 0 14 -8l71 -103q2 -3 2 -7q0 -8 -10 -8h-71q-10 0 -14 8l-40 65q-2 3 -4 3t-3 -3l-40 -65q-4 -8 -14 -8h-71q-7 0 -9 4.5zM402 846q-2 4 1 10l57 103q5 8 15 8h75
q7 0 9.5 -4.5t-1.5 -10.5l-71 -102q-5 -8 -14 -8h-62q-7 0 -9 4z" />
    <glyph glyph-name="uni1EBF" unicode="&#x1ebf;" horiz-adv-x="483" 
d="M446 265l-1 -43q0 -12 -12 -12h-268q-5 0 -5 -5q2 -28 4 -41q5 -33 28 -53t58 -20q30 1 50.5 15t31.5 39q5 11 15 8l82 -17q12 -4 8 -15q-20 -62 -68.5 -95.5t-118.5 -33.5q-83 0 -133 40t-65 111q-5 27 -6.5 57t-1.5 80q0 52 5 79q10 73 62 116.5t132 43.5
q87 0 140.5 -49t59.5 -129q3 -33 3 -76zM189.5 399.5q-21.5 -19.5 -26.5 -52.5q-3 -22 -3 -50q0 -5 5 -5h159q5 0 5 5q-2 34 -4 49q-4 33 -26 53t-55 20t-54.5 -19.5zM103 578.5q-2 4.5 2 10.5l68 103q5 8 14 8h105q9 0 14 -8l71 -103q2 -3 2 -7q0 -8 -10 -8h-71
q-10 0 -14 8l-40 65q-2 3 -4 3t-3 -3l-40 -65q-4 -8 -14 -8h-71q-7 0 -9 4.5zM376 657q-2 4 1 10l57 103q5 8 15 8h75q7 0 9.5 -4.5t-1.5 -10.5l-71 -102q-5 -8 -14 -8h-62q-7 0 -9 4z" />
    <glyph glyph-name="uni1EC0" unicode="&#x1ec0;" horiz-adv-x="513" 
d="M471.5 603.5q-3.5 -3.5 -8.5 -3.5h-278q-5 0 -5 -5v-188q0 -5 5 -5h178q5 0 8.5 -3.5t3.5 -8.5v-76q0 -5 -3.5 -8.5t-8.5 -3.5h-178q-5 0 -5 -5v-192q0 -5 5 -5h278q5 0 8.5 -3.5t3.5 -8.5v-76q0 -5 -3.5 -8.5t-8.5 -3.5h-387q-5 0 -8.5 3.5t-3.5 8.5v676q0 5 3.5 8.5
t8.5 3.5h387q5 0 8.5 -3.5t3.5 -8.5v-76q0 -5 -3.5 -8.5zM130 767.5q-2 4.5 2 10.5l68 103q5 8 14 8h105q9 0 14 -8l71 -103q2 -3 2 -7q0 -8 -10 -8h-71q-10 0 -14 8l-40 65q-2 3 -4 3t-3 -3l-40 -65q-4 -8 -14 -8h-71q-7 0 -9 4.5zM471 891q0 -8 -10 -8h-62q-9 0 -14 8
l-72 102q-2 3 -2 7q0 8 10 8h76q10 0 15 -8l57 -103q2 -4 2 -6z" />
    <glyph glyph-name="uni1EC1" unicode="&#x1ec1;" horiz-adv-x="483" 
d="M446 265l-1 -43q0 -12 -12 -12h-268q-5 0 -5 -5q2 -28 4 -41q5 -33 28 -53t58 -20q30 1 50.5 15t31.5 39q5 11 15 8l82 -17q12 -4 8 -15q-20 -62 -68.5 -95.5t-118.5 -33.5q-83 0 -133 40t-65 111q-5 27 -6.5 57t-1.5 80q0 52 5 79q10 73 62 116.5t132 43.5
q87 0 140.5 -49t59.5 -129q3 -33 3 -76zM189.5 399.5q-21.5 -19.5 -26.5 -52.5q-3 -22 -3 -50q0 -5 5 -5h159q5 0 5 5q-2 34 -4 49q-4 33 -26 53t-55 20t-54.5 -19.5zM103 578.5q-2 4.5 2 10.5l68 103q5 8 14 8h105q9 0 14 -8l71 -103q2 -3 2 -7q0 -8 -10 -8h-71
q-10 0 -14 8l-40 65q-2 3 -4 3t-3 -3l-40 -65q-4 -8 -14 -8h-71q-7 0 -9 4.5zM444 702q0 -8 -10 -8h-62q-9 0 -14 8l-72 102q-2 3 -2 7q0 8 10 8h76q10 0 15 -8l57 -103q2 -4 2 -6z" />
    <glyph glyph-name="uni1EC2" unicode="&#x1ec2;" horiz-adv-x="513" 
d="M471.5 603.5q-3.5 -3.5 -8.5 -3.5h-278q-5 0 -5 -5v-188q0 -5 5 -5h178q5 0 8.5 -3.5t3.5 -8.5v-76q0 -5 -3.5 -8.5t-8.5 -3.5h-178q-5 0 -5 -5v-192q0 -5 5 -5h278q5 0 8.5 -3.5t3.5 -8.5v-76q0 -5 -3.5 -8.5t-8.5 -3.5h-387q-5 0 -8.5 3.5t-3.5 8.5v676q0 5 3.5 8.5
t8.5 3.5h387q5 0 8.5 -3.5t3.5 -8.5v-76q0 -5 -3.5 -8.5zM390.5 871q-2.5 4 0.5 10q10 25 32 47q11 12 15.5 20t4.5 21q0 11 -9.5 19.5t-22.5 8.5q-14 0 -24 -6.5t-23 -23.5q-4 -6 -10 -6q-5 0 -8 3l-25 18q-5 5 -5 9t3 8q20 29 41 41.5t54 12.5q41 0 66 -23t25 -61
q0 -21 -9 -35.5t-28 -34.5q-18 -18 -26 -32q-6 -8 -15 -7l-28 5q-6 2 -8.5 6zM130 767.5q-2 4.5 2 10.5l68 103q5 8 14 8h105q9 0 14 -8l71 -103q2 -3 2 -7q0 -8 -10 -8h-71q-10 0 -14 8l-40 65q-2 3 -4 3t-3 -3l-40 -65q-4 -8 -14 -8h-71q-7 0 -9 4.5z" />
    <glyph glyph-name="uni1EC3" unicode="&#x1ec3;" horiz-adv-x="483" 
d="M446 265l-1 -43q0 -12 -12 -12h-268q-5 0 -5 -5q2 -28 4 -41q5 -33 28 -53t58 -20q30 1 50.5 15t31.5 39q5 11 15 8l82 -17q12 -4 8 -15q-20 -62 -68.5 -95.5t-118.5 -33.5q-83 0 -133 40t-65 111q-5 27 -6.5 57t-1.5 80q0 52 5 79q10 73 62 116.5t132 43.5
q87 0 140.5 -49t59.5 -129q3 -33 3 -76zM189.5 399.5q-21.5 -19.5 -26.5 -52.5q-3 -22 -3 -50q0 -5 5 -5h159q5 0 5 5q-2 34 -4 49q-4 33 -26 53t-55 20t-54.5 -19.5zM363.5 682q-2.5 4 0.5 10q10 25 32 47q11 12 15.5 20t4.5 21q0 11 -9.5 19.5t-22.5 8.5q-14 0 -24 -6.5
t-23 -23.5q-4 -6 -10 -6q-5 0 -8 3l-25 18q-5 5 -5 9t3 8q20 29 41 41.5t54 12.5q41 0 66 -23t25 -61q0 -21 -9 -35.5t-28 -34.5q-18 -18 -26 -32q-6 -8 -15 -7l-28 5q-6 2 -8.5 6zM103 578.5q-2 4.5 2 10.5l68 103q5 8 14 8h105q9 0 14 -8l71 -103q2 -3 2 -7q0 -8 -10 -8
h-71q-10 0 -14 8l-40 65q-2 3 -4 3t-3 -3l-40 -65q-4 -8 -14 -8h-71q-7 0 -9 4.5z" />
    <glyph glyph-name="uni1EC4" unicode="&#x1ec4;" horiz-adv-x="513" 
d="M471.5 603.5q-3.5 -3.5 -8.5 -3.5h-278q-5 0 -5 -5v-188q0 -5 5 -5h178q5 0 8.5 -3.5t3.5 -8.5v-76q0 -5 -3.5 -8.5t-8.5 -3.5h-178q-5 0 -5 -5v-192q0 -5 5 -5h278q5 0 8.5 -3.5t3.5 -8.5v-76q0 -5 -3.5 -8.5t-8.5 -3.5h-387q-5 0 -8.5 3.5t-3.5 8.5v676q0 5 3.5 8.5
t8.5 3.5h387q5 0 8.5 -3.5t3.5 -8.5v-76q0 -5 -3.5 -8.5zM130 767.5q-2 4.5 2 10.5l68 103q5 8 14 8h105q9 0 14 -8l71 -103q2 -3 2 -7q0 -8 -10 -8h-71q-10 0 -14 8l-40 65q-2 3 -4 3t-3 -3l-40 -65q-4 -8 -14 -8h-71q-7 0 -9 4.5zM299 925q-13 5 -30 15l-16 8t-17 7t-15 2
q-28 0 -47 -22q-8 -10 -16 -2l-33 30q-8 8 -3 17q15 28 39 43t53 15q19 0 33 -5.5t35 -17.5q4 -2 13.5 -7.5t17.5 -8t16 -2.5q27 0 44 23q5 7 10 7q3 0 7 -4l31 -30q4 -4 4 -9t-2 -8q-14 -27 -39 -41.5t-55 -14.5q-17 0 -30 5z" />
    </font>
</defs>
</svg>
